SplineFontDB: 3.0
FontName: Samyak-Devanagari
FullName: Samyak Devanagari
FamilyName: Samyak Devanagari
Weight: Medium
Copyright: Created by:\nRahul Bhalerao <b.rahul.pm@gmail.com>, \nSandeep Shedmake <sandeep.shedmake@gmail.com>, \nBageshri Salvi <sbageshri@gmail.com>, \nPravin Satpute <pravin.d.s@gmail.com>\n\nGNU GPL V.3 or later (with Font Exception), Copyright © 2005-2006 by  H.B.C.S.E., T.I.F.R.,\nHomi Bhabha Centre For Science Education, \nTata Institute Of Fundamental Research,\nV.N. Purav Marg, Mankhurd, \nMumbai 400 088, INDIA.\n\nAs a special exception, if you create a document which uses this font, and embed this font or unaltered portions of this font into the document, this font does not by itself cause the resulting document to be covered by the GNU General Public License. This exception does not however invalidate any other reasons why the document might be covered by the GNU General Public License. If you modify this font, you may extend this exception to your version of the font, but you are not obligated to do so. If you do not wish to do so, delete this exception statement from your version.  \n\nFor detailed license see: \nwww.gnu.org and\nhttp://www.gnu.org/licenses/gpl-faq.html#FontException\n\nFurther info :http://sarovar.org/projects/samyak/\nwww.gnowledge.org\n\nCONTACTS:\nNagarjuna G.\nEmail:nagarjun@gnowledge.org
Version: 1.2.2
ItalicAngle: 0
UnderlinePosition: -100
UnderlineWidth: 50
Ascent: 819
Descent: 205
LayerCount: 2
Layer: 0 1 "Back"  1
Layer: 1 1 "Fore"  0
NeedsXUIDChange: 1
FSType: 8
OS2Version: 0
OS2_WeightWidthSlopeOnly: 0
OS2_UseTypoMetrics: 0
CreationTime: 1173960152
ModificationTime: 1273578917
PfmFamily: 17
TTFWeight: 500
TTFWidth: 5
LineGap: 92
VLineGap: 0
Panose: 2 0 6 3 0 0 0 0 0 0
OS2TypoAscent: 819
OS2TypoAOffset: 1
OS2TypoDescent: -205
OS2TypoDOffset: 1
OS2TypoLinegap: 0
OS2WinAscent: -75
OS2WinAOffset: 1
OS2WinDescent: 0
OS2WinDOffset: 1
HheadAscent: 0
HheadAOffset: 1
HheadDescent: 0
HheadDOffset: 1
OS2SubXSize: 665

StartChar: .notdef
Encoding: 0 -1 0
AltUni2: 000000.ffffffff.0
Width: 443
Flags: W
LayerCount: 2
Fore
SplineSet
34 0 m 1,0,-1
 34 682 l 1,1,-1
 375 682 l 1,2,-1
 375 0 l 1,3,-1
 34 0 l 1,0,-1
68 34 m 1,4,-1
 341 34 l 1,5,-1
 341 648 l 1,6,-1
 68 648 l 1,7,-1
 68 34 l 1,4,-1
EndSplineSet
EndChar

StartChar: ChandraBindu
Encoding: 2305 2305 2
Width: 15
GlyphClass: 4
Flags: W
AnchorPoint: "Anchor-3" -189 651 mark 0
AnchorPoint: "Anchor-2" -189 651 mark 0
LayerCount: 2
Fore
SplineSet
-134 999 m 1,0,1
 -162 971 -162 971 -195 972 c 0,2,3
 -207 973 -207 973 -216 970 c 0,4,5
 -220 969 -220 969 -224 967 c 128,-1,6
 -228 965 -228 965 -234 959 c 0,7,8
 -248 945 -248 945 -246 928 c 0,9,10
 -246 926 -246 926 -245 924 c 2,11,-1
 -237 906 l 1,12,13
 -220 879 -220 879 -191 882 c 0,14,15
 -188 882 -188 882 -186 883 c 0,16,17
 -169 887 -169 887 -152 907 c 0,18,19
 -129 936 -129 936 -131 979 c 0,20,21
 -131 984 -131 984 -132 987 c 1,22,-1
 -134 999 l 1,0,1
-377 884 m 5,23,24
 -387 922 -387 922 -386 945 c 4,25,26
 -386 949 -386 949 -385 950 c 4,27,28
 -384 953 -384 953 -380 949 c 5,29,30
 -375 940 -375 940 -375 939 c 5,31,-1
 -366 918 l 6,32,33
 -318 803 -318 803 -214 795 c 4,34,35
 -155 790 -155 790 -100 819 c 4,36,37
 -71 834 -71 834 -44 858 c 5,38,39
 -15 886 -15 886 2 910 c 5,40,-1
 19 945 l 5,41,-1
 20 943 l 5,42,43
 23 932 23 932 15 908 c 4,44,45
 15 906 15 906 13 901 c 6,46,-1
 6 884 l 6,47,48
 -40 773 -40 773 -132 737 c 5,49,50
 -190 716 -190 716 -243 731 c 4,51,52
 -264 737 -264 737 -294 759 c 4,53,54
 -349 799 -349 799 -377 884 c 5,23,24
EndSplineSet
EndChar

StartChar: uni0902
Encoding: 2306 2306 3
Width: 0
GlyphClass: 4
Flags: W
AnchorPoint: "Anchor-2" -66 720 mark 0
LayerCount: 2
Fore
SplineSet
-1 929 m 1,0,1
 -30 901 -30 901 -63 903 c 0,2,3
 -74 904 -74 904 -85 900 c 0,4,5
 -88 899 -88 899 -91 897 c 0,6,7
 -95 895 -95 895 -103 889 c 1,8,9
 -115 876 -115 876 -113 858 c 1,10,-1
 -112 854 l 2,11,12
 -111 849 -111 849 -105 837 c 1,13,14
 -86 810 -86 810 -60 812 c 0,15,16
 -57 812 -57 812 -53 813 c 0,17,18
 -35 818 -35 818 -20 838 c 1,19,20
 5 867 5 867 2 909 c 0,21,22
 2 913 2 913 1 917 c 1,23,-1
 -1 929 l 1,0,1
EndSplineSet
EndChar

StartChar: uni0903
Encoding: 2307 2307 4
Width: 292
GlyphClass: 4
Flags: W
LayerCount: 2
Fore
SplineSet
75 232 m 1,0,1
 46 206 46 206 13 207 c 0,2,3
 2 208 2 208 -7 205 c 0,4,5
 -11 204 -11 204 -15 202 c 0,6,7
 -21 199 -21 199 -27 193 c 0,8,9
 -39 178 -39 178 -37 163 c 0,10,11
 -37 161 -37 161 -36 159 c 0,12,13
 -34 151 -34 151 -29 140 c 1,14,15
 -11 114 -11 114 16 117 c 0,16,17
 19 117 19 117 23 118 c 0,18,19
 42 123 42 123 56 141 c 0,20,21
 80 171 80 171 78 213 c 0,22,23
 78 218 78 218 77 221 c 1,24,-1
 75 232 l 1,0,1
75 589 m 1,25,26
 47 562 47 562 13 563 c 0,27,28
 2 564 2 564 -7 561 c 0,29,30
 -11 560 -11 560 -15 558 c 0,31,32
 -23 554 -23 554 -27 550 c 0,33,34
 -40 535 -40 535 -36 517 c 0,35,36
 -35 507 -35 507 -29 497 c 0,37,38
 -10 468 -10 468 16 473 c 0,39,40
 20 473 20 473 23 474 c 0,41,42
 42 479 42 479 56 498 c 1,43,44
 81 527 81 527 78 570 c 0,45,46
 78 574 78 574 77 578 c 1,47,-1
 75 589 l 1,25,26
EndSplineSet
EndChar

StartChar: uni0904
Encoding: 2308 2308 5
Width: 883
GlyphClass: 2
Flags: W
LayerCount: 2
Fore
SplineSet
430 848 m 0,0,1
 467 802 467 802 540 802 c 0,2,3
 575 802 575 802 668 818 c 0,4,5
 741 829 741 829 771 776 c 1,6,-1
 783 747 l 1,7,-1
 791 704 l 1,8,-1
 791 702 l 1,9,-1
 793 673 l 1,10,-1
 713 673 l 1,11,-1
 711 718 l 1,12,13
 704 766 704 766 663 762 c 0,14,15
 561 751 561 751 498 765 c 1,16,-1
 461 777 l 1,17,18
 451 782 451 782 442 787 c 0,19,20
 415 805 415 805 402 823 c 1,21,22
 384 852 384 852 390 891 c 0,23,24
 392 906 392 906 397 921 c 0,25,26
 398 923 398 923 401 930 c 0,27,28
 415 953 415 953 420 956 c 0,29,30
 422 956 422 956 422 945 c 1,31,-1
 421 934 l 1,32,-1
 419 886 l 1,33,34
 421 860 421 860 430 848 c 0,0,1
665 578 m 2,35,36
 665 622 665 622 694 629 c 1,37,-1
 509 629 l 1,38,39
 522 638 522 638 527 662 c 0,40,41
 530 677 530 677 540 682 c 1,42,-1
 913 682 l 1,43,44
 904 678 904 678 901 656 c 1,45,-1
 894 640 l 1,46,-1
 884 630 l 1,47,-1
 883 629 l 1,48,-1
 781 629 l 2,49,50
 750 629 750 629 748 578 c 1,51,-1
 748 108 l 2,52,53
 748 69 748 69 782 69 c 0,54,55
 814 69 814 69 824 100 c 0,56,57
 826 104 826 104 827 108 c 1,58,59
 828 73 828 73 816 49 c 0,60,61
 809 35 809 35 798 24 c 1,62,-1
 781 10 l 1,63,-1
 758 2 l 2,64,65
 752 0 752 0 739 0 c 0,66,67
 678 -2 678 -2 667 63 c 1,68,69
 665 85 665 85 665 93 c 2,70,-1
 665 306 l 1,71,72
 609 257 609 257 515 268 c 0,73,74
 498 269 498 269 480 273 c 2,75,-1
 466 276 l 1,76,77
 525 226 525 226 513 153 c 0,78,79
 511 142 511 142 508 131 c 0,80,81
 485 60 485 60 420 24 c 1,82,83
 382 0 382 0 337 0 c 0,84,85
 184 0 184 0 97 87 c 1,86,87
 49 138 49 138 6 239 c 1,88,-1
 -1 279 l 1,89,90
 -2 293 -2 293 9 275 c 0,91,92
 14 265 14 265 23 247 c 0,93,94
 86 104 86 104 212 77 c 1,95,96
 272 62 272 62 327 78 c 0,97,98
 353 86 353 86 377 100 c 0,99,100
 432 135 432 135 433 181 c 0,101,102
 434 216 434 216 406 248 c 1,103,-1
 382 271 l 1,104,-1
 368 281 l 2,105,106
 311 322 311 322 231 332 c 0,107,108
 182 338 182 338 187 350 c 1,109,110
 190 354 190 354 200 359 c 0,111,112
 361 432 361 432 384 506 c 0,113,114
 391 527 391 527 385 546 c 0,115,116
 381 557 381 557 373 566 c 1,117,118
 325 632 325 632 241 627 c 0,119,120
 237 627 237 627 234 627 c 0,121,122
 132 619 132 619 29 513 c 1,123,-1
 43 548 l 1,124,125
 121 639 121 639 252 681 c 1,126,127
 297 694 297 694 344 680 c 0,128,129
 367 673 367 673 392 659 c 0,130,131
 464 618 464 618 474 552 c 0,132,133
 483 487 483 487 420 427 c 0,134,135
 389 397 389 397 340 367 c 0,136,137
 330 360 330 360 306 349 c 1,138,139
 347 349 347 349 408 317 c 0,140,141
 425 309 425 309 472 311 c 0,142,143
 481 311 481 311 490 312 c 0,144,145
 628 319 628 319 657 402 c 1,146,147
 664 426 664 426 665 434 c 1,148,-1
 665 578 l 2,35,36
EndSplineSet
EndChar

StartChar: LetterA
Encoding: 2309 2309 6
Width: 886
GlyphClass: 2
Flags: W
AnchorPoint: "Anchor-2" 718 683 basechar 0
LayerCount: 2
Fore
SplineSet
668 578 m 2,0,1
 668 621 668 621 697 629 c 1,2,-1
 511 629 l 1,3,4
 524 638 524 638 529 662 c 0,5,6
 532 677 532 677 542 682 c 1,7,-1
 916 682 l 1,8,9
 907 678 907 678 904 656 c 1,10,-1
 898 640 l 1,11,-1
 887 630 l 1,12,-1
 886 629 l 1,13,-1
 784 629 l 2,14,15
 752 629 752 629 751 578 c 1,16,-1
 751 108 l 2,17,18
 751 69 751 69 785 69 c 0,19,20
 817 69 817 69 827 100 c 0,21,22
 829 104 829 104 830 108 c 1,23,24
 831 73 831 73 819 49 c 0,25,26
 812 35 812 35 801 24 c 1,27,-1
 784 10 l 1,28,-1
 761 2 l 2,29,30
 753 0 753 0 742 0 c 0,31,32
 701 -1 701 -1 683 27 c 0,33,34
 674 41 674 41 670 63 c 1,35,36
 668 85 668 85 668 93 c 2,37,-1
 668 306 l 1,38,39
 612 257 612 257 518 268 c 0,40,41
 501 269 501 269 483 273 c 2,42,-1
 469 276 l 1,43,44
 528 226 528 226 516 153 c 0,45,46
 514 142 514 142 511 131 c 0,47,48
 488 60 488 60 423 24 c 1,49,50
 385 0 385 0 340 0 c 0,51,52
 187 0 187 0 100 87 c 1,53,54
 49 144 49 144 9 239 c 1,55,-1
 2 279 l 1,56,57
 1 293 1 293 12 275 c 0,58,59
 17 265 17 265 26 247 c 0,60,61
 91 104 91 104 215 77 c 1,62,63
 275 62 275 62 330 78 c 0,64,65
 356 86 356 86 380 100 c 0,66,67
 434 134 434 134 436 181 c 0,68,69
 437 216 437 216 410 247 c 0,70,71
 395 264 395 264 371 281 c 0,72,73
 314 322 314 322 234 332 c 0,74,75
 185 338 185 338 190 350 c 1,76,77
 193 353 193 353 203 359 c 1,78,79
 364 432 364 432 387 506 c 0,80,81
 394 527 394 527 388 546 c 0,82,83
 384 557 384 557 376 566 c 1,84,85
 328 632 328 632 244 627 c 2,86,-1
 238 627 l 2,87,88
 135 619 135 619 32 513 c 1,89,-1
 46 548 l 1,90,91
 124 639 124 639 255 681 c 1,92,93
 300 694 300 694 347 680 c 0,94,95
 370 673 370 673 395 659 c 0,96,97
 467 618 467 618 477 552 c 0,98,99
 486 487 486 487 423 427 c 0,100,101
 392 397 392 397 343 367 c 0,102,103
 329 358 329 358 309 349 c 1,104,105
 350 349 350 349 411 317 c 0,106,107
 428 309 428 309 476 311 c 0,108,109
 485 311 485 311 494 312 c 0,110,111
 631 320 631 320 660 402 c 1,112,113
 667 418 667 418 668 434 c 1,114,-1
 668 578 l 2,0,1
EndSplineSet
EndChar

StartChar: LetterAA
Encoding: 2310 2310 7
Width: 1101
GlyphClass: 2
Flags: W
AnchorPoint: "Anchor-2" 917 682 basechar 0
LayerCount: 2
Fore
SplineSet
787 629 m 2,0,1
 756 629 756 629 754 578 c 1,2,-1
 755 108 l 1,3,4
 755 69 755 69 790 69 c 0,5,6
 821 69 821 69 831 100 c 1,7,8
 834 103 834 103 835 108 c 1,9,10
 836 73 836 73 823 48 c 0,11,12
 816 34 816 34 805 24 c 2,13,-1
 788 10 l 1,14,-1
 766 2 l 1,15,16
 756 0 756 0 746 0 c 0,17,18
 686 -2 686 -2 674 63 c 1,19,20
 672 85 672 85 672 93 c 2,21,-1
 672 306 l 1,22,23
 616 257 616 257 522 268 c 0,24,25
 505 269 505 269 487 273 c 2,26,-1
 473 276 l 1,27,28
 532 226 532 226 520 153 c 0,29,30
 518 142 518 142 515 131 c 0,31,32
 492 60 492 60 427 24 c 1,33,34
 389 0 389 0 344 0 c 0,35,36
 154 0 154 0 60 147 c 0,37,38
 42 177 42 177 13 239 c 1,39,-1
 6 279 l 1,40,41
 5 293 5 293 16 275 c 0,42,43
 21 265 21 265 30 247 c 0,44,45
 95 104 95 104 219 77 c 1,46,47
 280 62 280 62 335 78 c 0,48,49
 360 86 360 86 384 100 c 0,50,51
 438 134 438 134 440 181 c 0,52,53
 441 216 441 216 414 247 c 0,54,55
 399 264 399 264 376 281 c 0,56,57
 317 322 317 322 239 332 c 0,58,59
 190 338 190 338 195 350 c 1,60,61
 200 354 200 354 207 359 c 1,62,63
 369 433 369 433 391 506 c 0,64,65
 398 527 398 527 392 546 c 0,66,67
 388 557 388 557 380 566 c 1,68,69
 332 632 332 632 249 627 c 2,70,-1
 243 627 l 2,71,72
 139 619 139 619 36 513 c 1,73,-1
 50 548 l 1,74,75
 128 638 128 638 247 678 c 2,76,-1
 259 681 l 2,77,78
 301 690 301 690 347 674 c 0,79,80
 370 666 370 666 395 651 c 0,81,82
 472 606 472 606 479 540 c 0,83,84
 486 472 486 472 412 411 c 0,85,86
 373 379 373 379 313 349 c 1,87,88
 355 349 355 349 416 317 c 0,89,90
 432 309 432 309 480 311 c 0,91,92
 489 311 489 311 498 312 c 0,93,94
 634 319 634 319 665 402 c 1,95,96
 667 412 667 412 671 434 c 1,97,-1
 671 578 l 2,98,99
 671 620 671 620 700 629 c 1,100,-1
 513 629 l 1,101,102
 526 638 526 638 531 662 c 1,103,104
 536 678 536 678 544 682 c 1,105,-1
 1138 682 l 1,106,107
 1128 677 1128 677 1125 656 c 1,108,-1
 1119 640 l 1,109,110
 1114 633 1114 633 1107 629 c 1,111,-1
 1006 629 l 2,112,113
 974 629 974 629 972 578 c 1,114,-1
 973 108 l 1,115,116
 973 69 973 69 1008 69 c 0,117,118
 1038 69 1038 69 1050 100 c 0,119,120
 1052 104 1052 104 1053 108 c 1,121,122
 1054 73 1054 73 1041 48 c 0,123,124
 1034 34 1034 34 1023 24 c 2,125,-1
 1007 10 l 1,126,-1
 984 2 l 1,127,128
 974 0 974 0 965 0 c 0,129,130
 927 -1 927 -1 907 27 c 0,131,132
 897 41 897 41 892 63 c 0,133,134
 889 80 889 80 889 93 c 2,135,-1
 889 578 l 2,136,137
 889 620 889 620 919 629 c 1,138,-1
 787 629 l 2,0,1
EndSplineSet
EndChar

StartChar: LetterI
Encoding: 2311 2311 8
Width: 577
GlyphClass: 2
Flags: W
AnchorPoint: "Anchor-2" 356 683 basechar 0
LayerCount: 2
Fore
SplineSet
585 629 m 1,0,-1
 425 629 l 1,1,2
 470 608 470 608 483 563 c 0,3,4
 487 551 487 551 486 538 c 0,5,6
 485 530 485 530 483 523 c 1,7,-1
 476 508 l 2,8,9
 464 482 464 482 411 477 c 1,10,-1
 382 477 l 1,11,-1
 252 499 l 1,12,13
 229 501 229 501 219 500 c 0,14,15
 187 498 187 498 167 466 c 0,16,17
 150 436 150 436 163 405 c 0,18,19
 169 390 169 390 182 375 c 1,20,21
 200 361 200 361 247 365 c 0,22,23
 264 367 264 367 286 371 c 0,24,25
 354 383 354 383 391 381 c 0,26,27
 398 380 398 380 404 379 c 0,28,29
 477 379 477 379 514 316 c 0,30,31
 537 277 537 277 530 236 c 0,32,33
 526 218 526 218 517 200 c 0,34,35
 478 123 478 123 365 115 c 0,36,37
 331 113 331 113 294 118 c 0,38,39
 273 120 273 120 251 125 c 0,40,41
 235 128 235 128 238 115 c 0,42,43
 241 106 241 106 252 90 c 0,44,45
 276 51 276 51 317 17 c 1,46,47
 343 -1 343 -1 372 6 c 0,48,49
 387 9 387 9 403 19 c 1,50,51
 410 26 410 26 417 30 c 0,52,53
 430 39 430 39 439 34 c 1,54,55
 440 31 440 31 429 16 c 0,56,57
 427 13 427 13 422 8 c 0,58,59
 366 -48 366 -48 308 -30 c 0,60,61
 289 -24 289 -24 270 -11 c 0,62,63
 229 19 229 19 187 94 c 1,64,65
 172 124 172 124 112 160 c 1,66,67
 64 185 64 185 57 200 c 1,68,69
 42 226 42 226 46 250 c 0,70,71
 48 258 48 258 51 265 c 0,72,73
 68 297 68 297 118 289 c 0,74,75
 131 287 131 287 146 282 c 1,76,77
 171 271 171 271 199 228 c 1,78,79
 226 182 226 182 249 171 c 1,80,81
 272 158 272 158 311 160 c 0,82,83
 316 160 316 160 322 161 c 0,84,85
 421 161 421 161 449 213 c 0,86,87
 465 242 465 242 453 269 c 0,88,89
 447 282 447 282 435 295 c 1,90,-1
 416 310 l 1,91,92
 386 331 386 331 349 336 c 0,93,94
 308 342 308 342 244 330 c 0,95,96
 209 323 209 323 177 327 c 0,97,98
 161 328 161 328 146 333 c 0,99,100
 98 347 98 347 78 399 c 0,101,102
 62 439 62 439 76 474 c 0,103,104
 82 490 82 490 94 505 c 0,105,106
 133 549 133 549 216 549 c 0,107,108
 240 549 240 549 308 528 c 0,109,110
 349 516 349 516 373 520 c 0,111,112
 380 521 380 521 386 523 c 0,113,114
 418 539 418 539 409 569 c 0,115,116
 407 576 407 576 403 583 c 0,117,118
 387 617 387 617 355 627 c 0,119,120
 347 629 347 629 344 629 c 2,121,-1
 0 629 l 1,122,123
 14 638 14 638 18 662 c 0,124,125
 21 676 21 676 32 682 c 1,126,-1
 615 682 l 1,127,128
 606 678 606 678 603 656 c 1,129,-1
 597 640 l 1,130,-1
 586 630 l 1,131,-1
 585 629 l 1,0,-1
EndSplineSet
EndChar

StartChar: LetterII
Encoding: 2312 2312 9
Width: 580
GlyphClass: 2
Flags: W
AnchorPoint: "Anchor-2" 430 695 basechar 0
LayerCount: 2
Fore
SplineSet
585 629 m 1,0,-1
 425 629 l 1,1,2
 470 608 470 608 483 563 c 0,3,4
 487 551 487 551 486 538 c 0,5,6
 485 530 485 530 483 523 c 1,7,-1
 476 508 l 2,8,9
 464 482 464 482 411 477 c 1,10,-1
 382 477 l 1,11,-1
 252 499 l 1,12,13
 229 501 229 501 219 500 c 0,14,15
 187 498 187 498 167 466 c 0,16,17
 150 436 150 436 163 405 c 0,18,19
 169 390 169 390 182 375 c 1,20,21
 200 361 200 361 247 365 c 0,22,23
 264 367 264 367 286 371 c 0,24,25
 354 383 354 383 391 381 c 0,26,27
 398 380 398 380 404 379 c 0,28,29
 477 379 477 379 514 316 c 0,30,31
 537 277 537 277 530 236 c 0,32,33
 526 218 526 218 517 200 c 0,34,35
 478 123 478 123 365 115 c 0,36,37
 331 113 331 113 294 118 c 0,38,39
 273 120 273 120 251 125 c 0,40,41
 235 128 235 128 238 115 c 0,42,43
 241 106 241 106 252 90 c 0,44,45
 276 51 276 51 317 17 c 1,46,47
 343 -1 343 -1 372 6 c 0,48,49
 387 9 387 9 403 19 c 1,50,51
 410 26 410 26 417 30 c 0,52,53
 430 39 430 39 439 34 c 1,54,55
 440 31 440 31 429 16 c 0,56,57
 427 13 427 13 422 8 c 0,58,59
 366 -48 366 -48 308 -30 c 0,60,61
 289 -24 289 -24 270 -11 c 0,62,63
 229 19 229 19 187 94 c 1,64,65
 172 124 172 124 112 160 c 1,66,67
 64 185 64 185 57 200 c 1,68,69
 42 226 42 226 46 250 c 0,70,71
 48 258 48 258 51 265 c 0,72,73
 68 297 68 297 118 289 c 0,74,75
 131 287 131 287 146 282 c 1,76,77
 171 271 171 271 199 228 c 1,78,79
 226 182 226 182 249 171 c 1,80,81
 272 158 272 158 311 160 c 0,82,83
 316 160 316 160 322 161 c 0,84,85
 421 161 421 161 449 213 c 0,86,87
 465 242 465 242 453 269 c 0,88,89
 447 282 447 282 435 295 c 1,90,-1
 416 310 l 1,91,92
 386 331 386 331 349 336 c 0,93,94
 308 342 308 342 244 330 c 0,95,96
 209 323 209 323 177 327 c 0,97,98
 161 328 161 328 146 333 c 0,99,100
 98 347 98 347 78 399 c 0,101,102
 62 439 62 439 76 474 c 0,103,104
 82 490 82 490 94 505 c 0,105,106
 133 549 133 549 216 549 c 0,107,108
 240 549 240 549 308 528 c 0,109,110
 349 516 349 516 373 520 c 0,111,112
 380 521 380 521 386 523 c 0,113,114
 418 539 418 539 409 569 c 0,115,116
 407 576 407 576 403 583 c 0,117,118
 387 617 387 617 355 627 c 0,119,120
 347 629 347 629 344 629 c 2,121,-1
 0 629 l 1,122,123
 14 638 14 638 18 662 c 0,124,125
 21 676 21 676 32 682 c 1,126,-1
 615 682 l 1,127,128
 606 678 606 678 603 656 c 1,129,-1
 597 640 l 1,130,-1
 586 630 l 1,131,-1
 585 629 l 1,0,-1
358 679 m 1,132,133
 248 713 248 713 224 792 c 0,134,135
 219 810 219 810 219 826 c 1,136,137
 225 899 225 899 283 916 c 0,138,139
 315 926 315 926 363 909 c 0,140,141
 385 901 385 901 410 887 c 0,142,143
 492 843 492 843 528 843 c 0,144,145
 543 843 543 843 567 851 c 0,146,147
 571 853 571 853 573 851 c 1,148,-1
 572 845 l 1,149,150
 565 824 565 824 532 817 c 0,151,152
 513 812 513 812 492 816 c 0,153,154
 481 818 481 818 470 823 c 0,155,156
 385 860 385 860 350 859 c 0,157,158
 326 858 326 858 314 823 c 1,159,160
 303 784 303 784 331 750 c 0,161,162
 345 734 345 734 369 718 c 0,163,164
 408 692 408 692 456 679 c 1,165,-1
 358 679 l 1,132,133
EndSplineSet
EndChar

StartChar: LetterU
Encoding: 2313 2313 10
Width: 669
GlyphClass: 2
Flags: W
AnchorPoint: "Anchor-2" 386 681 basechar 0
LayerCount: 2
Fore
SplineSet
280 629 m 2,0,-1
 0 629 l 1,1,2
 14 638 14 638 18 662 c 0,3,4
 21 676 21 676 32 682 c 1,5,-1
 707 682 l 1,6,7
 697 678 697 678 694 656 c 1,8,-1
 688 640 l 1,9,-1
 678 630 l 1,10,-1
 676 629 l 1,11,-1
 385 629 l 1,12,13
 433 625 433 625 488 582 c 0,14,15
 528 552 528 552 528 509 c 0,16,17
 528 456 528 456 426 406 c 2,18,-1
 417 402 l 1,19,20
 549 380 549 380 606 280 c 0,21,22
 625 247 625 247 621 194 c 0,23,24
 620 184 620 184 618 173 c 0,25,26
 612 132 612 132 574 88 c 1,27,28
 523 25 523 25 443 7 c 0,29,30
 410 -1 410 -1 367 0 c 2,31,-1
 361 0 l 1,32,-1
 342 -1 l 1,33,34
 233 0 233 0 144 112 c 1,35,36
 62 218 62 218 49 358 c 0,37,38
 49 367 49 367 48 371 c 0,39,40
 46 395 46 395 49 402 c 0,41,42
 50 406 50 406 53 404 c 1,43,-1
 60 393 l 1,44,-1
 70 362 l 1,45,46
 90 270 90 270 176 164 c 1,47,48
 245 76 245 76 346 62 c 0,49,50
 390 57 390 57 433 75 c 0,51,52
 451 83 451 83 470 96 c 0,53,54
 527 137 527 137 532 206 c 0,55,56
 534 223 534 223 526 242 c 0,57,58
 522 252 522 252 516 261 c 0,59,60
 502 284 502 284 490 293 c 1,61,62
 401 372 401 372 259 385 c 1,63,-1
 217 387 l 1,64,-1
 207 389 l 2,65,66
 198 392 198 392 198 396 c 1,67,68
 200 399 200 399 207 402 c 1,69,-1
 317 422 l 1,70,71
 421 445 421 445 429 508 c 0,72,73
 434 553 434 553 400 583 c 1,74,-1
 377 600 l 2,75,76
 367 606 367 606 355 611 c 0,77,78
 316 629 316 629 280 629 c 2,0,-1
EndSplineSet
EndChar

StartChar: LetterUU
Encoding: 2314 2314 11
Width: 929
GlyphClass: 2
Flags: W
AnchorPoint: "Anchor-2" 324 684 basechar 0
LayerCount: 2
Fore
SplineSet
222 40 m 1,0,1
 141 100 141 100 106 168 c 1,2,3
 56 271 56 271 50 362 c 1,4,-1
 54 404 l 1,5,-1
 61 393 l 1,6,-1
 71 362 l 1,7,8
 112 229 112 229 182 148 c 1,9,10
 259 64 259 64 340 56 c 0,11,12
 390 51 390 51 428 62 c 0,13,14
 450 69 450 69 468 80 c 0,15,16
 538 122 538 122 539 182 c 0,17,18
 541 239 541 239 517 279 c 0,19,20
 505 298 505 298 486 314 c 0,21,22
 400 386 400 386 260 385 c 1,23,-1
 218 387 l 1,24,-1
 208 389 l 2,25,26
 200 391 200 391 199 396 c 1,27,28
 200 399 200 399 208 402 c 1,29,-1
 318 423 l 1,30,31
 422 448 422 448 430 508 c 0,32,33
 435 553 435 553 402 583 c 1,34,-1
 377 601 l 1,35,36
 368 606 368 606 357 611 c 0,37,38
 320 629 320 629 281 629 c 2,39,-1
 0 629 l 1,40,41
 14 638 14 638 18 662 c 0,42,43
 21 676 21 676 32 682 c 1,44,-1
 969 682 l 1,45,46
 959 677 959 677 956 656 c 1,47,-1
 950 640 l 1,48,-1
 940 630 l 1,49,-1
 938 629 l 1,50,-1
 386 629 l 1,51,52
 459 606 459 606 481 588 c 2,53,-1
 489 582 l 2,54,55
 529 552 529 552 529 509 c 0,56,57
 529 456 529 456 427 406 c 2,58,-1
 418 402 l 1,59,60
 497 388 497 388 542 357 c 1,61,62
 612 439 612 439 730 439 c 0,63,64
 738 439 738 439 741 438 c 0,65,66
 816 431 816 431 849 393 c 1,67,68
 854 391 854 391 855 388 c 1,69,70
 899 331 899 331 885 249 c 0,71,72
 878 211 878 211 860 169 c 0,73,74
 834 113 834 113 796 56 c 1,75,76
 776 29 776 29 768 33 c 1,77,78
 764 38 764 38 774 57 c 0,79,80
 777 65 777 65 784 76 c 0,81,82
 835 158 835 158 835 252 c 2,83,-1
 835 257 l 1,84,85
 832 314 832 314 800 348 c 0,86,87
 771 380 771 380 703 377 c 2,88,-1
 696 377 l 1,89,-1
 656 370 l 1,90,91
 595 354 595 354 594 314 c 0,92,93
 594 300 594 300 601 287 c 0,94,95
 630 230 630 230 624 172 c 1,96,-1
 622 156 l 1,97,98
 616 129 616 129 594 95 c 1,99,100
 523 0 523 0 376 0 c 0,101,102
 280 0 280 0 222 40 c 1,0,1
EndSplineSet
EndChar

StartChar: LetterVocalicR
Encoding: 2315 2315 12
Width: 1040
GlyphClass: 2
Flags: W
AnchorPoint: "Anchor-2" 492 682 basechar 0
LayerCount: 2
Fore
SplineSet
462 227 m 1,0,1
 447 230 447 230 418 214 c 1,2,-1
 384 193 l 1,3,-1
 319 142 l 1,4,-1
 317 140 l 1,5,-1
 257 90 l 1,6,7
 209 53 209 53 138 50 c 1,8,-1
 99 51 l 1,9,10
 90 53 90 53 83 55 c 0,11,12
 53 63 53 63 62 68 c 0,13,14
 66 71 66 71 76 72 c 0,15,16
 81 73 81 73 90 73 c 0,17,18
 121 72 121 72 147 79 c 0,19,20
 160 83 160 83 172 88 c 0,21,22
 192 96 192 96 206 109 c 0,23,24
 238 138 238 138 287 198 c 0,25,26
 318 237 318 237 386 271 c 1,27,-1
 445 305 l 2,28,29
 462 315 462 315 458 329 c 0,30,31
 456 334 456 334 452 338 c 128,-1,32
 448 342 448 342 440 346 c 0,33,34
 408 361 408 361 337 420 c 0,35,36
 267 478 267 478 222 485 c 1,37,-1
 193 486 l 1,38,-1
 188 486 l 2,39,40
 112 479 112 479 112 426 c 0,41,42
 113 390 113 390 142 360 c 1,43,44
 150 354 150 354 155 353 c 0,45,46
 178 344 178 344 179 318 c 0,47,48
 180 304 180 304 172 299 c 0,49,50
 168 296 168 296 161 296 c 1,51,-1
 141 300 l 2,52,53
 140 300 140 300 139 301 c 0,54,55
 85 324 85 324 57 391 c 0,56,57
 42 429 42 429 46 461 c 0,58,59
 47 470 47 470 49 478 c 0,60,61
 53 498 53 498 70 515 c 1,62,63
 102 557 102 557 180 562 c 0,64,65
 213 564 213 564 246 553 c 0,66,67
 264 547 264 547 282 537 c 0,68,69
 304 525 304 525 337 500 c 1,70,-1
 418 435 l 1,71,72
 440 419 440 419 462 410 c 1,73,-1
 462 578 l 2,74,75
 462 620 462 620 490 629 c 1,76,-1
 0 629 l 1,77,78
 14 638 14 638 18 662 c 0,79,80
 21 676 21 676 32 682 c 1,81,-1
 1072 682 l 1,82,83
 1062 678 1062 678 1059 656 c 1,84,-1
 1053 640 l 1,85,86
 1047 632 1047 632 1041 629 c 1,87,-1
 578 629 l 2,88,89
 546 629 546 629 544 578 c 1,90,-1
 544 376 l 1,91,-1
 588 375 l 1,92,-1
 592 375 l 2,93,94
 600 375 600 375 614 377 c 0,95,96
 658 386 658 386 657 397 c 0,97,98
 657 399 657 399 655 401 c 0,99,100
 620 436 620 436 631 482 c 0,101,102
 643 529 643 529 687 539 c 1,103,-1
 717 540 l 2,104,105
 718 540 718 540 720 540 c 0,106,107
 783 533 783 533 796 481 c 1,108,-1
 799 453 l 1,109,110
 797 434 797 434 779 403 c 0,111,112
 770 389 770 389 771 373 c 0,113,114
 772 371 772 371 772 369 c 0,115,116
 774 358 774 358 779 352 c 0,117,118
 803 322 803 322 847 295 c 0,119,120
 865 284 865 284 860 266 c 0,121,122
 858 260 858 260 854 253 c 0,123,124
 841 234 841 234 813 223 c 0,125,126
 776 210 776 210 752 164 c 0,127,128
 732 125 732 125 741 98 c 0,129,130
 746 84 746 84 758 73 c 0,131,132
 785 47 785 47 817 50 c 2,133,-1
 821 50 l 2,134,135
 900 60 900 60 991 142 c 1,136,-1
 995 143 l 1,137,-1
 995 141 l 1,138,139
 994 140 994 140 992 134 c 1,140,141
 980 119 980 119 972 111 c 1,142,143
 916 45 916 45 869 20 c 1,144,145
 826 0 826 0 776 0 c 0,146,147
 715 0 715 0 678 47 c 1,148,149
 644 87 644 87 649 129 c 1,150,-1
 651 139 l 1,151,152
 656 160 656 160 665 174 c 1,153,154
 681 206 681 206 717 236 c 1,155,-1
 750 259 l 1,156,157
 759 268 759 268 756 277 c 0,158,159
 756 279 756 279 754 282 c 0,160,161
 752 288 752 288 742 296 c 1,162,-1
 695 346 l 1,163,164
 662 324 662 324 603 325 c 1,165,-1
 575 330 l 1,166,-1
 545 335 l 1,167,-1
 545 108 l 2,168,169
 545 69 545 69 580 69 c 0,170,171
 604 69 604 69 622 100 c 0,172,173
 625 106 625 106 625 108 c 0,174,175
 627 85 627 85 621 66 c 0,176,177
 618 56 618 56 613 47 c 0,178,179
 607 35 607 35 596 24 c 1,180,-1
 579 10 l 1,181,-1
 556 2 l 1,182,183
 544 0 544 0 537 0 c 0,184,185
 476 -2 476 -2 465 63 c 1,186,187
 463 85 463 85 463 93 c 0,188,189
 463 139 463 139 462 227 c 1,0,1
EndSplineSet
EndChar

StartChar: LetterVocalicL
Encoding: 2316 2316 13
Width: 919
GlyphClass: 2
Flags: W
AnchorPoint: "Anchor-2" 548 682 basechar 0
LayerCount: 2
Fore
SplineSet
586 557 m 0,0,1
 585 592 585 592 552 617 c 0,2,3
 536 629 536 629 523 629 c 2,4,-1
 0 629 l 1,5,6
 14 638 14 638 18 662 c 0,7,8
 21 676 21 676 32 682 c 1,9,-1
 955 682 l 1,10,11
 946 678 946 678 943 656 c 1,12,-1
 936 640 l 1,13,-1
 926 630 l 1,14,-1
 925 629 l 1,15,-1
 602 629 l 1,16,17
 654 601 654 601 659 552 c 1,18,-1
 658 526 l 1,19,20
 657 523 657 523 656 521 c 0,21,22
 653 514 653 514 649 507 c 0,23,24
 646 499 646 499 648 490 c 0,25,26
 649 486 649 486 652 481 c 0,27,28
 656 476 656 476 674 471 c 0,29,30
 732 457 732 457 770 400 c 0,31,32
 806 344 806 344 801 292 c 0,33,34
 800 287 800 287 799 281 c 0,35,36
 788 216 788 216 751 204 c 1,37,-1
 730 208 l 1,38,39
 697 221 697 221 659 213 c 0,40,41
 640 209 640 209 620 200 c 1,42,43
 564 171 564 171 561 122 c 0,44,45
 558 85 558 85 588 66 c 0,46,47
 603 56 603 56 627 51 c 0,48,49
 653 46 653 46 678 47 c 0,50,51
 754 50 754 50 815 97 c 1,52,-1
 825 108 l 1,53,-1
 862 150 l 2,54,55
 870 159 870 159 871 156 c 1,56,-1
 867 139 l 1,57,-1
 861 125 l 2,58,59
 813 15 813 15 678 0 c 0,60,61
 625 -6 625 -6 579 12 c 0,62,63
 554 22 554 22 531 38 c 0,64,65
 476 76 476 76 476 141 c 0,66,67
 476 145 476 145 477 146 c 0,68,69
 495 230 495 230 581 260 c 0,70,71
 621 273 621 273 660 269 c 0,72,73
 671 268 671 268 682 266 c 0,74,75
 714 258 714 258 725 273 c 0,76,77
 731 281 731 281 731 295 c 0,78,79
 731 304 731 304 728 314 c 0,80,81
 703 410 703 410 597 413 c 1,82,-1
 558 411 l 1,83,-1
 557 411 l 2,84,85
 484 411 484 411 444 306 c 2,86,-1
 439 293 l 1,87,-1
 439 292 l 1,88,-1
 427 255 l 1,89,-1
 398 332 l 1,90,91
 369 395 369 395 323 408 c 0,92,93
 308 411 308 411 293 411 c 0,94,95
 213 410 213 410 168 339 c 0,96,97
 138 293 138 293 141 237 c 0,98,99
 142 233 142 233 142 229 c 0,100,101
 144 215 144 215 146 208 c 0,102,103
 170 122 170 122 231 67 c 1,104,105
 268 30 268 30 311 12 c 1,106,-1
 341 2 l 2,107,108
 344 2 344 2 341 1 c 2,109,-1
 331 0 l 1,110,-1
 310 1 l 2,111,112
 309 2 309 2 308 2 c 0,113,114
 307 3 307 3 303 3 c 0,115,116
 183 16 183 16 109 111 c 1,117,118
 81 145 81 145 62 219 c 1,119,120
 48 308 48 308 84 374 c 0,121,122
 101 406 101 406 130 432 c 0,123,124
 188 484 188 484 260 484 c 2,125,-1
 265 484 l 2,126,127
 328 484 328 484 370 460 c 1,128,129
 395 444 395 444 404 426 c 1,130,-1
 429 382 l 1,131,132
 472 466 472 466 526 483 c 0,133,134
 563 496 563 496 581 537 c 0,135,136
 586 550 586 550 586 557 c 0,0,1
EndSplineSet
EndChar

StartChar: LetterCandraE
Encoding: 2317 2317 14
Width: 621
GlyphClass: 2
Flags: W
AnchorPoint: "Anchor-2" 365 682 basechar 0
LayerCount: 2
Fore
SplineSet
0 629 m 1,0,1
 14 638 14 638 18 662 c 0,2,3
 21 676 21 676 32 682 c 1,4,-1
 659 682 l 1,5,6
 650 678 650 678 647 656 c 1,7,-1
 641 640 l 1,8,-1
 630 630 l 1,9,-1
 629 629 l 1,10,-1
 399 629 l 1,11,-1
 447 588 l 1,12,13
 550 485 550 485 545 408 c 1,14,-1
 545 404 l 1,15,-1
 545 400 l 1,16,17
 534 299 534 299 426 249 c 0,18,19
 321 201 321 201 261 213 c 0,20,21
 258 214 258 214 252 214 c 1,22,23
 449 269 449 269 461 383 c 0,24,25
 464 422 464 422 448 469 c 0,26,27
 441 492 441 492 429 517 c 0,28,29
 416 543 416 543 380 599 c 1,30,31
 347 636 347 636 316 629 c 0,32,33
 313 628 313 628 309 627 c 0,34,35
 298 623 298 623 281 608 c 2,36,-1
 271 598 l 1,37,38
 214 505 214 505 202 479 c 0,39,40
 151 374 151 374 160 305 c 0,41,42
 161 297 161 297 163 290 c 0,43,44
 167 266 167 266 180 244 c 0,45,46
 217 182 217 182 360 122 c 2,47,-1
 502 63 l 1,48,49
 572 32 572 32 577 0 c 0,50,51
 579 -19 579 -19 571 -36 c 0,52,53
 567 -45 567 -45 561 -53 c 0,54,55
 546 -70 546 -70 534 -79 c 1,56,-1
 506 -95 l 1,57,58
 452 -121 452 -121 410 -117 c 0,59,60
 404 -116 404 -116 399 -115 c 128,-1,61
 394 -114 394 -114 389 -114 c 1,62,63
 475 -96 475 -96 494 -54 c 0,64,65
 507 -26 507 -26 489 -3 c 0,66,67
 484 5 484 5 475 11 c 0,68,69
 471 15 471 15 466 18 c 2,70,-1
 453 28 l 1,71,-1
 296 88 l 2,72,73
 132 152 132 152 90 220 c 1,74,75
 41 303 41 303 87 422 c 0,76,77
 111 484 111 484 159 555 c 1,78,-1
 211 629 l 1,79,-1
 0 629 l 1,0,1
73 909 m 1,80,81
 57 952 57 952 60 977 c 0,82,83
 60 981 60 981 61 984 c 128,-1,84
 62 987 62 987 65 986 c 128,-1,85
 68 985 68 985 70 981 c 0,86,87
 74 975 74 975 77 970 c 1,88,-1
 87 947 l 1,89,90
 150 816 150 816 274 809 c 1,91,92
 346 803 346 803 412 837 c 0,93,94
 446 854 446 854 479 881 c 0,95,96
 512 909 512 909 535 938 c 1,97,-1
 559 977 l 2,98,99
 560 978 560 978 560 975 c 1,100,-1
 558 953 l 1,101,-1
 556 947 l 1,102,103
 555 939 555 939 549 926 c 2,104,-1
 541 909 l 2,105,106
 481 784 481 784 371 743 c 0,107,108
 320 725 320 725 271 730 c 0,109,110
 255 732 255 732 239 736 c 0,111,112
 209 744 209 744 177 766 c 0,113,114
 105 813 105 813 73 909 c 1,80,81
EndSplineSet
EndChar

StartChar: LetterShortE
Encoding: 2318 2318 15
Width: 623
GlyphClass: 2
Flags: W
AnchorPoint: "Anchor-2" 440 683 basechar 0
LayerCount: 2
Fore
SplineSet
0 629 m 1,0,1
 14 638 14 638 18 662 c 0,2,3
 21 676 21 676 32 682 c 1,4,-1
 659 682 l 1,5,6
 650 678 650 678 647 656 c 1,7,-1
 641 640 l 1,8,-1
 630 630 l 1,9,-1
 629 629 l 1,10,-1
 399 629 l 1,11,-1
 447 588 l 1,12,13
 550 485 550 485 545 408 c 1,14,-1
 545 404 l 1,15,-1
 545 400 l 1,16,17
 534 299 534 299 426 249 c 0,18,19
 321 201 321 201 261 213 c 0,20,21
 258 214 258 214 252 214 c 1,22,23
 449 269 449 269 461 383 c 0,24,25
 464 422 464 422 448 469 c 0,26,27
 441 492 441 492 429 517 c 0,28,29
 416 543 416 543 380 599 c 1,30,31
 347 636 347 636 316 629 c 0,32,33
 313 628 313 628 309 627 c 0,34,35
 298 623 298 623 281 608 c 2,36,-1
 271 598 l 1,37,38
 214 505 214 505 202 479 c 0,39,40
 151 374 151 374 160 305 c 0,41,42
 161 297 161 297 163 290 c 0,43,44
 167 266 167 266 180 244 c 0,45,46
 217 182 217 182 360 122 c 2,47,-1
 502 63 l 1,48,49
 572 32 572 32 577 0 c 0,50,51
 579 -19 579 -19 571 -36 c 0,52,53
 567 -45 567 -45 561 -53 c 0,54,55
 546 -70 546 -70 534 -79 c 1,56,-1
 506 -95 l 1,57,58
 452 -121 452 -121 410 -117 c 0,59,60
 404 -116 404 -116 399 -115 c 128,-1,61
 394 -114 394 -114 389 -114 c 1,62,63
 475 -96 475 -96 494 -54 c 0,64,65
 507 -26 507 -26 489 -3 c 0,66,67
 484 5 484 5 475 11 c 0,68,69
 471 15 471 15 466 18 c 2,70,-1
 453 28 l 1,71,-1
 296 88 l 2,72,73
 132 152 132 152 90 220 c 1,74,75
 41 303 41 303 87 422 c 0,76,77
 111 484 111 484 159 555 c 1,78,-1
 211 629 l 1,79,-1
 0 629 l 1,0,1
34 854 m 0,80,81
 69 807 69 807 143 807 c 0,82,83
 170 807 170 807 271 823 c 0,84,85
 321 830 321 830 350 810 c 0,86,87
 365 799 365 799 376 780 c 0,88,89
 390 752 390 752 394 708 c 1,90,-1
 396 679 l 1,91,-1
 316 679 l 1,92,-1
 314 724 l 1,93,94
 307 769 307 769 266 768 c 1,95,96
 169 756 169 756 104 771 c 0,97,98
 70 778 70 778 46 793 c 0,99,100
 17 810 17 810 6 828 c 0,101,102
 -12 858 -12 858 -6 897 c 0,103,104
 -4 911 -4 911 1 926 c 0,105,106
 2 928 2 928 5 935 c 0,107,108
 19 961 19 961 24 962 c 0,109,110
 26 962 26 962 26 951 c 0,111,112
 26 947 26 947 25 940 c 1,113,-1
 23 891 l 1,114,115
 25 865 25 865 34 854 c 0,80,81
EndSplineSet
EndChar

StartChar: LetterE
Encoding: 2319 2319 16
Width: 621
GlyphClass: 2
Flags: W
AnchorPoint: "Anchor-2" 343 683 basechar 0
LayerCount: 2
Fore
SplineSet
0 629 m 1,0,1
 14 638 14 638 18 662 c 0,2,3
 21 676 21 676 32 682 c 1,4,-1
 659 682 l 1,5,6
 650 678 650 678 647 656 c 1,7,-1
 641 640 l 1,8,-1
 630 630 l 1,9,-1
 629 629 l 1,10,-1
 399 629 l 1,11,-1
 447 588 l 1,12,13
 550 485 550 485 545 408 c 1,14,-1
 545 404 l 1,15,-1
 545 400 l 1,16,17
 534 299 534 299 426 249 c 0,18,19
 321 201 321 201 261 213 c 0,20,21
 258 214 258 214 252 214 c 1,22,23
 449 269 449 269 461 383 c 0,24,25
 464 422 464 422 448 469 c 0,26,27
 441 492 441 492 429 517 c 0,28,29
 416 543 416 543 380 599 c 1,30,31
 347 636 347 636 316 629 c 0,32,33
 313 628 313 628 309 627 c 0,34,35
 298 623 298 623 281 608 c 2,36,-1
 271 598 l 1,37,38
 214 505 214 505 202 479 c 0,39,40
 151 374 151 374 160 305 c 0,41,42
 161 297 161 297 163 290 c 0,43,44
 167 266 167 266 180 244 c 0,45,46
 217 182 217 182 360 122 c 2,47,-1
 502 63 l 1,48,49
 572 32 572 32 577 0 c 0,50,51
 579 -19 579 -19 571 -36 c 0,52,53
 567 -45 567 -45 561 -53 c 0,54,55
 546 -70 546 -70 534 -79 c 1,56,-1
 506 -95 l 1,57,58
 452 -121 452 -121 410 -117 c 0,59,60
 404 -116 404 -116 399 -115 c 128,-1,61
 394 -114 394 -114 389 -114 c 1,62,63
 475 -96 475 -96 494 -54 c 0,64,65
 507 -26 507 -26 489 -3 c 0,66,67
 484 5 484 5 475 11 c 0,68,69
 471 15 471 15 466 18 c 2,70,-1
 453 28 l 1,71,-1
 296 88 l 2,72,73
 132 152 132 152 90 220 c 1,74,75
 41 303 41 303 87 422 c 0,76,77
 111 484 111 484 159 555 c 1,78,-1
 211 629 l 1,79,-1
 0 629 l 1,0,1
EndSplineSet
EndChar

StartChar: LetterAI
Encoding: 2320 2320 17
Width: 623
GlyphClass: 2
Flags: W
AnchorPoint: "Anchor-2" 419 688 basechar 0
LayerCount: 2
Fore
SplineSet
0 629 m 1,0,1
 14 638 14 638 18 662 c 0,2,3
 21 676 21 676 32 682 c 1,4,-1
 659 682 l 1,5,6
 650 678 650 678 647 656 c 1,7,-1
 641 640 l 1,8,-1
 630 630 l 1,9,-1
 629 629 l 1,10,-1
 399 629 l 1,11,-1
 447 588 l 1,12,13
 550 485 550 485 545 408 c 1,14,-1
 545 404 l 1,15,-1
 545 400 l 1,16,17
 534 299 534 299 426 249 c 0,18,19
 321 201 321 201 261 213 c 0,20,21
 258 214 258 214 252 214 c 1,22,23
 449 269 449 269 461 383 c 0,24,25
 464 422 464 422 448 469 c 0,26,27
 441 492 441 492 429 517 c 0,28,29
 416 543 416 543 380 599 c 1,30,31
 347 636 347 636 316 629 c 0,32,33
 313 628 313 628 309 627 c 0,34,35
 298 623 298 623 281 608 c 2,36,-1
 271 598 l 1,37,38
 214 505 214 505 202 479 c 0,39,40
 151 374 151 374 160 305 c 0,41,42
 161 297 161 297 163 290 c 0,43,44
 167 266 167 266 180 244 c 0,45,46
 217 182 217 182 360 122 c 2,47,-1
 502 63 l 1,48,49
 572 32 572 32 577 0 c 0,50,51
 579 -19 579 -19 571 -36 c 0,52,53
 567 -45 567 -45 561 -53 c 0,54,55
 546 -70 546 -70 534 -79 c 1,56,-1
 506 -95 l 1,57,58
 452 -121 452 -121 410 -117 c 0,59,60
 404 -116 404 -116 399 -115 c 128,-1,61
 394 -114 394 -114 389 -114 c 1,62,63
 475 -96 475 -96 494 -54 c 0,64,65
 507 -26 507 -26 489 -3 c 0,66,67
 484 5 484 5 475 11 c 0,68,69
 471 15 471 15 466 18 c 2,70,-1
 453 28 l 1,71,-1
 296 88 l 2,72,73
 132 152 132 152 90 220 c 1,74,75
 41 303 41 303 87 422 c 0,76,77
 111 484 111 484 159 555 c 1,78,-1
 211 629 l 1,79,-1
 0 629 l 1,0,1
268 675 m 1,80,81
 228 704 228 704 170 843 c 0,82,83
 128 940 128 940 73 932 c 0,84,85
 70 932 70 932 67 931 c 0,86,87
 59 930 59 930 54 928 c 2,88,-1
 35 921 l 2,89,90
 25 918 25 918 26 921 c 0,91,92
 26 922 26 922 31 926 c 0,93,94
 51 944 51 944 109 962 c 0,95,96
 129 967 129 967 139 966 c 0,97,98
 220 966 220 966 232 887 c 1,99,-1
 247 855 l 1,100,101
 298 731 298 731 373 683 c 0,102,103
 383 677 383 677 384 676 c 1,104,-1
 268 675 l 1,80,81
EndSplineSet
EndChar

StartChar: LetterCandraO
Encoding: 2321 2321 18
Width: 1146
GlyphClass: 2
Flags: W
LayerCount: 2
Fore
SplineSet
830 629 m 2,0,1
 798 629 798 629 797 578 c 1,2,-1
 798 108 l 1,3,4
 798 69 798 69 833 69 c 0,5,6
 865 69 865 69 874 100 c 0,7,8
 878 110 878 110 878 108 c 0,9,10
 881 74 881 74 866 48 c 0,11,12
 859 35 859 35 848 24 c 1,13,-1
 831 10 l 1,14,-1
 809 2 l 1,15,16
 799 0 799 0 790 0 c 0,17,18
 750 -1 750 -1 731 27 c 0,19,20
 721 41 721 41 717 63 c 1,21,22
 715 85 715 85 715 93 c 2,23,-1
 715 306 l 1,24,25
 660 257 660 257 565 268 c 0,26,27
 548 269 548 269 530 273 c 2,28,-1
 516 276 l 1,29,30
 575 226 575 226 563 153 c 0,31,32
 561 142 561 142 558 131 c 0,33,34
 535 60 535 60 470 24 c 1,35,36
 432 0 432 0 387 0 c 0,37,38
 233 0 233 0 143 93 c 1,39,40
 97 145 97 145 56 239 c 1,41,-1
 49 279 l 1,42,43
 48 293 48 293 59 275 c 0,44,45
 64 265 64 265 73 247 c 0,46,47
 138 104 138 104 262 77 c 1,48,49
 323 62 323 62 378 78 c 0,50,51
 403 86 403 86 427 100 c 0,52,53
 481 134 481 134 483 181 c 0,54,55
 484 216 484 216 457 247 c 0,56,57
 442 264 442 264 419 281 c 0,58,59
 360 322 360 322 282 332 c 0,60,61
 233 338 233 338 238 350 c 0,62,63
 240 353 240 353 250 359 c 1,64,65
 412 433 412 433 434 506 c 0,66,67
 441 526 441 526 434 545 c 0,68,69
 430 556 430 556 423 566 c 0,70,71
 374 631 374 631 292 627 c 2,72,-1
 286 627 l 2,73,74
 182 619 182 619 79 513 c 1,75,-1
 93 548 l 1,76,77
 198 667 198 667 302 681 c 0,78,79
 345 687 345 687 392 669 c 0,80,81
 415 661 415 661 439 647 c 0,82,83
 516 600 516 600 522 531 c 0,84,85
 527 468 527 468 454 409 c 0,86,87
 416 379 416 379 356 349 c 0,88,89
 369 355 369 355 408 340 c 0,90,91
 429 331 429 331 458 317 c 0,92,93
 475 309 475 309 523 311 c 0,94,95
 532 311 532 311 541 312 c 0,96,97
 677 319 677 319 708 402 c 1,98,99
 710 412 710 412 714 434 c 1,100,-1
 714 578 l 2,101,102
 714 620 714 620 743 629 c 1,103,-1
 556 629 l 1,104,105
 570 638 570 638 574 662 c 1,106,107
 579 678 579 678 587 682 c 1,108,-1
 1181 682 l 1,109,110
 1171 677 1171 677 1168 656 c 1,111,-1
 1162 640 l 1,112,113
 1157 633 1157 633 1150 629 c 1,114,-1
 1049 629 l 2,115,116
 1016 629 1016 629 1015 578 c 1,117,-1
 1016 108 l 1,118,119
 1016 69 1016 69 1051 69 c 0,120,121
 1083 69 1083 69 1093 100 c 0,122,123
 1095 110 1095 110 1096 108 c 0,124,125
 1099 74 1099 74 1085 48 c 0,126,127
 1078 35 1078 35 1066 24 c 2,128,-1
 1050 10 l 1,129,-1
 1026 2 l 2,130,131
 1018 0 1018 0 1008 0 c 0,132,133
 968 -1 968 -1 949 27 c 0,134,135
 939 41 939 41 935 63 c 1,136,137
 933 85 933 85 933 93 c 2,138,-1
 933 578 l 2,139,140
 933 620 933 620 962 629 c 1,141,-1
 830 629 l 2,0,1
671 906 m 0,142,143
 655 956 655 956 658 975 c 0,144,145
 659 978 659 978 660 980 c 0,146,147
 663 986 663 986 669 977 c 0,148,149
 671 974 671 974 675 967 c 1,150,-1
 686 944 l 2,151,152
 749 814 749 814 873 805 c 0,153,154
 945 800 945 800 1011 834 c 0,155,156
 1045 851 1045 851 1078 878 c 128,-1,157
 1111 905 1111 905 1134 935 c 1,158,-1
 1156 974 l 1,159,-1
 1158 974 l 1,160,-1
 1159 972 l 1,161,162
 1160 961 1160 961 1155 943 c 0,163,164
 1152 934 1152 934 1147 923 c 0,165,166
 1144 915 1144 915 1140 906 c 0,167,168
 1080 781 1080 781 970 740 c 0,169,170
 901 715 901 715 837 734 c 0,171,172
 806 743 806 743 776 762 c 0,173,174
 700 813 700 813 671 906 c 0,142,143
EndSplineSet
EndChar

StartChar: LetterShortO
Encoding: 2322 2322 19
Width: 1145
GlyphClass: 2
Flags: W
LayerCount: 2
Fore
SplineSet
830 629 m 2,0,1
 798 629 798 629 797 578 c 1,2,-1
 798 108 l 1,3,4
 798 69 798 69 833 69 c 0,5,6
 864 69 864 69 874 100 c 1,7,8
 877 103 877 103 878 108 c 1,9,10
 879 73 879 73 866 48 c 0,11,12
 859 34 859 34 848 24 c 2,13,-1
 831 10 l 1,14,-1
 809 2 l 1,15,16
 799 0 799 0 790 0 c 0,17,18
 749 -1 749 -1 730 27 c 0,19,20
 721 41 721 41 717 63 c 1,21,22
 715 85 715 85 715 93 c 2,23,-1
 715 306 l 1,24,25
 660 257 660 257 565 268 c 0,26,27
 548 269 548 269 530 273 c 2,28,-1
 516 276 l 1,29,30
 575 226 575 226 563 153 c 0,31,32
 561 142 561 142 558 131 c 0,33,34
 535 60 535 60 470 24 c 1,35,36
 432 0 432 0 387 0 c 0,37,38
 237 0 237 0 152 88 c 1,39,40
 100 144 100 144 56 239 c 1,41,-1
 47 280 l 1,42,43
 46 292 46 292 55 280 c 1,44,45
 60 271 60 271 73 247 c 1,46,47
 138 104 138 104 262 77 c 1,48,49
 323 62 323 62 378 78 c 0,50,51
 403 86 403 86 427 100 c 0,52,53
 481 134 481 134 483 181 c 0,54,55
 484 216 484 216 457 247 c 0,56,57
 442 264 442 264 419 281 c 0,58,59
 360 322 360 322 282 332 c 0,60,61
 233 338 233 338 238 350 c 0,62,63
 240 353 240 353 250 359 c 1,64,65
 412 433 412 433 434 506 c 0,66,67
 441 527 441 527 435 546 c 0,68,69
 431 557 431 557 423 566 c 1,70,71
 375 632 375 632 292 627 c 2,72,-1
 286 627 l 2,73,74
 182 619 182 619 79 513 c 1,75,-1
 93 548 l 1,76,77
 198 667 198 667 302 681 c 0,78,79
 345 687 345 687 392 669 c 0,80,81
 415 661 415 661 439 647 c 0,82,83
 519 598 519 598 522 531 c 0,84,85
 525 467 525 467 452 409 c 0,86,87
 414 378 414 378 356 349 c 1,88,89
 398 349 398 349 458 317 c 0,90,91
 475 309 475 309 523 311 c 0,92,93
 532 311 532 311 541 312 c 0,94,95
 680 321 680 321 708 402 c 0,96,97
 711 411 711 411 714 434 c 1,98,-1
 714 578 l 2,99,100
 714 620 714 620 743 629 c 1,101,-1
 556 629 l 1,102,103
 570 638 570 638 574 662 c 1,104,105
 579 678 579 678 587 682 c 1,106,-1
 1181 682 l 1,107,108
 1171 677 1171 677 1168 656 c 1,109,-1
 1162 640 l 1,110,111
 1157 633 1157 633 1150 629 c 1,112,-1
 1049 629 l 2,113,114
 1016 629 1016 629 1015 578 c 1,115,-1
 1016 108 l 1,116,117
 1016 69 1016 69 1051 69 c 0,118,119
 1081 69 1081 69 1093 100 c 0,120,121
 1095 104 1095 104 1096 108 c 1,122,123
 1097 73 1097 73 1084 48 c 0,124,125
 1077 34 1077 34 1066 24 c 2,126,-1
 1050 10 l 1,127,-1
 1026 2 l 2,128,129
 1018 0 1018 0 1008 0 c 0,130,131
 967 -1 967 -1 948 27 c 0,132,133
 939 41 939 41 935 63 c 0,134,135
 932 80 932 80 932 93 c 2,136,-1
 932 578 l 2,137,138
 932 620 932 620 962 629 c 1,139,-1
 830 629 l 2,0,1
617 871 m 1,140,141
 659 821 659 821 733 820 c 0,142,143
 768 820 768 820 880 838 c 0,144,145
 958 850 958 850 991 795 c 0,146,147
 1008 766 1008 766 1014 720 c 1,148,-1
 1017 679 l 1,149,-1
 929 679 l 1,150,-1
 927 727 l 1,151,152
 918 778 918 778 873 776 c 1,153,154
 761 764 761 764 690 781 c 0,155,156
 656 789 656 789 631 803 c 1,157,158
 603 821 603 821 588 843 c 0,159,160
 567 874 567 874 573 915 c 0,161,162
 576 932 576 932 583 950 c 2,163,-1
 587 961 l 1,164,165
 605 989 605 989 607 989 c 1,166,-1
 606 946 l 1,167,168
 603 910 603 910 609 889 c 1,169,-1
 617 871 l 1,140,141
EndSplineSet
EndChar

StartChar: LetterO
Encoding: 2323 2323 20
Width: 1144
GlyphClass: 2
Flags: W
LayerCount: 2
Fore
SplineSet
910 681 m 1,0,1
 869 708 869 708 812 848 c 1,2,3
 769 948 769 948 707 936 c 0,4,5
 701 935 701 935 696 933 c 2,6,-1
 676 926 l 2,7,8
 666 923 666 923 667 926 c 0,9,10
 667 927 667 927 672 931 c 0,11,12
 702 955 702 955 751 967 c 0,13,14
 769 972 769 972 781 971 c 0,15,16
 841 966 841 966 886 865 c 0,17,18
 885 866 885 866 888 860 c 0,19,20
 951 719 951 719 1002 687 c 1,21,22
 1008 682 1008 682 1014 681 c 1,23,24
 1000 680 1000 680 921 681 c 2,25,-1
 910 681 l 1,0,1
830 629 m 2,26,27
 798 629 798 629 797 578 c 1,28,-1
 797 108 l 2,29,30
 797 69 797 69 833 69 c 0,31,32
 864 69 864 69 874 100 c 1,33,34
 877 103 877 103 878 108 c 1,35,36
 879 73 879 73 866 48 c 0,37,38
 859 34 859 34 848 24 c 2,39,-1
 831 10 l 1,40,-1
 809 2 l 1,41,42
 799 0 799 0 790 0 c 0,43,44
 750 -1 750 -1 731 27 c 0,45,46
 721 41 721 41 717 63 c 1,47,48
 715 85 715 85 715 93 c 2,49,-1
 715 306 l 1,50,51
 659 257 659 257 565 268 c 0,52,53
 548 269 548 269 530 273 c 2,54,-1
 516 276 l 1,55,56
 575 226 575 226 563 153 c 0,57,58
 561 142 561 142 558 131 c 0,59,60
 535 60 535 60 470 24 c 1,61,62
 432 0 432 0 387 0 c 0,63,64
 245 0 245 0 169 67 c 1,65,66
 110 116 110 116 56 239 c 1,67,-1
 49 279 l 1,68,69
 48 293 48 293 59 275 c 0,70,71
 64 265 64 265 73 247 c 0,72,73
 138 104 138 104 262 77 c 1,74,75
 323 62 323 62 378 78 c 0,76,77
 403 86 403 86 427 100 c 0,78,79
 481 134 481 134 483 181 c 0,80,81
 484 216 484 216 457 247 c 0,82,83
 442 264 442 264 419 281 c 0,84,85
 360 322 360 322 282 332 c 0,86,87
 233 338 233 338 238 350 c 0,88,89
 240 353 240 353 250 359 c 1,90,91
 412 433 412 433 434 506 c 0,92,93
 441 527 441 527 435 546 c 0,94,95
 431 557 431 557 423 566 c 1,96,97
 375 632 375 632 292 627 c 2,98,-1
 286 627 l 2,99,100
 182 619 182 619 79 513 c 1,101,-1
 93 548 l 1,102,103
 198 667 198 667 302 681 c 0,104,105
 345 687 345 687 392 669 c 0,106,107
 415 661 415 661 439 647 c 0,108,109
 519 598 519 598 522 531 c 0,110,111
 525 467 525 467 452 409 c 0,112,113
 414 378 414 378 356 349 c 1,114,115
 398 349 398 349 458 317 c 0,116,117
 475 309 475 309 523 311 c 0,118,119
 532 311 532 311 541 312 c 0,120,121
 677 319 677 319 708 402 c 1,122,123
 710 412 710 412 714 434 c 1,124,-1
 714 578 l 2,125,126
 714 620 714 620 743 629 c 1,127,-1
 556 629 l 1,128,129
 570 638 570 638 574 662 c 1,130,131
 579 678 579 678 587 682 c 1,132,-1
 1181 682 l 1,133,134
 1171 677 1171 677 1168 656 c 1,135,-1
 1162 640 l 1,136,137
 1157 633 1157 633 1150 629 c 1,138,-1
 1049 629 l 2,139,140
 1016 629 1016 629 1015 578 c 1,141,-1
 1016 108 l 1,142,143
 1016 69 1016 69 1051 69 c 0,144,145
 1081 69 1081 69 1093 100 c 0,146,147
 1095 104 1095 104 1096 108 c 1,148,149
 1097 73 1097 73 1084 48 c 0,150,151
 1077 34 1077 34 1066 24 c 2,152,-1
 1050 10 l 1,153,-1
 1026 2 l 2,154,155
 1018 0 1018 0 1008 0 c 0,156,157
 971 -1 971 -1 952 25 c 0,158,159
 941 40 941 40 935 63 c 0,160,161
 932 80 932 80 932 93 c 2,162,-1
 932 578 l 2,163,164
 932 620 932 620 962 629 c 1,165,-1
 830 629 l 2,26,27
EndSplineSet
EndChar

StartChar: LetterAU
Encoding: 2324 2324 21
Width: 1144
GlyphClass: 2
Flags: W
LayerCount: 2
Fore
SplineSet
830 629 m 2,0,1
 798 629 798 629 797 578 c 1,2,-1
 798 108 l 1,3,4
 798 69 798 69 833 69 c 0,5,6
 864 69 864 69 874 100 c 1,7,8
 877 103 877 103 878 108 c 1,9,10
 879 73 879 73 866 48 c 0,11,12
 859 34 859 34 848 24 c 2,13,-1
 831 10 l 1,14,-1
 809 2 l 1,15,16
 799 0 799 0 790 0 c 0,17,18
 749 -1 749 -1 730 27 c 0,19,20
 721 41 721 41 717 63 c 1,21,22
 715 85 715 85 715 93 c 2,23,-1
 715 306 l 1,24,25
 660 257 660 257 565 268 c 0,26,27
 548 269 548 269 530 273 c 2,28,-1
 516 276 l 1,29,30
 575 226 575 226 563 153 c 0,31,32
 561 142 561 142 558 131 c 0,33,34
 535 60 535 60 470 24 c 1,35,36
 432 0 432 0 387 0 c 0,37,38
 199 0 199 0 109 134 c 0,39,40
 86 169 86 169 56 239 c 1,41,-1
 49 279 l 1,42,43
 48 293 48 293 59 275 c 0,44,45
 64 265 64 265 73 247 c 0,46,47
 138 104 138 104 262 77 c 1,48,49
 323 62 323 62 378 78 c 0,50,51
 403 86 403 86 427 100 c 0,52,53
 481 134 481 134 483 181 c 0,54,55
 484 216 484 216 457 247 c 0,56,57
 442 264 442 264 419 281 c 0,58,59
 360 322 360 322 282 332 c 0,60,61
 233 338 233 338 238 350 c 0,62,63
 240 353 240 353 250 359 c 1,64,65
 412 433 412 433 434 506 c 0,66,67
 441 527 441 527 435 546 c 0,68,69
 431 557 431 557 423 566 c 1,70,71
 375 632 375 632 292 627 c 2,72,-1
 286 627 l 2,73,74
 182 619 182 619 79 513 c 1,75,-1
 93 548 l 1,76,77
 198 667 198 667 302 681 c 0,78,79
 345 687 345 687 392 669 c 0,80,81
 415 661 415 661 439 647 c 0,82,83
 519 598 519 598 522 531 c 0,84,85
 525 467 525 467 452 409 c 0,86,87
 414 378 414 378 356 349 c 1,88,89
 398 349 398 349 458 317 c 0,90,91
 475 309 475 309 523 311 c 0,92,93
 532 311 532 311 541 312 c 0,94,95
 677 319 677 319 708 402 c 1,96,97
 710 412 710 412 714 434 c 1,98,-1
 714 578 l 2,99,100
 714 620 714 620 743 629 c 1,101,-1
 556 629 l 1,102,103
 570 638 570 638 574 662 c 1,104,105
 579 678 579 678 587 682 c 1,106,-1
 1181 682 l 1,107,108
 1171 677 1171 677 1168 656 c 1,109,-1
 1162 640 l 1,110,111
 1157 633 1157 633 1150 629 c 1,112,-1
 1049 629 l 2,113,114
 1016 629 1016 629 1015 578 c 1,115,-1
 1016 108 l 1,116,117
 1016 69 1016 69 1051 69 c 0,118,119
 1081 69 1081 69 1093 100 c 0,120,121
 1095 104 1095 104 1096 108 c 1,122,123
 1097 73 1097 73 1084 48 c 0,124,125
 1077 34 1077 34 1066 24 c 2,126,-1
 1050 10 l 1,127,-1
 1026 2 l 2,128,129
 1018 0 1018 0 1008 0 c 0,130,131
 971 -1 971 -1 952 25 c 0,132,133
 941 40 941 40 935 63 c 0,134,135
 932 80 932 80 932 93 c 2,136,-1
 932 578 l 2,137,138
 932 620 932 620 962 629 c 1,139,-1
 830 629 l 2,0,1
840 962 m 0,140,141
 933 955 933 955 991 772 c 0,142,143
 1008 716 1008 716 1013 682 c 1,144,-1
 867 682 l 1,145,146
 830 707 830 707 745 783 c 0,147,148
 680 842 680 842 636 853 c 0,149,150
 613 858 613 858 586 854 c 0,151,152
 571 851 571 851 554 846 c 0,153,154
 545 844 545 844 544 845 c 0,155,156
 542 846 542 846 548 851 c 1,157,158
 570 875 570 875 615 888 c 0,159,160
 634 894 634 894 648 893 c 0,161,162
 724 889 724 889 827 801 c 0,163,164
 883 753 883 753 905 739 c 0,165,166
 913 734 913 734 921 733 c 1,167,-1
 889 830 l 1,168,-1
 886 839 l 1,169,170
 845 941 845 941 771 926 c 2,171,-1
 757 922 l 1,172,-1
 741 916 l 1,173,174
 724 912 724 912 735 922 c 0,175,176
 761 944 761 944 807 957 c 0,177,178
 826 963 826 963 840 962 c 0,140,141
EndSplineSet
EndChar

StartChar: LetterKA
Encoding: 2325 2325 22
Width: 932
GlyphClass: 2
Flags: W
AnchorPoint: "Anchor-2" 506.562 681.75 basechar 0
AnchorPoint: "Anchor-0" 517 -2 basechar 0
LayerCount: 2
Fore
SplineSet
452 578 m 6,0,1
 452 620 452 620 481 629 c 5,2,-1
 0 629 l 5,3,4
 14 638 14 638 18 662 c 4,5,6
 21 676 21 676 32 682 c 5,7,-1
 969 682 l 5,8,9
 959 677 959 677 956 656 c 5,10,-1
 950 640 l 5,11,-1
 940 630 l 5,12,-1
 938 629 l 5,13,-1
 568 629 l 6,14,15
 536 629 536 629 535 578 c 5,16,-1
 535 378 l 5,17,18
 582 453 582 453 650 504 c 5,19,20
 691 532 691 532 750 531 c 5,21,22
 847 526 847 526 877 445 c 4,23,24
 898 390 898 390 881 322 c 4,25,26
 873 290 873 290 856 255 c 4,27,28
 813 170 813 170 759 131 c 4,29,30
 718 100 718 100 719 108 c 4,31,32
 719 109 719 109 722 113 c 4,33,34
 841 264 841 264 827 357 c 4,35,36
 826 364 826 364 824 370 c 4,37,38
 808 431 808 431 748 456 c 4,39,40
 726 466 726 466 709 465 c 4,41,42
 649 457 649 457 582 396 c 4,43,44
 547 364 547 364 535 345 c 5,45,-1
 535 108 l 6,46,47
 535 69 535 69 569 69 c 4,48,49
 595 69 595 69 611 100 c 4,50,51
 614 106 614 106 614 108 c 4,52,53
 616 85 616 85 610 65 c 4,54,55
 607 56 607 56 603 47 c 4,56,57
 597 34 597 34 585 24 c 6,58,-1
 568 10 l 5,59,-1
 545 2 l 5,60,61
 533 0 533 0 526 0 c 4,62,63
 485 -1 485 -1 467 27 c 4,64,65
 458 41 458 41 454 63 c 5,66,67
 452 85 452 85 452 93 c 6,68,-1
 452 230 l 5,69,70
 366 114 366 114 251 117 c 6,71,-1
 244 117 l 6,72,73
 152 125 152 125 94 202 c 4,74,75
 47 264 47 264 47 343 c 4,76,77
 47 425 47 425 112 484 c 5,78,79
 180 548 180 548 271 536 c 4,80,81
 282 535 282 535 294 532 c 4,82,83
 375 515 375 515 452 444 c 5,84,-1
 452 578 l 6,0,1
312 173 m 4,85,86
 370 174 370 174 421 232 c 5,87,-1
 452 269 l 5,88,-1
 452 408 l 5,89,90
 374 489 374 489 278 488 c 4,91,92
 218 486 218 486 176 442 c 4,93,94
 136 402 136 402 137 335 c 5,95,-1
 137 330 l 5,96,97
 140 274 140 274 187 222 c 5,98,99
 235 172 235 172 312 173 c 4,85,86
EndSplineSet
EndChar

StartChar: LetterKHA
Encoding: 2326 2326 23
Width: 974
GlyphClass: 2
Flags: W
AnchorPoint: "Anchor-2" 801 683 basechar 0
AnchorPoint: "Anchor-0" 822 -2 basechar 0
LayerCount: 2
Fore
SplineSet
843 578 m 1,0,-1
 843 108 l 2,1,2
 843 69 843 69 878 69 c 0,3,4
 908 69 908 69 920 100 c 0,5,6
 922 104 922 104 923 108 c 1,7,8
 924 73 924 73 911 48 c 0,9,10
 904 34 904 34 893 24 c 2,11,-1
 877 10 l 1,12,-1
 854 2 l 1,13,14
 844 0 844 0 835 0 c 0,15,16
 794 -1 794 -1 775 27 c 0,17,18
 766 41 766 41 762 63 c 1,19,20
 760 85 760 85 760 93 c 2,21,-1
 760 95 l 1,22,-1
 760 130 l 1,23,-1
 759 154 l 1,24,25
 757 159 757 159 749 158 c 0,26,27
 745 157 745 157 739 155 c 2,28,-1
 717 144 l 1,29,-1
 669 100 l 1,30,31
 528 -1 528 -1 413 0 c 0,32,33
 252 3 252 3 176 174 c 0,34,35
 157 219 157 219 130 237 c 1,36,37
 84 264 84 264 84 267 c 1,38,39
 41 300 41 300 46 338 c 0,40,41
 46 341 46 341 47 344 c 2,42,-1
 51 356 l 2,43,44
 65 394 65 394 102 400 c 0,45,46
 107 401 107 401 128 399 c 0,47,48
 154 396 154 396 178 367 c 0,49,50
 197 344 197 344 216 344 c 1,51,52
 231 346 231 346 255 362 c 1,53,54
 324 415 324 415 322 479 c 1,55,56
 316 570 316 570 203 615 c 1,57,-1
 159 629 l 1,58,-1
 0 629 l 1,59,60
 14 638 14 638 18 662 c 0,61,62
 21 676 21 676 32 682 c 1,63,-1
 1008 682 l 1,64,65
 998 678 998 678 995 656 c 1,66,-1
 989 640 l 1,67,-1
 978 630 l 1,68,-1
 977 629 l 1,69,-1
 877 629 l 2,70,71
 844 629 844 629 843 578 c 1,0,-1
608 493 m 2,72,73
 549 492 549 492 513 439 c 1,74,75
 489 409 489 409 489 369 c 0,76,77
 489 294 489 294 552 251 c 1,78,79
 586 225 586 225 631 223 c 0,80,81
 654 222 654 222 674 230 c 0,82,83
 687 235 687 235 699 244 c 1,84,85
 718 255 718 255 734 271 c 1,86,87
 754 296 754 296 760 309 c 1,88,-1
 760 410 l 1,89,90
 707 493 707 493 613 493 c 2,91,-1
 608 493 l 2,72,73
760 464 m 1,92,-1
 760 578 l 2,93,94
 760 620 760 620 790 629 c 1,95,-1
 257 629 l 1,96,97
 323.717 614 323.717 614 373 565 c 0,98,99
 418 520 418 520 414 474 c 0,100,101
 404 364 404 364 293 314 c 1,102,103
 242 294 242 294 218 296 c 1,104,105
 241 264 241 264 258 208 c 1,106,107
 301.166 86.3507 301.166 86.3507 396 70 c 0,108,109
 454 60 454 60 516 79 c 0,110,111
 543 87 543 87 570 100 c 0,112,113
 648 141 648 141 706 182 c 1,114,115
 757 222 757 222 760 228 c 1,116,-1
 760 255 l 1,117,118
 749 229 749 229 696 204 c 1,119,120
 650 179 650 179 599 180 c 1,121,122
 488 187 488 187 435 270 c 1,123,124
 406 320 406 320 408 378 c 1,125,-1
 408 382 l 1,126,127
 411.089 468.479 411.089 468.479 481 518 c 0,128,129
 529 552 529 552 594 552 c 2,130,-1
 601 552 l 2,131,132
 664 552 664 552 736 486 c 2,133,-1
 760 464 l 1,92,-1
EndSplineSet
EndChar

StartChar: LetterGA
Encoding: 2327 2327 24
Width: 716
GlyphClass: 2
Flags: W
AnchorPoint: "Anchor-0" 566 -1 basechar 0
AnchorPoint: "Anchor-2" 547 682 basechar 0
LayerCount: 2
Fore
SplineSet
140 147 m 1,0,1
 172 113 172 113 216 124 c 0,2,3
 235 129 235 129 256 142 c 0,4,5
 322 184 322 184 311 303 c 0,6,7
 310 316 310 316 308 330 c 1,8,9
 227 360 227 360 178 335 c 0,10,11
 153 322 153 322 135 295 c 0,12,13
 100 242 100 242 114 194 c 0,14,15
 121 169 121 169 140 147 c 1,0,1
220 75 m 0,16,17
 172 72 172 72 135 89 c 0,18,19
 116 98 116 98 98 113 c 0,20,21
 42 159 42 159 46 233 c 1,22,-1
 46 239 l 1,23,24
 50 298 50 298 97 348 c 0,25,26
 142 394 142 394 230 394 c 0,27,28
 266 394 266 394 305 373 c 1,29,30
 283 460 283 460 258 516 c 1,31,32
 230 574 230 574 186 629 c 1,33,-1
 0 629 l 1,34,35
 14 638 14 638 18 662 c 0,36,37
 21 676 21 676 32 682 c 1,38,-1
 749 682 l 1,39,40
 739 678 739 678 736 656 c 1,41,-1
 730 640 l 1,42,-1
 719 630 l 1,43,-1
 718 629 l 1,44,-1
 617 629 l 2,45,46
 586 629 586 629 584 578 c 1,47,-1
 584 108 l 2,48,49
 584 69 584 69 618 69 c 0,50,51
 650 69 650 69 660 100 c 1,52,53
 663 103 663 103 664 108 c 1,54,55
 665 73 665 73 652 48 c 0,56,57
 645 34 645 34 635 24 c 1,58,-1
 617 10 l 1,59,-1
 595 2 l 2,60,61
 587 0 587 0 575 0 c 0,62,63
 534 -1 534 -1 516 27 c 0,64,65
 507 41 507 41 504 63 c 0,66,67
 501 80 501 80 501 93 c 2,68,-1
 501 578 l 2,69,70
 501 620 501 620 530 629 c 1,71,-1
 244 629 l 1,72,73
 291 572 291 572 338 486 c 0,74,75
 384 401 384 401 388 321 c 0,76,77
 392 251 392 251 371 196 c 0,78,79
 360 166 360 166 342 142 c 0,80,81
 294 81 294 81 220 75 c 0,16,17
EndSplineSet
EndChar

StartChar: LetterGHA
Encoding: 2328 2328 25
Width: 692
GlyphClass: 2
Flags: W
AnchorPoint: "Anchor-2" 538 682 basechar 0
AnchorPoint: "Anchor-0" 552 -2 basechar 0
LayerCount: 2
Fore
SplineSet
488 180 m 1,0,1
 358 18 358 18 225 47 c 0,2,3
 209 51 209 51 193 57 c 1,4,5
 140 82 140 82 112 119 c 1,6,7
 71 168 71 168 74 224 c 1,8,-1
 74 228 l 1,9,10
 75 249 75 249 84 267 c 1,11,12
 113 336 113 336 202 368 c 1,13,14
 59 395 59 395 61 478 c 0,15,16
 62 497 62 497 70 519 c 0,17,18
 85 561 85 561 196 629 c 1,19,-1
 0 629 l 1,20,21
 14 638 14 638 18 662 c 0,22,23
 21 676 21 676 32 682 c 1,24,-1
 735 682 l 1,25,26
 726 678 726 678 723 656 c 1,27,-1
 716 640 l 1,28,-1
 706 630 l 1,29,-1
 705 629 l 1,30,-1
 604 629 l 2,31,32
 572 629 572 629 570 579 c 1,33,-1
 570 108 l 2,34,35
 570 69 570 69 605 69 c 0,36,37
 637 69 637 69 647 100 c 0,38,39
 649 104 649 104 650 108 c 1,40,41
 651 73 651 73 639 49 c 0,42,43
 632 35 632 35 621 24 c 1,44,-1
 604 10 l 1,45,-1
 581 2 l 2,46,47
 573 0 573 0 562 0 c 0,48,49
 537 -1 537 -1 520 11 c 0,50,51
 510 18 510 18 504 29 c 1,52,53
 495 41 495 41 490 65 c 1,54,55
 488 85 488 85 488 93 c 2,56,-1
 488 180 l 1,0,1
488 579 m 2,57,58
 488 623 488 623 517 629 c 1,59,-1
 248 629 l 1,60,61
 154 569 154 569 148 496 c 0,62,63
 146 471 146 471 157 451 c 0,64,65
 162 442 162 442 169 434 c 0,66,67
 180 423 180 423 199 414 c 0,68,69
 231 398 231 398 276 403 c 0,70,71
 298 405 298 405 324 413 c 0,72,73
 349 421 349 421 361 419 c 0,74,75
 364 418 364 418 366 411 c 0,76,77
 366 405 366 405 359 401 c 0,78,79
 358 400 358 400 355 398 c 1,80,81
 262 369 262 369 238 354 c 1,82,83
 176 320 176 320 176 250 c 2,84,-1
 176 237 l 1,85,86
 180 157 180 157 243 120 c 1,87,88
 285 93 285 93 330 102 c 0,89,90
 353 106 353 106 377 120 c 0,91,92
 446 157 446 157 488 265 c 1,93,-1
 488 579 l 2,57,58
EndSplineSet
EndChar

StartChar: LetterNGA
Encoding: 2329 2329 26
Width: 828
GlyphClass: 2
Flags: W
AnchorPoint: "Anchor-0" 377 -5 basechar 0
AnchorPoint: "Anchor-2" 464 682 basechar 0
LayerCount: 2
Fore
SplineSet
424 629 m 1,0,-1
 0 629 l 1,1,2
 14 638 14 638 18 662 c 0,3,4
 21 676 21 676 32 682 c 1,5,-1
 868 682 l 1,6,7
 859 678 859 678 856 656 c 1,8,-1
 849 640 l 1,9,-1
 839 630 l 1,10,-1
 838 629 l 1,11,-1
 506 629 l 1,12,13
 551 609 551 609 564 564 c 0,14,15
 571 542 571 542 566 525 c 0,16,17
 564 516 564 516 558 508 c 1,18,19
 545 479 545 479 501 471 c 1,20,-1
 472 470 l 2,21,22
 465 470 465 470 381 486 c 0,23,24
 341 494 341 494 312 493 c 2,25,-1
 304 492 l 2,26,27
 295 490 295 490 281 488 c 0,28,29
 213 478 213 478 195 426 c 0,30,31
 188 406 188 406 192 390 c 0,32,33
 194 382 194 382 199 374 c 2,34,-1
 210 356 l 2,35,36
 212 353 212 353 215 351 c 0,37,38
 236 332 236 332 272 330 c 0,39,40
 441 317 441 317 493 301 c 0,41,42
 581 273 581 273 604 195 c 0,43,44
 617 148 617 148 598 109 c 0,45,46
 587 88 587 88 568 70 c 0,47,48
 499 4 499 4 398 -2 c 0,49,50
 299 -8 299 -8 203 58 c 0,51,52
 154 91 154 91 106 142 c 1,53,-1
 55 202 l 1,54,55
 48 216 48 216 49 220 c 0,56,57
 50 222 50 222 52 221 c 0,58,59
 53 221 53 221 56 219 c 2,60,-1
 63 212 l 1,61,-1
 69 208 l 1,62,63
 172 102 172 102 263 72 c 2,64,-1
 268 70 l 2,65,66
 322 49 322 49 379 54 c 0,67,68
 396 56 396 56 413 60 c 0,69,70
 493 81 493 81 514 140 c 0,71,72
 519 156 519 156 517 171 c 0,73,74
 517 179 517 179 514 187 c 0,75,76
 496 252 496 252 375 267 c 1,77,-1
 252 279 l 1,78,79
 180 293 180 293 148 321 c 0,80,81
 102 360 102 360 113 427 c 0,82,83
 115 438 115 438 118 449 c 0,84,85
 145 549 145 549 289 549 c 2,86,-1
 294 549 l 2,87,88
 338 548 338 548 407 531 c 0,89,90
 453 520 453 520 473 532 c 0,91,92
 484 538 484 538 489 550 c 0,93,94
 498 568 498 568 486 586 c 1,95,96
 481 596 481 596 469 606 c 0,97,98
 451 623 451 623 424 629 c 1,0,-1
778 409 m 1,99,100
 782 389 782 389 781 372 c 0,101,102
 780 369 780 369 780 365 c 0,103,104
 778 352 778 352 774 342 c 0,105,106
 770 331 770 331 760 317 c 1,107,108
 733 285 733 285 705 293 c 0,109,110
 699 295 699 295 692 299 c 0,111,112
 666 316 666 316 668 347 c 0,113,114
 670 359 670 359 678 369 c 0,115,116
 691 384 691 384 717 383 c 0,117,118
 739 382 739 382 758 393 c 0,119,120
 768 399 768 399 778 409 c 1,99,100
EndSplineSet
EndChar

StartChar: LetterCA
Encoding: 2330 2330 27
Width: 834
GlyphClass: 2
Flags: W
AnchorPoint: "Anchor-2" 660 683 basechar 0
AnchorPoint: "Anchor-0" 675 -2 basechar 0
LayerCount: 2
Fore
SplineSet
615 93 m 2,0,-1
 615 246 l 1,1,2
 577 172 577 172 539 133 c 1,3,4
 464 59 464 59 391 62 c 1,5,6
 297 70 297 70 248 132 c 0,7,8
 214 175 214 175 214 244 c 1,9,10
 231 393 231 393 365 432 c 0,11,12
 412 446 412 446 464 444 c 0,13,14
 471 444 471 444 478 443 c 0,15,16
 427 453 427 453 374 449 c 0,17,18
 348 446 348 446 322 441 c 0,19,20
 251 427 251 427 211 426 c 0,21,22
 165 425 165 425 124 437 c 0,23,24
 101 444 101 444 79 455 c 0,25,26
 52 468 52 468 48 477 c 0,27,28
 45 483 45 483 51 485 c 0,29,30
 54 487 54 487 61 486 c 0,31,32
 79 484 79 484 90 481 c 0,33,34
 136 471 136 471 192 473 c 2,35,-1
 202 473 l 2,36,37
 230 475 230 475 244 477 c 0,38,39
 254 479 254 479 272 483 c 2,40,-1
 371 510 l 1,41,42
 420 518 420 518 458 517 c 0,43,44
 573 516 573 516 588 461 c 0,45,46
 593 445 593 445 583 433 c 1,47,-1
 569 422 l 1,48,-1
 552 411 l 1,49,-1
 536 408 l 2,50,51
 483 396 483 396 465 398 c 0,52,53
 462 399 462 399 454 399 c 0,54,55
 379 397 379 397 340 356 c 0,56,57
 295 310 295 310 299 234 c 0,58,59
 300 229 300 229 300 224 c 0,60,61
 304 170 304 170 356 138 c 1,62,63
 395 117 395 117 427 120 c 0,64,65
 430 120 430 120 432 120 c 0,66,67
 510 131 510 131 582 249 c 0,68,69
 600 277 600 277 615 340 c 1,70,-1
 615 579 l 2,71,72
 615 622 615 622 645 629 c 1,73,-1
 0 629 l 1,74,75
 14 638 14 638 18 662 c 0,76,77
 21 676 21 676 32 682 c 1,78,-1
 863 682 l 1,79,80
 855 678 855 678 850 656 c 1,81,-1
 844 640 l 1,82,-1
 834 630 l 1,83,-1
 833 629 l 1,84,-1
 732 629 l 2,85,86
 700 629 700 629 698 579 c 1,87,-1
 698 108 l 2,88,89
 698 69 698 69 733 69 c 0,90,91
 765 69 765 69 775 100 c 0,92,93
 777 104 777 104 778 108 c 1,94,95
 779 73 779 73 767 49 c 0,96,97
 760 35 760 35 749 24 c 1,98,-1
 732 10 l 1,99,-1
 709 2 l 2,100,101
 701 0 701 0 690 0 c 0,102,103
 649 -1 649 -1 630 27 c 0,104,105
 621 41 621 41 617 63 c 1,106,107
 615 85 615 85 615 93 c 2,0,-1
EndSplineSet
EndChar

StartChar: LetterCHA
Encoding: 2331 2331 28
Width: 701
GlyphClass: 2
Flags: W
AnchorPoint: "Anchor-0" 252 -5 basechar 0
AnchorPoint: "Anchor-2" 518 682 basechar 0
LayerCount: 2
Fore
SplineSet
52 156 m 0,0,1
 41 212 41 212 73 258 c 0,2,3
 90 282 90 282 118 304 c 0,4,5
 150 329 150 329 172 332 c 0,6,7
 222 337 222 337 213 338 c 1,8,9
 188 337 188 337 168 343 c 0,10,11
 157 346 157 346 146 352 c 0,12,13
 131 360 131 360 118 379 c 1,14,15
 79 424 79 424 88 479 c 0,16,17
 90 490 90 490 94 502 c 0,18,19
 123 579 123 579 227 629 c 0,20,21
 228 630 228 630 191 630 c 0,22,23
 168 630 168 630 129 629 c 2,24,-1
 0 629 l 1,25,26
 14 638 14 638 18 662 c 0,27,28
 21 676 21 676 32 682 c 1,29,-1
 742 682 l 1,30,31
 733 678 733 678 730 656 c 1,32,-1
 724 640 l 1,33,-1
 713 630 l 1,34,-1
 712 629 l 1,35,-1
 551 629 l 1,36,37
 604 600 604 600 603 550 c 0,38,39
 602 518 602 518 560 497 c 1,40,-1
 604 484 l 1,41,42
 635 471 635 471 652 434 c 0,43,44
 663 409 663 409 659 363 c 0,45,46
 658 345 658 345 654 323 c 0,47,48
 643 251 643 251 560 148 c 1,49,50
 490 65 490 65 392 26 c 0,51,52
 303 -10 303 -10 227 0 c 0,53,54
 205 3 205 3 184 10 c 0,55,56
 74 49 74 49 52 156 c 0,0,1
478 352 m 0,57,58
 487 325 487 325 525 326 c 1,59,60
 498 301 498 301 468 309 c 0,61,62
 455 312 455 312 441 322 c 0,63,64
 402 351 402 351 401 397 c 0,65,66
 400 424 400 424 415 445 c 0,67,68
 421 454 421 454 431 463 c 0,69,70
 444 475 444 475 469 484 c 0,71,72
 510 501 510 501 525 535 c 0,73,74
 530 546 530 546 529 557 c 0,75,76
 527 596 527 596 497 618 c 0,77,78
 483 629 483 629 472 629 c 2,79,-1
 307 629 l 1,80,81
 235 600 235 600 195 539 c 0,82,83
 162 487 162 487 173 449 c 0,84,85
 178 431 178 431 191 416 c 0,86,87
 233 372 233 372 286 370 c 0,88,89
 336 368 336 368 342 351 c 0,90,91
 346 340 346 340 337 333 c 0,92,93
 332 329 332 329 324 325 c 0,94,95
 312 320 312 320 294 316 c 0,96,97
 222 299 222 299 178 256 c 0,98,99
 140 218 140 218 146 165 c 0,100,101
 146 160 146 160 147 155 c 0,102,103
 165 64 165 64 274 52 c 0,104,105
 312 48 312 48 359 65 c 0,106,107
 385 75 385 75 413 90 c 0,108,109
 478 126 478 126 532 202 c 1,110,111
 599 288 599 288 594 359 c 1,112,-1
 594 365 l 1,113,114
 587 429 587 429 530 430 c 0,115,116
 477 431 477 431 472 396 c 0,117,118
 469 378 469 378 478 352 c 0,57,58
EndSplineSet
EndChar

StartChar: LetterJA
Encoding: 2332 2332 29
Width: 893
GlyphClass: 2
Flags: W
AnchorPoint: "Anchor-2" 734 683 basechar 0
AnchorPoint: "Anchor-0" 738 -2 basechar 0
LayerCount: 2
Fore
SplineSet
424 424 m 0,0,1
 479 398 479 398 548 398 c 0,2,3
 588 398 588 398 621 411 c 0,4,5
 676 431 676 431 676 466 c 2,6,-1
 676 578 l 2,7,8
 676 620 676 620 706 629 c 1,9,-1
 0 629 l 1,10,11
 14 638 14 638 18 662 c 0,12,13
 21 676 21 676 32 682 c 1,14,-1
 924 682 l 1,15,16
 914 677 914 677 911 656 c 1,17,-1
 905 640 l 1,18,-1
 894 630 l 1,19,-1
 893 629 l 1,20,-1
 793 629 l 2,21,22
 760 629 760 629 759 578 c 1,23,-1
 759 108 l 2,24,25
 759 69 759 69 794 69 c 0,26,27
 824 69 824 69 836 100 c 0,28,29
 838 104 838 104 839 108 c 1,30,31
 840 73 840 73 827 48 c 0,32,33
 820 34 820 34 810 24 c 1,34,-1
 793 10 l 1,35,-1
 770 2 l 2,36,37
 762 0 762 0 751 0 c 0,38,39
 712 -1 712 -1 694 22 c 0,40,41
 685 34 685 34 682 53 c 0,42,43
 680 67 680 67 680 81 c 2,44,-1
 680 388 l 1,45,46
 630 342 630 342 535 344 c 0,47,48
 533 344 533 344 530 344 c 0,49,50
 466 346 466 346 407 384 c 1,51,52
 543 308 543 308 554 191 c 0,53,54
 559 140 559 140 535 98 c 0,55,56
 523 78 523 78 504 60 c 0,57,58
 440 0 440 0 348 0 c 0,59,60
 197 0 197 0 130 162 c 1,61,62
 92 248 92 248 92 374 c 1,63,64
 94 409 94 409 106 411 c 1,65,-1
 120 390 l 1,66,67
 142 227 142 227 193 144 c 0,68,69
 239 68 239 68 321 60 c 0,70,71
 390 55 390 55 430 91 c 0,72,73
 451 109 451 109 464 138 c 0,74,75
 483 184 483 184 468 228 c 0,76,77
 460 252 460 252 442 276 c 0,78,79
 415 315 415 315 338 360 c 1,80,81
 286 393 286 393 314 432 c 1,82,83
 331 453 331 453 372 443 c 0,84,85
 395 438 395 438 424 424 c 0,0,1
EndSplineSet
EndChar

StartChar: LetterJHA
Encoding: 2333 2333 30
Width: 871
GlyphClass: 2
Flags: W
AnchorPoint: "Anchor-2" 681 683 basechar 0
AnchorPoint: "Anchor-0" 716 1 basechar 0
LayerCount: 2
Fore
SplineSet
377 629 m 2,0,-1
 1 629 l 1,1,2
 14 638 14 638 19 662 c 1,3,4
 26 678 26 678 33 682 c 1,5,-1
 906 682 l 1,6,7
 896 677 896 677 893 656 c 1,8,-1
 887 640 l 1,9,-1
 877 630 l 1,10,-1
 876 629 l 1,11,-1
 772 629 l 2,12,13
 740 629 740 629 738 578 c 1,14,-1
 738 108 l 2,15,16
 738 69 738 69 773 69 c 0,17,18
 797 69 797 69 815 100 c 0,19,20
 817 104 817 104 818 108 c 1,21,22
 819 73 819 73 807 49 c 0,23,24
 800 35 800 35 788 24 c 2,25,-1
 772 10 l 1,26,-1
 749 2 l 1,27,28
 735 0 735 0 730 0 c 0,29,30
 690 -1 690 -1 671 27 c 0,31,32
 661 41 661 41 657 63 c 1,33,34
 655 85 655 85 655 93 c 2,35,-1
 655 240 l 1,36,37
 589 203 589 203 541 214 c 1,38,-1
 516 223 l 1,39,-1
 514 224 l 1,40,-1
 508 228 l 1,41,42
 469 111 469 111 307 112 c 1,43,44
 259 114 259 114 224 122 c 1,45,-1
 223 113 l 1,46,47
 227 90 227 90 278 33 c 2,48,-1
 294 14 l 1,49,50
 314 -3 314 -3 338 1 c 0,51,52
 343 2 343 2 349 4 c 0,53,54
 367 12 367 12 381 25 c 2,55,-1
 385 28 l 1,56,-1
 402 34 l 1,57,58
 403 33 403 33 404 31 c 0,59,60
 405 30 405 30 400 19 c 0,61,62
 400 18 400 18 393 9 c 2,63,-1
 389 5 l 2,64,65
 341 -49 341 -49 290 -35 c 0,66,67
 278 -32 278 -32 267 -26 c 0,68,69
 219 2 219 2 175 91 c 0,70,71
 161 121 161 121 105 157 c 0,72,73
 62 183 62 183 56 196 c 0,74,75
 43 222 43 222 45 243 c 0,76,77
 46 246 46 246 46 248 c 0,78,79
 47 253 47 253 51 263 c 1,80,81
 68 293 68 293 114 285 c 0,82,83
 125 283 125 283 138 279 c 1,84,85
 164 267 164 267 181 222 c 1,86,87
 203 177 203 177 221 166 c 0,88,89
 238 156 238 156 271 157 c 0,90,91
 279 157 279 157 282 158 c 0,92,93
 375 158 375 158 421 213 c 1,94,95
 446 247 446 247 438 277 c 0,96,97
 436 286 436 286 430 296 c 0,98,99
 421 309 421 309 410 315 c 1,100,101
 390 329 390 329 365 333 c 0,102,103
 341 337 341 337 302 333 c 0,104,105
 279 331 279 331 253 326 c 0,106,107
 218 321 218 321 191 322 c 0,108,109
 185 323 185 323 180 323 c 0,110,111
 165 325 165 325 151 330 c 0,112,113
 104 344 104 344 89 398 c 0,114,115
 77 439 77 439 90 472 c 0,116,117
 97 489 97 489 111 505 c 0,118,119
 145 544 145 544 218 547 c 0,120,121
 237 547 237 547 326 527 c 0,122,123
 372 517 372 517 397 519 c 0,124,125
 400 519 400 519 403 520 c 2,126,-1
 419 523 l 1,127,128
 449 539 449 539 442 569 c 0,129,130
 440 576 440 576 436 583 c 0,131,132
 421 617 421 617 388 627 c 0,133,134
 380 629 380 629 377 629 c 2,0,-1
457 629 m 1,135,136
 503 607 503 607 516 563 c 0,137,138
 520 551 520 551 519 538 c 0,139,140
 518 530 518 530 516 523 c 1,141,-1
 509 508 l 1,142,143
 495 483 495 483 451 473 c 0,144,145
 434 470 434 470 421 470 c 0,146,147
 419 471 419 471 414 471 c 2,148,-1
 268 486 l 1,149,-1
 230 487 l 1,150,151
 195 485 195 485 175 455 c 0,152,153
 160 433 160 433 164 410 c 1,154,-1
 166 400 l 1,155,156
 170 387 170 387 183 371 c 1,157,158
 198 359 198 359 239 361 c 0,159,160
 245 361 245 361 251 362 c 2,161,-1
 295 368 l 2,162,163
 365 379 365 379 398 377 c 2,164,-1
 404 377 l 2,165,166
 412 377 412 377 416 376 c 0,167,168
 491 372 491 372 509 307 c 1,169,-1
 512 292 l 1,170,-1
 555 283 l 1,171,172
 595 278 595 278 620 290 c 0,173,174
 632 295 632 295 640 303 c 0,175,176
 652 315 652 315 655 338 c 1,177,-1
 655 578 l 2,178,179
 655 620 655 620 685 629 c 1,180,-1
 457 629 l 1,135,136
EndSplineSet
EndChar

StartChar: LetterNYA
Encoding: 2334 2334 31
Width: 849
GlyphClass: 2
Flags: W
AnchorPoint: "Anchor-2" 692 684 basechar 0
AnchorPoint: "Anchor-0" 696 0 basechar 0
LayerCount: 2
Fore
SplineSet
635 93 m 2,0,-1
 635 382 l 1,1,2
 587 343 587 343 505 344 c 2,3,-1
 500 344 l 1,4,5
 498 277 498 277 446 210 c 1,6,7
 381 123 381 123 286 126 c 2,8,-1
 279 126 l 2,9,10
 271 126 271 126 267 127 c 0,11,12
 190 140 190 140 124 225 c 1,13,14
 48 327 48 327 48 423 c 1,15,16
 53 443 53 443 56 438 c 1,17,-1
 61 414 l 2,18,19
 92 269 92 269 188 211 c 1,20,21
 228 189 228 189 268 187 c 0,22,23
 305 186 305 186 339 212 c 0,24,25
 356 225 356 225 373 245 c 0,26,27
 417 301 417 301 413 359 c 0,28,29
 413 361 413 361 413 364 c 0,30,31
 406 454 406 454 349 494 c 0,32,33
 312 520 312 520 258 517 c 0,34,35
 253 516 253 516 248 516 c 0,36,37
 247 515 247 515 243 515 c 2,38,-1
 194 511 l 1,39,-1
 193 511 l 2,40,41
 190 512 190 512 192 513 c 128,-1,42
 194 514 194 514 198 515 c 0,43,44
 209 520 209 520 229 525 c 0,45,46
 286 538 286 538 332 533 c 0,47,48
 356 531 356 531 378 524 c 0,49,50
 416 512 416 512 438 494 c 0,51,52
 465 474 465 474 476 455 c 1,53,54
 495 427 495 427 499 397 c 0,55,56
 500 389 500 389 530 387 c 0,57,58
 557 386 557 386 577 396 c 0,59,60
 588 401 588 401 597 409 c 0,61,62
 608 419 608 419 620 439 c 1,63,64
 630 462 630 462 635 490 c 1,65,-1
 635 578 l 2,66,67
 635 620 635 620 664 629 c 1,68,-1
 1 629 l 1,69,70
 14 638 14 638 19 662 c 1,71,72
 26 678 26 678 33 682 c 1,73,-1
 885 682 l 1,74,75
 875 677 875 677 872 656 c 1,76,-1
 866 640 l 1,77,-1
 856 630 l 1,78,-1
 855 629 l 1,79,-1
 751 629 l 2,80,81
 718 629 718 629 717 578 c 1,82,-1
 717 108 l 2,83,84
 717 69 717 69 752 69 c 0,85,86
 776 69 776 69 794 100 c 0,87,88
 797 106 797 106 797 108 c 0,89,90
 799 85 799 85 793 66 c 0,91,92
 790 56 790 56 785 47 c 0,93,94
 779 35 779 35 768 24 c 1,95,-1
 751 10 l 1,96,-1
 728 2 l 1,97,98
 716 0 716 0 709 0 c 0,99,100
 648 -2 648 -2 637 63 c 1,101,102
 635 85 635 85 635 93 c 2,0,-1
EndSplineSet
EndChar

StartChar: LetterTTA
Encoding: 2335 2335 32
Width: 593
GlyphClass: 2
Flags: W
AnchorPoint: "Anchor-2" 372 683 basechar 0
AnchorPoint: "Anchor-0" 289 0 basechar 0
LayerCount: 2
Fore
SplineSet
1 629 m 1,0,1
 14 638 14 638 19 662 c 1,2,3
 26 678 26 678 33 682 c 1,4,-1
 635 682 l 1,5,6
 625 678 625 678 622 656 c 1,7,-1
 615 640 l 1,8,-1
 605 630 l 1,9,-1
 604 629 l 1,10,-1
 431 629 l 1,11,12
 477 608 477 608 480 560 c 0,13,14
 482 541 482 541 476 525 c 1,15,-1
 468 510 l 1,16,17
 444 458 444 458 352 462 c 0,18,19
 346 462 346 462 340 463 c 0,20,21
 332 463 332 463 316 465 c 2,22,-1
 290 468 l 2,23,24
 252 471 252 471 223 457 c 0,25,26
 207 449 207 449 194 437 c 1,27,28
 175 422 175 422 160 392 c 1,29,30
 128 335 128 335 132 268 c 0,31,32
 132 261 132 261 133 255 c 0,33,34
 134 242 134 242 138 224 c 0,35,36
 139 217 139 217 143 208 c 0,37,38
 172 127 172 127 242 86 c 0,39,40
 301 51 301 51 361 66 c 0,41,42
 392 74 392 74 423 95 c 0,43,44
 472 129 472 129 511 188 c 1,45,46
 536 230 536 230 545 224 c 0,47,48
 547 223 547 223 547 215 c 1,49,-1
 544 202 l 1,50,51
 523 100 523 100 434 42 c 0,52,53
 358 -9 358 -9 272 2 c 0,54,55
 256 4 256 4 240 8 c 0,56,57
 187 21 187 21 139 67 c 1,58,59
 61 131 61 131 48 248 c 0,60,61
 40 326 40 326 62 387 c 0,62,63
 74 419 74 419 94 447 c 0,64,65
 157 536 157 536 276 527 c 0,66,67
 283 527 283 527 290 526 c 0,68,69
 306 524 306 524 316 522 c 0,70,71
 327 520 327 520 349 514 c 0,72,73
 367 509 367 509 382 518 c 0,74,75
 391 524 391 524 398 534 c 0,76,77
 425 568 425 568 398 603 c 0,78,79
 388 615 388 615 381 621 c 0,80,81
 378 624 378 624 368 629 c 1,82,-1
 1 629 l 1,0,1
EndSplineSet
EndChar

StartChar: LetterTTHA
Encoding: 2336 2336 33
Width: 667
GlyphClass: 2
Flags: W
AnchorPoint: "Anchor-2" 321 683 basechar 0
AnchorPoint: "Anchor-0" 316 -1 basechar 0
LayerCount: 2
Fore
SplineSet
307 629 m 1,0,-1
 0 629 l 1,1,2
 14 638 14 638 18 662 c 0,3,4
 21 676 21 676 32 682 c 1,5,-1
 703 682 l 1,6,7
 694 678 694 678 691 656 c 1,8,-1
 685 640 l 1,9,-1
 674 630 l 1,10,-1
 673 629 l 1,11,-1
 386 629 l 1,12,13
 438 601 438 601 443 552 c 1,14,-1
 442 526 l 1,15,16
 441 524 441 524 440 521 c 0,17,18
 437 514 437 514 433 507 c 1,19,20
 426 487 426 487 430 482 c 0,21,22
 431 479 431 479 436 480 c 0,23,24
 447 481 447 481 457 477 c 0,25,26
 463 474 463 474 469 469 c 1,27,28
 617 396 617 396 615 251 c 0,29,30
 613 153 613 153 523 77 c 0,31,32
 431 -2 431 -2 313 -1 c 0,33,34
 271 -1 271 -1 226 13 c 1,35,36
 134 46 134 46 85 133 c 0,37,38
 46 200 46 200 52 266 c 0,39,40
 53 274 53 274 54 281 c 0,41,42
 59 305 59 305 68 324 c 1,43,44
 115 445 115 445 307 484 c 0,45,46
 308 485 308 485 312 485 c 0,47,48
 344 491 344 491 365 535 c 0,49,50
 371 548 371 548 370 557 c 0,51,52
 369 592 369 592 336 617 c 0,53,54
 323 627 323 627 307 629 c 1,0,-1
172 155 m 0,55,56
 198 97 198 97 274 76 c 0,57,58
 336 58 336 58 390 75 c 0,59,60
 415 83 415 83 438 99 c 0,61,62
 494 140 494 140 516 219 c 0,63,64
 532 280 532 280 519 330 c 0,65,66
 513 353 513 353 497 376 c 0,67,68
 480 398 480 398 460 412 c 0,69,70
 422 436 422 436 349 436 c 2,71,-1
 339 435 l 1,72,-1
 338 435 l 2,73,74
 232 425 232 425 179 340 c 1,75,76
 145 280 145 280 152 226 c 0,77,78
 153 219 153 219 154 213 c 0,79,80
 158 188 158 188 164 173 c 0,81,82
 166 167 166 167 172 155 c 0,55,56
EndSplineSet
EndChar

StartChar: LetterDDA
Encoding: 2337 2337 34
Width: 667
GlyphClass: 2
Flags: W
AnchorPoint: "Anchor-2" 417 683 basechar 0
AnchorPoint: "Anchor-0" 387 -4 basechar 0
LayerCount: 2
Fore
SplineSet
424 629 m 1,0,-1
 0 629 l 1,1,2
 14 638 14 638 18 662 c 0,3,4
 21 676 21 676 32 682 c 1,5,-1
 710 682 l 1,6,7
 700 678 700 678 697 656 c 1,8,-1
 691 640 l 1,9,-1
 681 630 l 1,10,-1
 680 629 l 1,11,-1
 506 629 l 1,12,13
 551 609 551 609 564 564 c 0,14,15
 571 542 571 542 566 525 c 0,16,17
 564 516 564 516 558 508 c 1,18,19
 545 479 545 479 501 471 c 1,20,-1
 472 470 l 2,21,22
 465 470 465 470 381 486 c 0,23,24
 341 494 341 494 312 493 c 2,25,-1
 304 492 l 2,26,27
 295 490 295 490 281 488 c 0,28,29
 213 478 213 478 195 426 c 0,30,31
 188 406 188 406 192 390 c 0,32,33
 194 382 194 382 199 374 c 2,34,-1
 210 356 l 2,35,36
 212 353 212 353 215 351 c 0,37,38
 236 332 236 332 272 330 c 0,39,40
 359 323 359 323 493 301 c 0,41,42
 573 288 573 288 596 218 c 0,43,44
 610 172 610 172 592 126 c 0,45,46
 583 101 583 101 564 76 c 0,47,48
 509 4 509 4 398 -2 c 0,49,50
 299 -8 299 -8 203 58 c 0,51,52
 154 91 154 91 106 142 c 1,53,-1
 55 202 l 1,54,55
 48 216 48 216 49 220 c 0,56,57
 50 222 50 222 52 221 c 0,58,59
 53 221 53 221 56 219 c 2,60,-1
 63 212 l 1,61,-1
 69 208 l 1,62,63
 172 102 172 102 263 72 c 2,64,-1
 268 70 l 2,65,66
 316 50 316 50 373 57 c 0,67,68
 394 59 394 59 416 65 c 0,69,70
 495 87 495 87 514 140 c 0,71,72
 519 156 519 156 517 171 c 0,73,74
 517 179 517 179 514 187 c 0,75,76
 496 252 496 252 375 267 c 1,77,-1
 252 279 l 1,78,79
 131 298 131 298 106 380 c 0,80,81
 102 394 102 394 103 413 c 0,82,83
 103 417 103 417 104 421 c 0,84,85
 122 549 122 549 289 549 c 2,86,-1
 294 549 l 2,87,88
 338 548 338 548 407 531 c 0,89,90
 453 520 453 520 473 532 c 0,91,92
 484 538 484 538 489 550 c 0,93,94
 498 568 498 568 486 586 c 1,95,96
 481 596 481 596 469 606 c 0,97,98
 451 623 451 623 424 629 c 1,0,-1
EndSplineSet
EndChar

StartChar: LetterDDHA
Encoding: 2338 2338 35
Width: 620
GlyphClass: 2
Flags: W
AnchorPoint: "Anchor-2" 398 685 basechar 0
AnchorPoint: "Anchor-0" 337 -4 basechar 0
LayerCount: 2
Fore
SplineSet
262 76 m 1,0,1
 308 50 308 50 357 54 c 0,2,3
 363 55 363 55 370 56 c 2,4,-1
 380 57 l 1,5,-1
 389 59 l 2,6,7
 456 73 456 73 484 117 c 1,8,9
 496 132 496 132 496 164 c 0,10,11
 496 181 496 181 490 193 c 0,12,13
 480 215 480 215 455 221 c 0,14,15
 434 226 434 226 412 214 c 0,16,17
 401 208 401 208 390 198 c 1,18,19
 377 184 377 184 371 164 c 0,20,21
 366 145 366 145 368 129 c 0,22,23
 368 121 368 121 371 113 c 0,24,25
 378 95 378 95 382 88 c 0,26,27
 391 72 391 72 396 67 c 0,28,29
 397 65 397 65 396 65 c 2,30,-1
 389 70 l 2,31,32
 348 96 348 96 338 138 c 0,33,34
 326 187 326 187 341 222 c 0,35,36
 348 239 348 239 361 252 c 0,37,38
 399 289 399 289 447 293 c 0,39,40
 486 296 486 296 512 285 c 0,41,42
 527 279 527 279 538 268 c 1,43,44
 555 254 555 254 564 227 c 0,45,46
 575 197 575 197 572 163 c 0,47,48
 571 154 571 154 570 146 c 0,49,50
 565 124 565 124 557 103 c 1,51,-1
 543 82 l 1,52,53
 492 13 492 13 393 1 c 0,54,55
 327 -7 327 -7 271 4 c 0,56,57
 241 9 241 9 214 20 c 0,58,59
 158 45 158 45 109 109 c 1,60,61
 53 187 53 187 58 302 c 1,62,-1
 58 312 l 1,63,64
 63 394 63 394 127 458 c 1,65,66
 206 544 206 544 388 515 c 0,67,68
 419 510 419 510 434 525 c 0,69,70
 442 533 442 533 446 547 c 0,71,72
 455 570 455 570 447 590 c 0,73,74
 443 601 443 601 434 610 c 1,75,76
 418 630 418 630 389 630 c 2,77,-1
 0 629 l 1,78,79
 14 638 14 638 18 662 c 0,80,81
 21 676 21 676 32 682 c 1,82,-1
 657 682 l 1,83,84
 648 678 648 678 645 656 c 1,85,-1
 639 640 l 1,86,-1
 628 630 l 1,87,-1
 627 629 l 1,88,-1
 470 630 l 1,89,90
 529 592 529 592 531 539 c 0,91,92
 532 517 532 517 521 501 c 0,93,94
 516 493 516 493 509 487 c 1,95,-1
 487 475 l 1,96,-1
 478 472 l 2,97,98
 448 463 448 463 409 466 c 0,99,100
 401 466 401 466 393 467 c 0,101,102
 321 475 321 475 280 468 c 1,103,-1
 250 459 l 1,104,-1
 242 455 l 2,105,106
 181 420 181 420 160 346 c 1,107,108
 143 293 143 293 153 233 c 0,109,110
 158 203 158 203 170 172 c 0,111,112
 190 113 190 113 262 76 c 1,0,1
EndSplineSet
EndChar

StartChar: LetterNNA
Encoding: 2339 2339 36
Width: 756
GlyphClass: 2
Flags: W
AnchorPoint: "Anchor-2" 595 683 basechar 0
AnchorPoint: "Anchor-0" 620 -2 basechar 0
LayerCount: 2
Fore
SplineSet
334 628 m 1,0,-1
 210 627 l 1,1,2
 112.04 489.721 112.04 489.721 126 392 c 0,3,4
 127 385 127 385 128 377 c 0,5,6
 129 366 129 366 135 348 c 0,7,8
 160 277 160 277 229 258 c 1,9,10
 254 253 254 253 269 253 c 0,11,12
 297.182 252.091 297.182 252.091 325 266 c 0,13,14
 337 272 337 272 348 282 c 0,15,16
 371 305 371 305 381 321 c 0,17,18
 419 383 419 383 413 454 c 1,19,-1
 411 468 l 1,20,21
 409 486 409 486 404 502 c 1,22,23
 388.317 570 388.317 570 334 628 c 1,0,-1
171 628 m 1,24,-1
 0 629 l 1,25,26
 12.6746 637.148 12.6746 637.148 18 662 c 0,27,28
 21 676 21 676 32 682 c 1,29,-1
 804 682 l 1,30,31
 795 678 795 678 792 656 c 1,32,-1
 785 640 l 1,33,-1
 775 630 l 1,34,-1
 774 629 l 1,35,-1
 670 629 l 2,36,37
 638 629 638 629 637 578 c 1,38,-1
 637 108 l 2,39,40
 637 69 637 69 671 69 c 0,41,42
 697.5 69 697.5 69 713 100 c 0,43,44
 715 104 715 104 716 108 c 1,45,46
 717 73 717 73 705 49 c 0,47,48
 698 35 698 35 687 24 c 1,49,-1
 670 10 l 1,50,-1
 647 2 l 2,51,52
 641.25 2.77556e-16 641.25 2.77556e-16 628 0 c 0,53,54
 561.918 -2.09752 561.918 -2.09752 556 63 c 0,55,56
 554 85 554 85 554 93 c 2,57,-1
 554 578 l 2,58,59
 554 620 554 620 583 629 c 1,60,-1
 375 629 l 1,61,62
 496 535.656 496 535.656 496 405 c 0,63,64
 496 400 496 400 495 394 c 0,65,66
 483 300 483 300 402 239 c 0,67,68
 336 190 336 190 268 190 c 0,69,70
 198 190 198 190 132 237 c 0,71,72
 41 302 41 302 41 413 c 0,73,74
 41 418 41 418 42 423 c 0,75,76
 53.867 524 53.867 524 171 628 c 1,24,-1
EndSplineSet
EndChar

StartChar: LetterTA
Encoding: 2340 2340 37
Width: 702
GlyphClass: 2
Flags: W
AnchorPoint: "Anchor-2" 524 681 basechar 0
AnchorPoint: "Anchor-0" 549 -2 basechar 0
LayerCount: 2
Fore
SplineSet
481 324 m 1,0,1
 469 362 469 362 400 384 c 0,2,3
 349 400 349 400 298 396 c 0,4,5
 288 396 288 396 278 394 c 0,6,7
 248 390 248 390 218 376 c 1,8,9
 192 362 192 362 175 349 c 0,10,11
 113 300 113 300 118 205 c 0,12,13
 119 199 119 199 119 194 c 0,14,15
 124 127 124 127 160 53 c 1,16,-1
 176 8 l 2,17,18
 179 0 179 0 176 -1 c 1,19,-1
 172 0 l 1,20,21
 119 38 119 38 81 130 c 1,22,23
 40 223 40 223 47 295 c 1,24,-1
 49 311 l 1,25,26
 54 336 54 336 61 354 c 1,27,28
 87 410 87 410 138 434 c 0,29,30
 206 468 206 468 302 466 c 2,31,-1
 308 466 l 1,32,-1
 319 466 l 2,33,34
 408 462 408 462 482 424 c 1,35,-1
 482 578 l 2,36,37
 482 620 482 620 512 629 c 1,38,-1
 0 629 l 1,39,40
 14 638 14 638 18 662 c 0,41,42
 21 676 21 676 32 682 c 1,43,-1
 735 682 l 1,44,45
 726 678 726 678 723 656 c 1,46,-1
 716 640 l 1,47,-1
 706 630 l 1,48,-1
 705 629 l 1,49,-1
 599 629 l 2,50,51
 566 629 566 629 565 578 c 1,52,-1
 565 108 l 2,53,54
 565 69 565 69 600 69 c 0,55,56
 624 69 624 69 642 100 c 0,57,58
 644 104 644 104 645 108 c 1,59,60
 646 73 646 73 634 49 c 0,61,62
 627 35 627 35 615 24 c 2,63,-1
 599 10 l 1,64,-1
 575 2 l 1,65,66
 563 0 563 0 557 0 c 0,67,68
 517 -1 517 -1 498 27 c 0,69,70
 488 41 488 41 484 63 c 1,71,72
 482 85 482 85 482 93 c 1,73,-1
 481 324 l 1,0,1
EndSplineSet
EndChar

StartChar: LetterTHA
Encoding: 2341 2341 38
Width: 817
GlyphClass: 2
Flags: W
AnchorPoint: "Anchor-2" 643 681 basechar 0
AnchorPoint: "Anchor-0" 668 0 basechar 0
LayerCount: 2
Fore
SplineSet
218 367 m 0,0,1
 271 364 271 364 308 382 c 0,2,3
 326 391 326 391 340 404 c 1,4,5
 388 455 388 455 382 516 c 0,6,7
 381 522 381 522 380 527 c 0,8,9
 370 590 370 590 313 614 c 0,10,11
 297 621 297 621 282 620 c 0,12,13
 217 614 217 614 208 570 c 0,14,15
 205 555 205 555 209 542 c 0,16,17
 211 534 211 534 215 527 c 0,18,19
 222 516 222 516 231 510 c 0,20,21
 256 490 256 490 285 496 c 0,22,23
 300 499 300 499 315 509 c 2,24,-1
 335 521 l 2,25,26
 340 524 340 524 341 518 c 1,27,-1
 341 509 l 1,28,29
 336 487 336 487 313 470 c 1,30,31
 272 435 272 435 217 442 c 0,32,33
 208 444 208 444 198 446 c 0,34,35
 152 458 152 458 128 504 c 0,36,37
 116 526 116 526 114 559 c 0,38,39
 113 584 113 584 123 607 c 0,40,41
 127 619 127 619 135 630 c 0,42,43
 146 646 146 646 172 665 c 1,44,45
 217 694 217 694 286 694 c 1,46,47
 346 690 346 690 394 656 c 1,48,49
 437 629 437 629 460 564 c 1,50,51
 472 522 472 522 467 481 c 0,52,53
 465 458 465 458 457 434 c 0,54,55
 448 403 448 403 426 378 c 0,56,57
 393 339 393 339 309 318 c 0,58,59
 272 310 272 310 229 312 c 0,60,61
 209 314 209 314 187 317 c 0,62,63
 150 324 150 324 125 336 c 0,64,65
 122 337 122 337 122 333 c 1,66,-1
 121 324 l 1,67,-1
 121 313 l 1,68,69
 129 229 129 229 184 174 c 0,70,71
 227 131 227 131 288 120 c 0,72,73
 311 116 311 116 349 123 c 0,74,75
 369 126 369 126 392 132 c 0,76,77
 427 141 427 141 464 163 c 0,78,79
 550 212 550 212 585 285 c 0,80,81
 601 316 601 316 601 346 c 2,82,-1
 601 577 l 2,83,84
 601 620 601 620 630 629 c 1,85,-1
 477 629 l 1,86,87
 492 639 492 639 496 662 c 0,88,89
 499 678 499 678 509 682 c 1,90,-1
 851 682 l 1,91,92
 842 678 842 678 839 656 c 1,93,-1
 833 640 l 1,94,-1
 822 630 l 1,95,-1
 821 629 l 1,96,-1
 717 629 l 2,97,98
 686 629 686 629 684 577 c 1,99,-1
 684 108 l 2,100,101
 684 69 684 69 718 69 c 0,102,103
 750 69 750 69 760 100 c 0,104,105
 762 104 762 104 763 108 c 1,106,107
 764 73 764 73 752 49 c 0,108,109
 745 35 745 35 734 24 c 1,110,-1
 717 10 l 1,111,-1
 694 2 l 2,112,113
 686 0 686 0 675 0 c 0,114,115
 612 -2 612 -2 603 63 c 0,116,117
 601 85 601 85 601 93 c 2,118,-1
 601 243 l 1,119,120
 569 163 569 163 482 113 c 1,121,122
 408 68 408 68 314 59 c 0,123,124
 306 58 306 58 290 60 c 0,125,126
 156 77 156 77 84 182 c 1,127,128
 56 225 56 225 48 274 c 0,129,130
 42 315 42 315 48 345 c 0,131,132
 51 359 51 359 56 371 c 1,133,134
 77 411 77 411 101 404 c 1,135,-1
 109 400 l 2,136,137
 159 371 159 371 218 367 c 0,0,1
EndSplineSet
EndChar

StartChar: LetterDA
Encoding: 2342 2342 39
Width: 633
GlyphClass: 2
Flags: W
AnchorPoint: "Anchor-2" 355 681 basechar 0
AnchorPoint: "Anchor-0" 493 -53 basechar 0
LayerCount: 2
Fore
SplineSet
334 470 m 0,0,1
 305 474 305 474 275 466 c 0,2,3
 257 461 257 461 239 453 c 0,4,5
 171 423 171 423 150 366 c 1,6,-1
 145 354 l 1,7,8
 132 316 132 316 136 280 c 0,9,10
 138 265 138 265 143 250 c 0,11,12
 148 233 148 233 170 198 c 0,13,14
 216 128 216 128 285 116 c 0,15,16
 316.098 111.024 316.098 111.024 336 116 c 0,17,18
 344 118 344 118 360 124 c 1,19,20
 328.467 158.4 328.467 158.4 340 193 c 0,21,22
 341 196 341 196 341 200 c 0,23,24
 346 254 346 254 388 258 c 1,25,-1
 407 258 l 2,26,27
 418 258 418 258 426 254 c 1,28,29
 462 242 462 242 464 187 c 0,30,31
 465 166 465 166 460 148 c 1,32,-1
 453 132 l 1,33,34
 443 119 443 119 437 114 c 2,35,-1
 431 109 l 1,36,37
 431 79 431 79 451 43 c 0,38,39
 483.38 -16.1772 483.38 -16.1772 533 -2 c 0,40,41
 540 0 540 0 548 2 c 1,42,-1
 592 23 l 2,43,44
 594.013 23.9608 594.013 23.9608 595 21 c 0,45,46
 596 19 596 19 595 16 c 1,47,-1
 591 10 l 2,48,49
 541.571 -64.1429 541.571 -64.1429 489 -51 c 2,50,-1
 481 -49 l 2,51,52
 474.333 -47.3333 474.333 -47.3333 466 -44 c 0,53,54
 404 -18 404 -18 371 86 c 1,55,56
 309 59.8437 309 59.8437 244 70 c 0,57,58
 212 75 212 75 179 91 c 0,59,60
 88 135 88 135 57 227 c 1,61,62
 47 262 47 262 47 315 c 0,63,64
 47 321 47 321 48 327 c 0,65,66
 57 420 57 420 148 479 c 0,67,68
 228.792 530.134 228.792 530.134 311 521 c 2,69,-1
 329 519 l 2,70,71
 361.664 515.371 361.664 515.371 377 528 c 1,72,73
 386 538 386 538 388 550 c 0,74,75
 391.577 566.692 391.577 566.692 389 577 c 0,76,77
 387 585 387 585 384 592 c 0,78,79
 380 601 380 601 370 611 c 0,80,81
 352 629 352 629 330 629 c 2,82,-1
 0 629 l 1,83,84
 12.6746 637.148 12.6746 637.148 18 662 c 0,85,86
 21 676 21 676 32 682 c 1,87,-1
 668 682 l 1,88,89
 658 677 658 677 655 656 c 1,90,-1
 649 640 l 1,91,-1
 639 630 l 1,92,-1
 638 629 l 1,93,-1
 410 629 l 1,94,95
 472 590 472 590 472 539 c 1,96,-1
 468 517 l 1,97,-1
 458 500 l 1,98,-1
 442 485 l 1,99,100
 418.045 468 418.045 468 354 468 c 0,101,102
 344 468 344 468 334 470 c 0,0,1
EndSplineSet
EndChar

StartChar: LetterDHA
Encoding: 2343 2343 40
Width: 752
GlyphClass: 2
Flags: W
AnchorPoint: "Anchor-2" 602 682 basechar 0
AnchorPoint: "Anchor-0" 623 0 basechar 0
LayerCount: 2
Fore
SplineSet
113 234 m 0,0,1
 140 290 140 290 203 321 c 1,2,3
 223 333 223 333 256 334 c 1,4,5
 183.647 334 183.647 334 118 365 c 0,6,7
 82 382 82 382 63 416 c 1,8,9
 40 464 40 464 48 516 c 0,10,11
 51.7421 540.947 51.7421 540.947 58 557 c 0,12,13
 81 616 81 616 131 647 c 1,14,15
 193.045 689 193.045 689 278 689 c 2,16,-1
 282 689 l 1,17,-1
 301 687 l 1,18,19
 382 673 382 673 413 621 c 0,20,21
 431.207 590.049 431.207 590.049 426 551 c 0,22,23
 424 536 424 536 416 520 c 0,24,25
 384.896 457.791 384.896 457.791 290 455 c 0,26,27
 256 454 256 454 225 462 c 0,28,29
 213 465 213 465 202 469 c 0,30,31
 179 476 179 476 168 487 c 2,32,-1
 158 497 l 2,33,34
 145.75 509.25 145.75 509.25 147 513 c 1,35,-1
 162 507 l 1,36,-1
 169 502 l 2,37,38
 172.5 499.5 172.5 499.5 183 495 c 0,39,40
 212 482 212 482 246 488 c 0,41,42
 265 491 265 491 285 500 c 0,43,44
 331 520 331 520 339 543 c 0,45,46
 351 574 351 574 335 597 c 0,47,48
 329 606 329 606 318 614 c 0,49,50
 314 617 314 617 309 620 c 0,51,52
 279 635 279 635 241 625 c 0,53,54
 227.261 621.565 227.261 621.565 199 608 c 0,55,56
 174 596 174 596 147 558 c 1,57,58
 129.15 514.95 129.15 514.95 134 481 c 0,59,60
 135 474 135 474 137 466 c 128,-1,61
 139 458 139 458 145 442 c 1,62,63
 164.636 410.208 164.636 410.208 200 390 c 0,64,65
 255.588 358.235 255.588 358.235 374 369 c 0,66,67
 385 370 385 370 396 370 c 0,68,69
 413.033 369.94 413.033 369.94 430 371 c 0,70,71
 457.243 372.703 457.243 372.703 474 366 c 0,72,73
 480.212 363.515 480.212 363.515 481 358 c 0,74,75
 483 344 483 344 464 338 c 0,76,77
 453 335 453 335 437 334 c 1,78,-1
 361 323 l 1,79,80
 189 280 189 280 183 202 c 0,81,82
 178 135 178 135 209 99 c 0,83,84
 224 81 224 81 249 71 c 0,85,86
 294 51 294 51 350 66 c 0,87,88
 378 73 378 73 410 90 c 0,89,90
 513 145 513 145 562 265 c 1,91,-1
 562 577 l 1,92,93
 562 620 562 620 591 629 c 1,94,-1
 454 629 l 1,95,96
 466.88 638 466.88 638 472 662 c 0,97,98
 475 678 475 678 484 682 c 1,99,-1
 787 682 l 1,100,101
 778 678 778 678 775 656 c 1,102,-1
 769 640 l 1,103,-1
 758 630 l 1,104,-1
 757 629 l 1,105,-1
 676 629 l 2,106,107
 645 629 645 629 643 577 c 1,108,-1
 643 108 l 2,109,110
 643 69 643 69 678 69 c 0,111,112
 709 69 709 69 719 100 c 1,113,114
 723.027 107.047 723.027 107.047 723 108 c 0,115,116
 724 73 724 73 711 48 c 0,117,118
 703.2 32.4 703.2 32.4 693 24 c 2,119,-1
 676 10 l 1,120,-1
 653 2 l 2,121,122
 647.25 2.77556e-16 647.25 2.77556e-16 635 0 c 0,123,124
 595.967 -1 595.967 -1 577 27 c 0,125,126
 568 41 568 41 564 63 c 1,127,128
 562 85 562 85 562 93 c 1,129,-1
 562 180 l 1,130,131
 433 13 433 13 302 6 c 0,132,133
 230 2 230 2 176 35 c 0,134,135
 149 51 149 51 127 76 c 1,136,137
 83.1639 138.623 83.1639 138.623 98 195 c 0,138,139
 103 214 103 214 113 234 c 0,0,1
EndSplineSet
EndChar

StartChar: LetterNA
Encoding: 2344 2344 41
Width: 831
GlyphClass: 2
Flags: W
AnchorPoint: "Anchor-2" 654 682 basechar 0
AnchorPoint: "Anchor-0" 679 -1 basechar 0
LayerCount: 2
Fore
SplineSet
616 336 m 1,0,1
 616 378 616 378 598 386 c 0,2,3
 526 415 526 415 474 422 c 0,4,5
 439 427 439 427 386 426 c 0,6,7
 375 426 375 426 363 425 c 0,8,9
 313 423 313 423 302 417 c 1,10,11
 334.532 390.764 334.532 390.764 349 330 c 0,12,13
 352 317.4 352 317.4 352 286 c 0,14,15
 352 280 352 280 351 274 c 0,16,17
 346.302 222.321 346.302 222.321 316 181 c 0,18,19
 305 166 305 166 288 152 c 1,20,21
 273 142 273 142 271 141 c 0,22,23
 237.313 119.478 237.313 119.478 174 124 c 0,24,25
 160 125 160 125 144 128 c 0,26,27
 98.8204 136.651 98.8204 136.651 70 177 c 0,28,29
 45 212 45 212 45 279 c 0,30,31
 45 288 45 288 46 292 c 0,32,33
 60 397 60 397 156 441 c 1,34,35
 207.387 467.178 207.387 467.178 299 472 c 2,36,-1
 337 474 l 2,37,38
 433.767 479.093 433.767 479.093 532 459 c 0,39,40
 577 450 577 450 616 435 c 1,41,-1
 615 578 l 1,42,43
 615 620 615 620 645 629 c 1,44,-1
 0 629 l 1,45,46
 12.6746 637.148 12.6746 637.148 18 662 c 0,47,48
 21 676 21 676 32 682 c 1,49,-1
 863 682 l 1,50,51
 855 678 855 678 850 656 c 1,52,-1
 844 640 l 1,53,-1
 834 630 l 1,54,-1
 833 629 l 1,55,-1
 732 629 l 2,56,57
 700 629 700 629 698 578 c 1,58,-1
 698 108 l 2,59,60
 698 69 698 69 733 69 c 0,61,62
 759.5 69 759.5 69 775 100 c 0,63,64
 777 104 777 104 778 108 c 1,65,66
 779 73 779 73 767 49 c 0,67,68
 760 35 760 35 749 24 c 1,69,-1
 732 10 l 1,70,-1
 709 2 l 2,71,72
 703.25 2.77556e-16 703.25 2.77556e-16 690 0 c 0,73,74
 627 0 627 0 617 63 c 1,75,76
 615 85 615 85 615 93 c 1,77,-1
 616 336 l 1,0,1
150 206 m 0,78,79
 177.693 180.217 177.693 180.217 215 187 c 0,80,81
 226 189 226 189 237 194 c 0,82,83
 296 220 296 220 300 310 c 0,84,85
 302 355 302 355 286 383 c 0,86,87
 277 398 277 398 263 407 c 1,88,89
 231 402 231 402 217 397 c 0,90,91
 177 384 177 384 159 366 c 0,92,93
 125 333 125 333 123 294 c 0,94,95
 120.879 250.511 120.879 250.511 133 228 c 0,96,97
 140 215 140 215 150 206 c 0,78,79
EndSplineSet
EndChar

StartChar: LetterNNNA
Encoding: 2345 2345 42
Width: 832
GlyphClass: 2
Flags: W
AnchorPoint: "Anchor-2" 651 682 basechar 0
AnchorPoint: "Anchor-0" 679 0 basechar 0
LayerCount: 2
Fore
SplineSet
617 336 m 1,0,1
 617 378 617 378 599 386 c 0,2,3
 527 415 527 415 475 422 c 0,4,5
 440 427 440 427 387 426 c 0,6,7
 376 426 376 426 364 425 c 0,8,9
 314 423 314 423 303 417 c 1,10,11
 334 392 334 392 350 330 c 0,12,13
 355 309 355 309 353 286 c 0,14,15
 353 280 353 280 352 274 c 0,16,17
 347 219 347 219 317 181 c 0,18,19
 306 166 306 166 289 152 c 1,20,21
 274 142 274 142 272 141 c 0,22,23
 236 118 236 118 175 124 c 0,24,25
 161 125 161 125 145 128 c 0,26,27
 98 137 98 137 71 177 c 0,28,29
 46 212 46 212 46 279 c 0,30,31
 46 288 46 288 47 292 c 0,32,33
 61 397 61 397 157 441 c 1,34,35
 210 468 210 468 300 472 c 2,36,-1
 338 474 l 2,37,38
 445 477 445 477 533 459 c 0,39,40
 578 450 578 450 617 435 c 1,41,-1
 615 578 l 1,42,43
 615 620 615 620 645 629 c 1,44,-1
 0 629 l 1,45,46
 14 638 14 638 18 662 c 0,47,48
 21 676 21 676 32 682 c 1,49,-1
 863 682 l 1,50,51
 855 678 855 678 850 656 c 1,52,-1
 844 640 l 1,53,-1
 834 630 l 1,54,-1
 833 629 l 1,55,-1
 732 629 l 2,56,57
 700 629 700 629 698 578 c 1,58,-1
 698 108 l 2,59,60
 698 69 698 69 733 69 c 0,61,62
 765 69 765 69 775 100 c 0,63,64
 777 104 777 104 778 108 c 1,65,66
 779 73 779 73 767 49 c 0,67,68
 760 35 760 35 749 24 c 1,69,-1
 732 10 l 1,70,-1
 709 2 l 2,71,72
 701 0 701 0 690 0 c 0,73,74
 627 0 627 0 617 63 c 1,75,76
 615 85 615 85 615 93 c 1,77,-1
 617 336 l 1,0,1
151 206 m 0,78,79
 180 179 180 179 216 187 c 0,80,81
 227 189 227 189 238 194 c 0,82,83
 297 220 297 220 301 310 c 0,84,85
 303 355 303 355 287 383 c 0,86,87
 278 398 278 398 264 407 c 1,88,89
 232 402 232 402 218 397 c 0,90,91
 178 384 178 384 160 366 c 0,92,93
 126 333 126 333 124 294 c 0,94,95
 122 253 122 253 134 228 c 0,96,97
 141 215 141 215 151 206 c 0,78,79
514 164 m 1,98,99
 517 141 517 141 515 121 c 0,100,101
 513 110 513 110 510 99 c 128,-1,102
 507 88 507 88 496 73 c 0,103,104
 470 39 470 39 441 47 c 0,105,106
 435 49 435 49 428 53 c 0,107,108
 402 71 402 71 403 101 c 0,109,110
 404 114 404 114 413 124 c 1,111,112
 429 138 429 138 452 137 c 0,113,114
 467 136 467 136 482 142 c 0,115,116
 488 144 488 144 494 147 c 0,117,118
 504 154 504 154 514 164 c 1,98,99
EndSplineSet
EndChar

StartChar: LetterPA
Encoding: 2346 2346 43
Width: 595
GlyphClass: 2
Flags: W
AnchorPoint: "Anchor-2" 418 681 basechar 0
AnchorPoint: "Anchor-0" 442 0 basechar 0
LayerCount: 2
Fore
SplineSet
381 253 m 1,0,1
 363 219 363 219 313 186 c 1,2,3
 255 150 255 150 198 151 c 2,4,-1
 191 151 l 1,5,6
 127 163 127 163 85 212 c 0,7,8
 35 271 35 271 51 368 c 0,9,10
 57 408 57 408 74 453 c 0,11,12
 100 527 100 527 165 629 c 1,13,-1
 0 629 l 1,14,15
 14 638 14 638 18 662 c 0,16,17
 21 676 21 676 32 682 c 1,18,-1
 631 682 l 1,19,20
 623 678 623 678 618 656 c 1,21,-1
 612 640 l 1,22,-1
 602 630 l 1,23,-1
 601 629 l 1,24,-1
 497 629 l 2,25,26
 466 629 466 629 464 578 c 1,27,-1
 464 108 l 2,28,29
 464 69 464 69 498 69 c 0,30,31
 522 69 522 69 540 100 c 0,32,33
 542 104 542 104 543 108 c 1,34,35
 544 73 544 73 532 49 c 0,36,37
 525 35 525 35 514 24 c 1,38,-1
 497 10 l 1,39,40
 478 0 478 0 455 0 c 0,41,42
 394 -2 394 -2 383 63 c 1,43,44
 381 85 381 85 381 93 c 2,45,-1
 381 253 l 1,0,1
204 629 m 1,46,47
 154 572 154 572 129 470 c 1,48,49
 101 370 101 370 121 310 c 0,50,51
 130 280 130 280 152 260 c 0,52,53
 171 242 171 242 195 234 c 0,54,55
 259 215 259 215 314 240 c 0,56,57
 343 254 343 254 371 279 c 2,58,-1
 381 289 l 1,59,-1
 381 578 l 2,60,61
 381 620 381 620 410 629 c 1,62,-1
 204 629 l 1,46,47
EndSplineSet
EndChar

StartChar: LetterPHA
Encoding: 2347 2347 44
Width: 877
GlyphClass: 2
Flags: W
AnchorPoint: "Anchor-2" 440 682 basechar 0
AnchorPoint: "Anchor-0" 465 -1 basechar 0
LayerCount: 2
Fore
SplineSet
223 629 m 1,0,1
 101 480 101 480 122 362 c 0,2,3
 124 349 124 349 128 336 c 0,4,5
 147 266 147 266 211 233 c 1,6,7
 232 224 232 224 248 223 c 2,8,-1
 288 222 l 1,9,10
 294 223 294 223 299 224 c 0,11,12
 309 225 309 225 318 230 c 1,13,14
 355 245 355 245 400 287 c 1,15,-1
 400 578 l 2,16,17
 400 620 400 620 430 629 c 1,18,-1
 223 629 l 1,0,1
0 629 m 1,19,20
 14 638 14 638 18 662 c 0,21,22
 21 676 21 676 32 682 c 1,23,-1
 918 682 l 1,24,25
 908 678 908 678 905 656 c 1,26,-1
 899 640 l 1,27,-1
 888 630 l 1,28,-1
 887 629 l 1,29,-1
 517 629 l 2,30,31
 484 629 484 629 483 578 c 1,32,-1
 483 371 l 1,33,-1
 524 419 l 1,34,35
 613 512 613 512 679 514 c 0,36,37
 753 516 753 516 792 476 c 1,38,39
 812 457 812 457 822 427 c 0,40,41
 834 391 834 391 831 358 c 0,42,43
 831 353 831 353 830 349 c 0,44,45
 829 336 829 336 823 308 c 0,46,47
 810 252 810 252 715 142 c 1,48,49
 674 97 674 97 670 98 c 1,50,-1
 696 145 l 1,51,52
 763 257 763 257 758 339 c 0,53,54
 757 343 757 343 757 347 c 0,55,56
 747 444 747 444 659 452 c 1,57,-1
 646 452 l 2,58,59
 594 452 594 452 489 348 c 2,60,-1
 483 342 l 1,61,-1
 483 108 l 2,62,63
 483 69 483 69 518 69 c 0,64,65
 544 69 544 69 560 100 c 0,66,67
 563 106 563 106 563 108 c 0,68,69
 565 85 565 85 559 65 c 0,70,71
 556 56 556 56 552 47 c 0,72,73
 547 37 547 37 534 24 c 1,74,-1
 517 10 l 1,75,76
 500 0 500 0 475 0 c 0,77,78
 435 -1 435 -1 416 27 c 0,79,80
 406 41 406 41 402 63 c 1,81,82
 400 85 400 85 400 93 c 2,83,-1
 400 255 l 1,84,85
 302 146 302 146 209 151 c 0,86,87
 205 152 205 152 202 152 c 0,88,89
 195 152 195 152 191 154 c 1,90,91
 130 163 130 163 89 217 c 1,92,93
 36 290 36 290 52 378 c 0,94,95
 57 404 57 404 67 430 c 0,96,97
 115 558 115 558 184 629 c 1,98,-1
 0 629 l 1,19,20
483 342 m 0,99,-1
EndSplineSet
EndChar

StartChar: LetterBA
Encoding: 2348 2348 45
Width: 635
GlyphClass: 2
Flags: W
AnchorPoint: "Anchor-2" 465 681 basechar 0
AnchorPoint: "Anchor-0" 492 -1 basechar 0
LayerCount: 2
Fore
SplineSet
426 578 m 2,0,1
 426 620 426 620 455 629 c 1,2,-1
 0 629 l 1,3,4
 14 638 14 638 18 662 c 0,5,6
 21 676 21 676 32 682 c 1,7,-1
 669 682 l 1,8,9
 659 677 659 677 656 656 c 1,10,-1
 650 640 l 1,11,-1
 640 630 l 1,12,-1
 639 629 l 1,13,-1
 542 629 l 2,14,15
 510 629 510 629 509 578 c 1,16,-1
 509 108 l 2,17,18
 509 69 509 69 543 69 c 0,19,20
 575 69 575 69 585 100 c 0,21,22
 587 104 587 104 588 108 c 1,23,24
 589 73 589 73 577 49 c 0,25,26
 570 35 570 35 559 24 c 1,27,-1
 542 10 l 1,28,-1
 519 2 l 2,29,30
 511 0 511 0 500 0 c 0,31,32
 437 -2 437 -2 428 63 c 0,33,34
 426 85 426 85 426 93 c 2,35,-1
 426 233 l 1,36,37
 381 152 381 152 270 134 c 1,38,-1
 235 132 l 1,39,-1
 229 132 l 2,40,41
 144 144 144 144 95 190 c 1,42,43
 30 255 30 255 39 345 c 0,44,45
 40 353 40 353 41 362 c 0,46,47
 50 416 50 416 86 455 c 0,48,49
 136 508 136 508 189 524 c 0,50,51
 241 539 241 539 283 534 c 0,52,53
 301 532 301 532 317 526 c 0,54,55
 349 515 349 515 377 489 c 1,56,-1
 402 462 l 2,57,58
 412 452 412 452 426 429 c 1,59,-1
 426 578 l 2,0,1
138 247 m 0,60,61
 156 216 156 216 201 194 c 0,62,63
 237 175 237 175 281 179 c 2,64,-1
 297 181 l 2,65,66
 332 188 332 188 349 204 c 1,67,68
 277 231 277 231 260 309 c 1,69,70
 258 374 258 374 237 403 c 0,71,72
 219 428 219 428 175 446 c 1,73,74
 144 426 144 426 129 395 c 0,75,76
 108 349 108 349 114 310 c 0,77,78
 115 303 115 303 117 295 c 0,79,80
 123 272 123 272 138 247 c 0,60,61
202 472 m 1,81,82
 238 464 238 464 276 414 c 1,83,84
 297 389 297 389 300 311 c 1,85,86
 305 268 305 268 334 246 c 1,87,88
 357 223 357 223 378 225 c 1,89,90
 425 260 425 260 425 290 c 0,91,92
 425 294 425 294 426 296 c 1,93,-1
 426 370 l 2,94,95
 426 403 426 403 374 447 c 0,96,97
 324 490 324 490 266 490 c 0,98,99
 250 490 250 490 234 487 c 0,100,101
 215 482 215 482 202 472 c 1,81,82
EndSplineSet
EndChar

StartChar: LetterBHA
Encoding: 2349 2349 46
Width: 795
GlyphClass: 2
Flags: W
AnchorPoint: "Anchor-2" 632 681 basechar 0
AnchorPoint: "Anchor-0" 650 0 basechar 0
LayerCount: 2
Fore
SplineSet
486 347 m 0,0,1
 439 347 439 347 409 346 c 1,2,3
 412 231 412 231 378 165 c 0,4,5
 362 132 362 132 336 112 c 0,6,7
 292 77 292 77 232 72 c 0,8,9
 169 68 169 68 128 93 c 0,10,11
 107 107 107 107 91 128 c 1,12,13
 56 179 56 179 60 230 c 0,14,15
 61 233 61 233 61 236 c 1,16,-1
 65 254 l 1,17,18
 77 295 77 295 111 325 c 0,19,20
 184 388 184 388 307 388 c 2,21,-1
 348 388 l 1,22,23
 349 433 349 433 333 486 c 0,24,25
 324 515 324 515 310 547 c 0,26,27
 289 599 289 599 264 616 c 1,28,29
 238 636 238 636 205 636 c 0,30,31
 161 636 161 636 140 589 c 0,32,33
 133 571 133 571 140 552 c 1,34,-1
 151 532 l 1,35,36
 161 520 161 520 171 514 c 0,37,38
 194 498 194 498 223 500 c 0,39,40
 226 501 226 501 229 501 c 0,41,42
 241 502 241 502 255 511 c 0,43,44
 271 520 271 520 281 531 c 0,45,46
 299 552 299 552 300 553 c 1,47,-1
 300 545 l 1,48,49
 289 493 289 493 228 473 c 0,50,51
 196 462 196 462 163 465 c 0,52,53
 154 466 154 466 145 468 c 0,54,55
 132 471 132 471 106 484 c 1,56,57
 62 511 62 511 54 549 c 0,58,59
 44 591 44 591 55 623 c 0,60,61
 61 640 61 640 73 655 c 1,62,63
 115 714 115 714 195 710 c 0,64,65
 199 709 199 709 203 709 c 0,66,67
 242 706 242 706 271 690 c 0,68,69
 374 633 374 633 410 399 c 2,70,-1
 412 387 l 1,71,72
 432 382 432 382 490 382 c 0,73,74
 534 382 534 382 549 386 c 0,75,76
 564 389 564 389 572 403 c 0,77,78
 580 415 580 415 580 440 c 2,79,-1
 580 577 l 2,80,81
 580 620 580 620 609 629 c 1,82,-1
 422 629 l 1,83,84
 436 638 436 638 440 662 c 0,85,86
 443 678 443 678 453 682 c 1,87,-1
 833 682 l 1,88,89
 823 678 823 678 820 656 c 1,90,-1
 814 640 l 1,91,-1
 803 630 l 1,92,-1
 802 629 l 1,93,-1
 696 629 l 2,94,95
 665 629 665 629 663 577 c 1,96,-1
 663 106 l 2,97,98
 663 68 663 68 697 68 c 0,99,100
 729 68 729 68 739 99 c 0,101,102
 741 103 741 103 742 106 c 1,103,104
 745 71 745 71 731 45 c 0,105,106
 724 31 724 31 712 20 c 0,107,108
 689 1 689 1 654 0 c 0,109,110
 613 -1 613 -1 595 25 c 0,111,112
 585 40 585 40 582 62 c 0,113,114
 580 82 580 82 580 104 c 2,115,-1
 580 370 l 2,116,117
 580 347 580 347 486 347 c 0,0,1
155 227 m 0,118,119
 155 166 155 166 199 151 c 0,120,121
 221 143 221 143 244 147 c 0,122,123
 257 149 257 149 269 154 c 0,124,125
 299 165 299 165 324 200 c 0,126,127
 351 238 351 238 351 316 c 2,128,-1
 351 343 l 1,129,130
 305 345 305 345 270 338 c 0,131,132
 254 335 254 335 240 329 c 0,133,134
 155 292 155 292 155 227 c 0,118,119
EndSplineSet
EndChar

StartChar: LetterMA
Encoding: 2350 2350 47
Width: 738
GlyphClass: 2
Flags: W
AnchorPoint: "Anchor-2" 562 683 basechar 0
AnchorPoint: "Anchor-0" 599 0 basechar 0
LayerCount: 2
Fore
SplineSet
423 366 m 0,0,1
 401 364 401 364 389 362 c 2,2,-1
 366 359 l 1,3,4
 371 314 371 314 370 286 c 0,5,6
 370 280 370 280 369 275 c 0,7,8
 368 264 368 264 364 239 c 0,9,10
 355 195 355 195 332 165 c 1,11,12
 272 81 272 81 182 88 c 0,13,14
 176 88 176 88 170 89 c 0,15,16
 103 100 103 100 65 164 c 0,17,18
 42 201 42 201 44 243 c 1,19,-1
 44 247 l 1,20,21
 45 249 45 249 45 254 c 0,22,23
 63 383 63 383 298 398 c 1,24,25
 296 448 296 448 263 516 c 1,26,27
 228 593 228 593 190 629 c 1,28,-1
 0 629 l 1,29,30
 14 638 14 638 18 662 c 0,31,32
 21 676 21 676 32 682 c 1,33,-1
 771 682 l 1,34,35
 762 678 762 678 757 656 c 1,36,37
 754 634 754 634 740 629 c 1,38,-1
 640 629 l 2,39,40
 608 629 608 629 606 578 c 1,41,-1
 606 108 l 2,42,43
 606 69 606 69 641 69 c 0,44,45
 671 69 671 69 683 100 c 0,46,47
 685 104 685 104 686 108 c 0,48,49
 683 2 683 2 598 0 c 0,50,51
 532 0 532 0 526 60 c 0,52,53
 523 87 523 87 523 93 c 2,54,-1
 523 381 l 1,55,56
 504 371 504 371 423 366 c 0,0,1
523 578 m 2,57,58
 523 620 523 620 553 629 c 1,59,-1
 257 629 l 1,60,61
 296 582 296 582 339 470 c 1,62,63
 354 424 354 424 358 399 c 1,64,65
 367 404 367 404 432 403 c 0,66,67
 445 402 445 402 461 402 c 0,68,69
 482 401 482 401 494 404 c 0,70,71
 501 406 501 406 505 409 c 0,72,73
 516 415 516 415 522 432 c 1,74,-1
 523 453 l 1,75,-1
 523 578 l 2,57,58
305 354 m 1,76,77
 248 349 248 349 203 329 c 1,78,79
 146 301 146 301 133 260 c 0,80,81
 131 252 131 252 131 248 c 0,82,83
 130 226 130 226 137 210 c 0,84,85
 141 202 141 202 147 194 c 0,86,87
 166 173 166 173 183 167 c 0,88,89
 191 164 191 164 207 165 c 0,90,91
 215 165 215 165 223 166 c 0,92,93
 233 168 233 168 238 170 c 0,94,95
 298 197 298 197 308 285 c 0,96,97
 311 311 311 311 309 332 c 0,98,99
 308 344 308 344 305 354 c 1,76,77
EndSplineSet
EndChar

StartChar: LetterYA
Encoding: 2351 2351 48
Width: 858
GlyphClass: 2
Flags: W
AnchorPoint: "Anchor-2" 690 682 basechar 0
AnchorPoint: "Anchor-0" 714 0 basechar 0
LayerCount: 2
Fore
SplineSet
641 93 m 2,0,-1
 641 243 l 1,1,-1
 607 199 l 1,2,3
 540 108 540 108 457 82 c 0,4,5
 387 59 387 59 321 67 c 0,6,7
 291 70 291 70 262 80 c 0,8,9
 102 132 102 132 65 306 c 1,10,11
 62 312 62 312 62 319 c 0,12,13
 58 373 58 373 68 396 c 0,14,15
 73 407 73 407 80 411 c 0,16,17
 99 422 99 422 121 414 c 0,18,19
 132 410 132 410 144 401 c 1,20,21
 199 366 199 366 252 376 c 0,22,23
 264 378 264 378 276 383 c 0,24,25
 303 392 303 392 319 420 c 1,26,27
 360 480 360 480 327 539 c 0,28,29
 310 569 310 569 274 599 c 0,30,31
 244 623 244 623 231 629 c 1,32,-1
 0 629 l 1,33,34
 14 638 14 638 18 662 c 0,35,36
 21 676 21 676 32 682 c 1,37,-1
 888 682 l 1,38,39
 880 678 880 678 874 656 c 1,40,41
 871 635 871 635 858 629 c 1,42,-1
 757 629 l 2,43,44
 726 629 726 629 724 578 c 1,45,-1
 724 108 l 2,46,47
 724 69 724 69 758 69 c 0,48,49
 790 69 790 69 800 100 c 0,50,51
 802 104 802 104 803 108 c 0,52,53
 800 34 800 34 753 8 c 1,54,55
 734 0 734 0 715 0 c 0,56,57
 659 0 659 0 644 65 c 0,58,59
 641 80 641 80 641 93 c 2,0,-1
641 578 m 2,60,61
 641 620 641 620 670 629 c 1,62,-1
 323 629 l 1,63,64
 407 578 407 578 428 496 c 0,65,66
 435 469 435 469 431 443 c 0,67,68
 430 430 430 430 425 417 c 0,69,70
 419 400 419 400 417 398 c 0,71,72
 383 346 383 346 323 327 c 1,73,74
 287 314 287 314 251 316 c 0,75,76
 248 316 248 316 244 316 c 0,77,78
 221 317 221 317 166 336 c 0,79,80
 161 337 161 337 160 333 c 1,81,-1
 159 324 l 1,82,-1
 161 305 l 1,83,84
 174 221 174 221 236 170 c 1,85,86
 268 142 268 142 302 132 c 1,87,88
 375 105 375 105 449 132 c 0,89,90
 483 144 483 144 519 168 c 0,91,92
 583 211 583 211 617 267 c 0,93,94
 638 303 638 303 641 316 c 1,95,-1
 641 331 l 1,96,-1
 641 578 l 2,60,61
EndSplineSet
EndChar

StartChar: LetterRA
Encoding: 2352 2352 49
Width: 547
GlyphClass: 2
Flags: W
AnchorPoint: "Anchor-2" 254 682 basechar 0
AnchorPoint: "Anchor-0" 342 -3 basechar 0
LayerCount: 2
Fore
SplineSet
257 339 m 0,0,1
 233 334 233 334 207 346 c 0,2,3
 194 353 194 353 180 364 c 0,4,5
 149 390 149 390 128 382 c 0,6,7
 119 378 119 378 112 368 c 0,8,9
 88 337 88 337 114 296 c 0,10,11
 128 274 128 274 155 251 c 1,12,13
 198 210 198 210 211 145 c 0,14,15
 231 54 231 54 282 25 c 1,16,17
 330 -6 330 -6 390 1 c 0,18,19
 401 2 401 2 412 4 c 0,20,21
 474 17 474 17 516 74 c 0,22,23
 520 80 520 80 516 80 c 0,24,25
 504 77 504 77 495 70 c 0,26,27
 481 57 481 57 414 43 c 0,28,29
 370 34 370 34 340 48 c 0,30,31
 324 55 324 55 311 70 c 1,32,33
 282 100 282 100 270 169 c 0,34,35
 252 278 252 278 196 315 c 1,36,37
 214 298 214 298 262 299 c 2,38,-1
 266 299 l 2,39,40
 325 301 325 301 370 335 c 1,41,42
 428 375 428 375 431 443 c 0,43,44
 433 487 433 487 417 520 c 0,45,46
 409 538 409 538 395 553 c 0,47,48
 351 603 351 603 281 629 c 1,49,-1
 562 629 l 1,50,51
 573 638 573 638 579 656 c 1,52,53
 584 678 584 678 593 682 c 1,54,-1
 32 682 l 1,55,56
 22 677 22 677 17 663 c 0,57,58
 9 635 9 635 0 629 c 1,59,-1
 178 629 l 2,60,61
 235 629 235 629 287 585 c 0,62,63
 349 531 349 531 351 463 c 0,64,65
 351 430 351 430 324 386 c 0,66,67
 302 349 302 349 257 339 c 0,0,1
EndSplineSet
EndChar

StartChar: LetterRRA
Encoding: 2353 2353 50
Width: 635
GlyphClass: 2
Flags: W
AnchorPoint: "Anchor-2" 230 682 basechar 0
AnchorPoint: "Anchor-0" 374 -3 basechar 0
LayerCount: 2
Fore
SplineSet
257 339 m 0,0,1
 233 334 233 334 207 346 c 0,2,3
 194 353 194 353 180 364 c 0,4,5
 149 390 149 390 128 382 c 0,6,7
 119 378 119 378 112 368 c 0,8,9
 88 337 88 337 114 296 c 0,10,11
 128 274 128 274 155 251 c 1,12,13
 198 210 198 210 211 145 c 0,14,15
 231 54 231 54 282 25 c 1,16,17
 330 -6 330 -6 390 1 c 0,18,19
 401 2 401 2 412 4 c 0,20,21
 474 17 474 17 516 74 c 0,22,23
 520 80 520 80 516 80 c 0,24,25
 504 77 504 77 495 70 c 0,26,27
 481 57 481 57 414 43 c 0,28,29
 370 34 370 34 340 48 c 0,30,31
 324 55 324 55 311 70 c 1,32,33
 282 100 282 100 270 169 c 0,34,35
 252 278 252 278 196 315 c 1,36,37
 214 298 214 298 262 299 c 2,38,-1
 266 299 l 2,39,40
 325 301 325 301 370 335 c 1,41,42
 428 375 428 375 431 443 c 0,43,44
 433 487 433 487 417 520 c 0,45,46
 409 538 409 538 395 553 c 0,47,48
 351 603 351 603 281 629 c 1,49,-1
 562 629 l 1,50,51
 573 638 573 638 579 656 c 1,52,53
 584 678 584 678 593 682 c 1,54,-1
 32 682 l 1,55,56
 22 677 22 677 17 663 c 0,57,58
 9 635 9 635 0 629 c 1,59,-1
 178 629 l 2,60,61
 235 629 235 629 287 585 c 0,62,63
 349 531 349 531 351 463 c 0,64,65
 351 430 351 430 324 386 c 0,66,67
 302 349 302 349 257 339 c 0,0,1
159 119 m 1,68,69
 162 95 162 95 160 75 c 0,70,71
 159 66 159 66 156 56 c 0,72,73
 150 40 150 40 140 28 c 0,74,75
 115 -6 115 -6 86 2 c 0,76,77
 79 4 79 4 73 8 c 0,78,79
 47 23 47 23 48 56 c 1,80,81
 50 70 50 70 57 79 c 1,82,83
 74 93 74 93 96 92 c 0,84,85
 119 91 119 91 138 102 c 0,86,87
 149 109 149 109 159 119 c 1,68,69
EndSplineSet
EndChar

StartChar: LetterLA
Encoding: 2354 2354 51
Width: 885
GlyphClass: 2
Flags: W
AnchorPoint: "Anchor-2" 720 681 basechar 0
AnchorPoint: "Anchor-0" 735 -2 basechar 0
LayerCount: 2
Fore
SplineSet
439 283 m 0,0,1
 429 251 429 251 414 250 c 1,2,3
 400 254 400 254 381 308 c 0,4,5
 365 352 365 352 335 378 c 1,6,7
 300 403 300 403 264 402 c 0,8,9
 189 400 189 400 150 333 c 0,10,11
 126 290 126 290 129 238 c 0,12,13
 129 233 129 233 130 228 c 0,14,15
 131 215 131 215 137 193 c 0,16,17
 163 112 163 112 219 68 c 1,18,19
 252 39 252 39 299 13 c 0,20,21
 321 1 321 1 317 -2 c 1,22,23
 313 -2 313 -2 291 0 c 0,24,25
 166 14 166 14 99 108 c 0,26,27
 60 163 60 163 52 222 c 0,28,29
 43 290 43 290 66 343 c 0,30,31
 78 370 78 370 98 394 c 0,32,33
 138 441 138 441 216 458 c 0,34,35
 269 470 269 470 312 455 c 0,36,37
 335 447 335 447 355 432 c 0,38,39
 405 394 405 394 417 313 c 1,40,41
 441 428 441 428 563 436 c 2,42,-1
 571 437 l 1,43,44
 635 429 635 429 664 393 c 1,45,-1
 664 578 l 2,46,47
 664 620 664 620 693 629 c 1,48,-1
 0 629 l 1,49,50
 16 641 16 641 19 664 c 0,51,52
 20 676 20 676 32 682 c 1,53,-1
 918 682 l 1,54,55
 910 678 910 678 905 656 c 1,56,57
 903 635 903 635 887 629 c 1,58,-1
 780 629 l 2,59,60
 749 629 749 629 746 578 c 1,61,-1
 746 106 l 2,62,63
 746 68 746 68 781 68 c 0,64,65
 807 68 807 68 823 99 c 0,66,67
 826 105 826 105 826 106 c 0,68,69
 823 -1 823 -1 738 -1 c 1,70,71
 667 1 667 1 664 92 c 1,72,-1
 664 298 l 2,73,74
 664 348 664 348 607 367 c 0,75,76
 581 377 581 377 552 374 c 1,77,-1
 525 369 l 1,78,79
 461 351 461 351 439 283 c 0,0,1
EndSplineSet
EndChar

StartChar: LetterLLA
Encoding: 2355 2355 52
Width: 1063
GlyphClass: 2
Flags: W
AnchorPoint: "Anchor-2" 743 681 basechar 0
AnchorPoint: "Anchor-0" 784 1 basechar 0
LayerCount: 2
Fore
SplineSet
72 266 m 0,0,1
 95 371 95 371 182 406 c 0,2,3
 283 447 283 447 358 420 c 0,4,5
 468 381 468 381 538 274 c 1,6,7
 538 276 538 276 581 345 c 0,8,9
 644 444 644 444 710 458 c 0,10,11
 750 466 750 466 776 520 c 0,12,13
 782 532 782 532 776 557 c 0,14,15
 767 599 767 599 741 617 c 1,16,17
 729 627 729 627 713 629 c 1,18,-1
 0 629 l 1,19,20
 16 639 16 639 19 664 c 0,21,22
 21 678 21 678 32 682 c 1,23,-1
 1105 682 l 1,24,25
 1093 674 1093 674 1091 653 c 0,26,27
 1089 635 1089 635 1075 629 c 1,28,-1
 793 629 l 1,29,30
 845 601 845 601 850 552 c 1,31,-1
 849 529 l 1,32,-1
 847 523 l 2,33,34
 843 512 843 512 840 507 c 1,35,36
 826 492 826 492 831 472 c 1,37,-1
 837 466 l 1,38,-1
 838 465 l 2,39,40
 856 457 856 457 884 443 c 0,41,42
 956 405 956 405 982 348 c 0,43,44
 1031 244 1031 244 986 138 c 0,45,46
 960 76 960 76 903 36 c 0,47,48
 854 1 854 1 758 1 c 0,49,50
 709 1 709 1 640 36 c 0,51,52
 611 51 611 51 574 94 c 0,53,54
 545 128 545 128 518 180 c 1,55,56
 404 0 404 0 247 0 c 1,57,-1
 233 2 l 1,58,59
 215 8 215 8 210 9 c 0,60,61
 131 35 131 35 96 108 c 0,62,63
 56 192 56 192 72 266 c 0,0,1
536 202 m 1,64,65
 624 103 624 103 672 84 c 0,66,67
 730 62 730 62 790 70 c 0,68,69
 811 72 811 72 841 91 c 1,70,71
 898 124 898 124 910 194 c 0,72,73
 917 229 917 229 913 263 c 0,74,75
 912 275 912 275 898 311 c 0,76,77
 888 337 888 337 873 355 c 1,78,79
 830 413 830 413 763 404 c 0,80,81
 755 403 755 403 746 401 c 0,82,83
 642 376 642 376 536 202 c 1,64,65
150 186 m 0,84,85
 162 120 162 120 226 82 c 0,86,87
 262 61 262 61 321 74 c 0,88,89
 349 80 349 80 361 86 c 0,90,91
 422 118 422 118 502 230 c 1,92,93
 443 332 443 332 366 354 c 0,94,95
 242 390 242 390 178 313 c 0,96,97
 136 262 136 262 150 186 c 0,84,85
EndSplineSet
EndChar

StartChar: LetterLLLA
Encoding: 2356 2356 53
Width: 1061
GlyphClass: 2
Flags: W
AnchorPoint: "Anchor-2" 760 682 basechar 0
LayerCount: 2
Fore
SplineSet
72 266 m 0,0,1
 95 371 95 371 182 406 c 0,2,3
 283 447 283 447 358 420 c 0,4,5
 468 381 468 381 538 274 c 1,6,7
 538 276 538 276 581 345 c 0,8,9
 644 444 644 444 710 458 c 0,10,11
 750 466 750 466 776 520 c 0,12,13
 782 532 782 532 776 557 c 0,14,15
 767 599 767 599 741 617 c 1,16,17
 729 627 729 627 713 629 c 1,18,-1
 0 629 l 1,19,20
 16 639 16 639 19 664 c 0,21,22
 21 678 21 678 32 682 c 1,23,-1
 1105 682 l 1,24,25
 1093 674 1093 674 1091 653 c 0,26,27
 1089 635 1089 635 1075 629 c 1,28,-1
 793 629 l 1,29,30
 845 601 845 601 850 552 c 1,31,-1
 849 529 l 1,32,-1
 847 523 l 2,33,34
 843 512 843 512 840 507 c 1,35,36
 826 492 826 492 831 472 c 1,37,-1
 837 466 l 1,38,-1
 838 465 l 2,39,40
 856 457 856 457 884 443 c 0,41,42
 956 405 956 405 982 348 c 0,43,44
 1031 244 1031 244 986 138 c 0,45,46
 960 76 960 76 903 36 c 0,47,48
 854 1 854 1 758 1 c 0,49,50
 709 1 709 1 640 36 c 0,51,52
 611 51 611 51 574 94 c 0,53,54
 545 128 545 128 518 180 c 1,55,56
 404 0 404 0 247 0 c 1,57,-1
 233 2 l 1,58,59
 215 8 215 8 210 9 c 0,60,61
 131 35 131 35 96 108 c 0,62,63
 56 192 56 192 72 266 c 0,0,1
536 202 m 1,64,65
 624 103 624 103 672 84 c 0,66,67
 730 62 730 62 790 70 c 0,68,69
 811 72 811 72 841 91 c 1,70,71
 898 124 898 124 910 194 c 0,72,73
 917 229 917 229 913 263 c 0,74,75
 912 275 912 275 898 311 c 0,76,77
 888 337 888 337 873 355 c 1,78,79
 830 413 830 413 763 404 c 0,80,81
 755 403 755 403 746 401 c 0,82,83
 642 376 642 376 536 202 c 1,64,65
150 186 m 0,84,85
 162 120 162 120 226 82 c 0,86,87
 262 61 262 61 321 74 c 0,88,89
 349 80 349 80 361 86 c 0,90,91
 422 118 422 118 502 230 c 1,92,93
 443 332 443 332 366 354 c 0,94,95
 242 390 242 390 178 313 c 0,96,97
 136 262 136 262 150 186 c 0,84,85
850 -43 m 1,98,99
 821 -71 821 -71 788 -70 c 0,100,101
 773 -69 773 -69 761 -75 c 0,102,103
 755 -78 755 -78 750 -83 c 0,104,105
 737 -96 737 -96 739 -113 c 0,106,107
 739 -116 739 -116 740 -118 c 0,108,109
 741 -125 741 -125 748 -135 c 1,110,111
 763 -163 763 -163 793 -160 c 0,112,113
 796 -160 796 -160 798 -159 c 0,114,115
 815 -155 815 -155 833 -134 c 0,116,117
 851 -112 851 -112 851 -54 c 0,118,119
 851 -47 851 -47 850 -43 c 1,98,99
EndSplineSet
EndChar

StartChar: LetterVA
Encoding: 2357 2357 54
Width: 658
GlyphClass: 2
Flags: W
AnchorPoint: "Anchor-2" 476 681 basechar 0
AnchorPoint: "Anchor-0" 512 -2 basechar 0
LayerCount: 2
Fore
SplineSet
440 273 m 5,0,-1
 440 392 l 5,1,2
 363 494 363 494 271 479 c 4,3,4
 262 478 262 478 253 475 c 4,5,6
 189 459 189 459 152 394 c 5,7,8
 135 367 135 367 133 335 c 4,9,10
 130 281 130 281 155 244 c 4,11,12
 168 224 168 224 188 209 c 4,13,14
 232 174 232 174 287 179 c 6,15,-1
 299 181 l 6,16,17
 320 185 320 185 335 191 c 4,18,19
 394 215 394 215 440 273 c 5,0,-1
440 93 m 6,20,-1
 440 229 l 5,21,22
 345 128 345 128 233 134 c 4,23,24
 228 135 228 135 224 135 c 4,25,26
 134 142 134 142 83 215 c 4,27,28
 46 268 46 268 50 335 c 4,29,30
 57 457 57 457 154 505 c 4,31,32
 202 530 202 530 262 526 c 6,33,-1
 278 524 l 6,34,35
 309 519 309 519 335 510 c 4,36,37
 397 487 397 487 440 433 c 5,38,-1
 440 578 l 6,39,40
 440 620 440 620 470 629 c 5,41,-1
 0 629 l 5,42,43
 14 638 14 638 18 662 c 4,44,45
 21 676 21 676 32 682 c 5,46,-1
 692 682 l 5,47,48
 685 678 685 678 680 656 c 4,49,50
 677 639 677 639 662 629 c 5,51,-1
 557 629 l 6,52,53
 524 629 524 629 523 578 c 5,54,-1
 523 108 l 6,55,56
 523 69 523 69 558 69 c 4,57,58
 582 69 582 69 600 100 c 4,59,60
 602 104 602 104 603 108 c 5,61,62
 604 75 604 75 592 51 c 4,63,64
 585 36 585 36 574 26 c 5,65,66
 552 2 552 2 515 0 c 4,67,68
 475 -1 475 -1 456 27 c 4,69,70
 446 41 446 41 442 63 c 5,71,72
 440 85 440 85 440 93 c 6,20,-1
EndSplineSet
EndChar

StartChar: LetterSHA
Encoding: 2358 2358 55
Width: 817
GlyphClass: 2
Flags: W
AnchorPoint: "Anchor-2" 631 681 basechar 0
AnchorPoint: "Anchor-0" 664 2 basechar 0
LayerCount: 2
Fore
SplineSet
214 409 m 0,0,1
 171 403 171 403 135 414 c 0,2,3
 120 418 120 418 106 426 c 0,4,5
 83 439 83 439 71 458 c 1,6,7
 52 482 52 482 50 510 c 0,8,9
 48 548 48 548 75 577 c 0,10,11
 88 592 88 592 108 604 c 0,12,13
 148 630 148 630 202 630 c 0,14,15
 358 628 358 628 441 529 c 0,16,17
 494 465 494 465 494 395 c 0,18,19
 493 271 493 271 381 200 c 0,20,21
 333 169 333 169 283 160 c 1,22,23
 311 59 311 59 377 56 c 0,24,25
 404 56 404 56 429 74 c 2,26,-1
 466 101 l 1,27,28
 469 102 469 102 468 99 c 2,29,-1
 465 92 l 1,30,31
 460 86 460 86 453 74 c 0,32,33
 406 1 406 1 341 2 c 2,34,-1
 336 2 l 2,35,36
 277 7 277 7 245 79 c 2,37,-1
 219 139 l 1,38,39
 172 132 172 132 138 139 c 0,40,41
 119 143 119 143 103 151 c 0,42,43
 80 163 80 163 67 182 c 1,44,45
 42 212 42 212 46 243 c 0,46,47
 46 246 46 246 47 250 c 0,48,49
 48 259 48 259 53 268 c 0,50,51
 75 314 75 314 134 313 c 0,52,53
 143 312 143 312 160 310 c 1,54,55
 214 299 214 299 256 228 c 0,56,57
 264 215 264 215 269 201 c 1,58,59
 320 204 320 204 357 270 c 1,60,61
 393 328 393 328 392 398 c 0,62,63
 390 468 390 468 337 521 c 1,64,65
 299 562 299 562 244 573 c 1,66,67
 228 578 228 578 213 577 c 0,68,69
 210 577 210 577 208 577 c 2,70,-1
 204 577 l 2,71,72
 145 574 145 574 132 532 c 0,73,74
 124 509 124 509 133 491 c 0,75,76
 137 481 137 481 147 472 c 0,77,78
 168 456 168 456 194 456 c 0,79,80
 252 456 252 456 292 483 c 0,81,82
 297 486 297 486 308 497 c 0,83,84
 317 506 317 506 320 503 c 0,85,86
 322 502 322 502 322 498 c 0,87,88
 321 480 321 480 290 446 c 1,89,90
 254 413 254 413 214 409 c 0,0,1
128 248 m 0,91,92
 120 237 120 237 123 228 c 0,93,94
 124 225 124 225 127 221 c 0,95,96
 131 214 131 214 142 208 c 0,97,98
 168 195 168 195 200 191 c 1,99,100
 192 225 192 225 160 247 c 0,101,102
 147 255 147 255 135 253 c 0,103,104
 130 251 130 251 128 248 c 0,91,92
627 629 m 1,105,106
 598 620 598 620 598 578 c 2,107,-1
 598 93 l 2,108,109
 598 85 598 85 600 63 c 1,110,111
 610 -2 610 -2 672 0 c 0,112,113
 691 0 691 0 710 8 c 1,114,-1
 729 19 l 1,115,116
 762 49 762 49 760 108 c 1,117,-1
 757 100 l 1,118,119
 739 69 739 69 715 69 c 0,120,121
 681 69 681 69 681 108 c 2,122,-1
 681 578 l 1,123,124
 682 629 682 629 714 629 c 2,125,-1
 821 629 l 1,126,127
 834 635 834 635 839 656 c 1,128,129
 842 678 842 678 851 682 c 1,130,-1
 32 682 l 1,131,132
 20 680 20 680 18 665 c 0,133,134
 14 638 14 638 0 629 c 1,135,-1
 627 629 l 1,105,106
EndSplineSet
EndChar

StartChar: LetterSSA
Encoding: 2359 2359 56
Width: 633
GlyphClass: 2
Flags: W
AnchorPoint: "Anchor-2" 444 681 basechar 0
AnchorPoint: "Anchor-0" 479 -1 basechar 0
LayerCount: 2
Fore
SplineSet
413 93 m 2,0,-1
 413 255 l 1,1,2
 383 200 383 200 308 169 c 1,3,4
 240 138 240 138 191 154 c 1,5,6
 138 165 138 165 93 214 c 0,7,8
 32 282 32 282 47 383 c 0,9,10
 51 406 51 406 58 430 c 0,11,12
 87 518 87 518 183 629 c 1,13,-1
 1 629 l 1,14,15
 14 638 14 638 19 662 c 1,16,17
 26 678 26 678 33 682 c 1,18,-1
 666 682 l 1,19,20
 656 678 656 678 653 656 c 1,21,-1
 647 640 l 1,22,-1
 637 630 l 1,23,-1
 636 629 l 1,24,-1
 529 629 l 2,25,26
 498 629 498 629 496 578 c 1,27,-1
 496 108 l 2,28,29
 496 69 496 69 530 69 c 0,30,31
 556 69 556 69 572 100 c 0,32,33
 574 104 574 104 575 108 c 0,34,35
 570 21 570 21 514 4 c 0,36,37
 503 0 503 0 487 0 c 0,38,39
 413 0 413 0 413 93 c 2,0,-1
413 578 m 2,40,41
 413 620 413 620 442 629 c 1,42,-1
 224 629 l 1,43,-1
 264 562 l 1,44,45
 301 495 301 495 309 444 c 0,46,47
 320 377 320 377 408 295 c 2,48,-1
 413 290 l 1,49,-1
 413 578 l 2,40,41
188 581 m 1,50,51
 104 434 104 434 127 337 c 0,52,53
 132 315 132 315 143 295 c 0,54,55
 181 229 181 229 255 220 c 0,56,57
 296 216 296 216 330 229 c 0,58,59
 343 235 343 235 360 250 c 1,60,-1
 330 293 l 1,61,62
 273 367 273 367 266 412 c 0,63,64
 250 501 250 501 188 581 c 1,50,51
EndSplineSet
EndChar

StartChar: LetterSA
Encoding: 2360 2360 57
Width: 864
GlyphClass: 2
Flags: W
AnchorPoint: "Anchor-2" 683 681 basechar 0
AnchorPoint: "Anchor-0" 718 -1 basechar 0
LayerCount: 2
Fore
SplineSet
154 224 m 0,0,1
 145 253 145 253 99 290 c 0,2,3
 69 315 69 315 76 353 c 0,4,5
 85 403 85 403 121 408 c 0,6,7
 160 413 160 413 178 393 c 0,8,9
 193 377 193 377 222 374 c 2,10,-1
 259 372 l 1,11,12
 298 373 298 373 319 385 c 0,13,14
 357 406 357 406 358 446 c 0,15,16
 360 522 360 522 308 568 c 0,17,18
 277 597 277 597 247 613 c 2,19,-1
 220 628 l 1,20,-1
 0 629 l 1,21,22
 13 637 13 637 18 662 c 0,23,24
 21 676 21 676 32 682 c 1,25,-1
 900 682 l 1,26,27
 892 679 892 679 887 656 c 0,28,29
 883 637 883 637 869 629 c 1,30,-1
 769 629 l 2,31,32
 736 629 736 629 735 578 c 1,33,-1
 735 108 l 2,34,35
 735 69 735 69 770 69 c 0,36,37
 796 69 796 69 812 100 c 0,38,39
 815 105 815 105 815 108 c 0,40,41
 803 1 803 1 727 0 c 0,42,43
 687 -1 687 -1 668 27 c 0,44,45
 658 41 658 41 654 63 c 1,46,47
 652 85 652 85 652 93 c 2,48,-1
 652 306 l 1,49,50
 579 260 579 260 496 268 c 0,51,52
 485 269 485 269 474 271 c 0,53,54
 447 275 447 275 398 296 c 2,55,-1
 346 318 l 1,56,-1
 335 318 l 1,57,-1
 290 314 l 2,58,59
 257 311 257 311 244 312 c 2,60,-1
 216 316 l 1,61,62
 224 300 224 300 228 263 c 1,63,-1
 235 222 l 1,64,65
 245 155 245 155 282 102 c 1,66,67
 329 38 329 38 411 51 c 0,68,69
 417 52 417 52 424 53 c 0,70,71
 441 53 441 53 469 70 c 1,72,73
 483 77 483 77 489 83 c 1,74,75
 513 99 513 99 515 97 c 1,76,-1
 509 87 l 1,77,-1
 504 82 l 2,78,79
 421 -1 421 -1 346 -1 c 0,80,81
 255 -1 255 -1 205 94 c 0,82,83
 177 150 177 150 154 224 c 0,0,1
422 378 m 0,84,85
 401 346 401 346 386 340 c 1,86,-1
 432 325 l 1,87,88
 489 311 489 311 538 321 c 0,89,90
 562 326 562 326 582 339 c 0,91,92
 610 356 610 356 632 390 c 0,93,94
 644 408 644 408 652 432 c 1,95,-1
 652 578 l 2,96,97
 652 620 652 620 682 629 c 1,98,-1
 295 629 l 1,99,-1
 343 601 l 1,100,101
 396 562 396 562 426 508 c 0,102,103
 461 441 461 441 422 378 c 0,84,85
EndSplineSet
EndChar

StartChar: LetterHA
Encoding: 2361 2361 58
Width: 572
GlyphClass: 2
Flags: W
AnchorPoint: "Anchor-2" 373 679 basechar 0
AnchorPoint: "Anchor-0" 304 -39 basechar 0
LayerCount: 2
Fore
SplineSet
437 188 m 1,0,1
 457 221 457 221 454 254 c 0,2,3
 454 258 454 258 453 261 c 0,4,5
 452 271 452 271 446 282 c 1,6,7
 435 313 435 313 398 332 c 1,8,9
 385 337 385 337 375 340 c 0,10,11
 331 351 331 351 283 341 c 0,12,13
 258 335 258 335 232 324 c 0,14,15
 159 293 159 293 138 229 c 1,16,-1
 135 222 l 1,17,-1
 135 221 l 1,18,19
 116 149 116 149 138 95 c 0,20,21
 149 69 149 69 171 48 c 0,22,23
 237 -17 237 -17 378 -2 c 0,24,25
 405 1 405 1 435 7 c 0,26,27
 456 11 456 11 465 9 c 0,28,29
 468 9 468 9 470 8 c 0,30,31
 475 6 475 6 468 2 c 0,32,33
 464 0 464 0 455 -3 c 2,34,-1
 424 -14 l 2,35,36
 312 -50 312 -50 228 -29 c 0,37,38
 186 -18 186 -18 150 7 c 1,39,40
 96 47 96 47 62 112 c 0,41,42
 41 154 41 154 45 202 c 0,43,44
 45 209 45 209 46 215 c 0,45,46
 49 236 49 236 57 258 c 0,47,48
 86 330 86 330 151 346 c 1,49,50
 118 352 118 352 98 399 c 1,51,52
 84 438 84 438 93 471 c 0,53,54
 98 488 98 488 109 504 c 0,55,56
 148 558 148 558 242 550 c 2,57,-1
 260 548 l 1,58,59
 296 540 296 540 315 535 c 2,60,-1
 325 531 l 1,61,-1
 326 531 l 2,62,63
 389 512 389 512 415 525 c 0,64,65
 428 532 428 532 431 547 c 0,66,67
 434 560 434 560 430 572 c 0,68,69
 428 578 428 578 424 586 c 0,70,71
 419 596 419 596 407 608 c 0,72,73
 388 627 388 627 366 629 c 1,74,-1
 0 629 l 1,75,76
 14 638 14 638 18 662 c 0,77,78
 21 676 21 676 32 682 c 1,79,-1
 608 682 l 1,80,81
 601 678 601 678 596 656 c 1,82,83
 594 636 594 636 578 629 c 1,84,-1
 446 629 l 1,85,86
 488 612 488 612 504 568 c 0,87,88
 512 546 512 546 507 526 c 0,89,90
 506 518 506 518 498 508 c 1,91,92
 484 483 484 483 441 476 c 1,93,-1
 412 475 l 1,94,-1
 402 477 l 2,95,96
 295 500 295 500 243 493 c 1,97,-1
 218 487 l 2,98,99
 214 485 214 485 196 474 c 1,100,101
 172 457 172 457 176 434 c 0,102,103
 176 432 176 432 177 429 c 0,104,105
 178 421 178 421 186 410 c 0,106,107
 210 380 210 380 240 380 c 0,108,109
 246 380 246 380 249 381 c 0,110,111
 324 398 324 398 380 393 c 0,112,113
 394 392 394 392 407 389 c 0,114,115
 440 381 440 381 464 366 c 0,116,117
 481 355 481 355 493 338 c 1,118,119
 512 307 512 307 505 270 c 0,120,121
 502 250 502 250 492 229 c 0,122,123
 474 192 474 192 446 161 c 1,124,125
 442 155 442 155 439 151 c 0,126,127
 394 97 394 97 394 107 c 0,128,129
 394 109 394 109 396 114 c 1,130,-1
 437 188 l 1,0,1
EndSplineSet
EndChar

StartChar: SignNukta
Encoding: 2364 2364 59
Width: 0
GlyphClass: 4
Flags: W
LayerCount: 2
Fore
SplineSet
-76 -43 m 5,0,1
 -104 -71 -104 -71 -136 -70 c 4,2,3
 -155 -69 -155 -69 -167 -76 c 4,4,5
 -172 -79 -172 -79 -176 -83 c 4,6,7
 -189 -97 -189 -97 -185 -117 c 4,8,9
 -183 -126 -183 -126 -178 -135 c 4,10,11
 -162 -164 -162 -164 -134 -160 c 4,12,13
 -131 -160 -131 -160 -128 -159 c 4,14,15
 -108 -154 -108 -154 -93 -134 c 4,16,17
 -70 -106 -70 -106 -73 -62 c 4,18,19
 -73 -58 -73 -58 -74 -54 c 5,20,-1
 -76 -43 l 5,0,1
EndSplineSet
EndChar

StartChar: SignAvagraha
Encoding: 2365 2365 60
Width: 701
GlyphClass: 2
Flags: W
LayerCount: 2
Fore
SplineSet
513 195 m 0,0,1
 522 148 522 148 504 106 c 0,2,3
 495 83 495 83 478 62 c 0,4,5
 423 -6 423 -6 324 -1 c 0,6,7
 319 0 319 0 314 0 c 0,8,9
 168 14 168 14 88 115 c 1,10,11
 53 156 53 156 50 194 c 1,12,-1
 51 216 l 1,13,14
 52 218 52 218 54 218 c 0,15,16
 57 216 57 216 63 209 c 0,17,18
 89 176 89 176 116 154 c 0,19,20
 196 92 196 92 265 82 c 0,21,22
 336 71 336 71 373 94 c 0,23,24
 392 106 392 106 403 127 c 0,25,26
 420 156 420 156 420 193 c 0,27,28
 418 274 418 274 318 349 c 2,29,-1
 198 438 l 1,30,31
 130 493 130 493 130 544 c 0,32,33
 130 636 130 636 234 666 c 0,34,35
 324 692 324 692 428 689 c 2,36,-1
 442 689 l 1,37,-1
 472 687 l 2,38,39
 580 678 580 678 628 642 c 0,40,41
 643 631 643 631 640 627 c 0,42,43
 638 625 638 625 632 624 c 1,44,-1
 605 628 l 1,45,46
 602 630 602 630 582 636 c 1,47,48
 460 658 460 658 378 648 c 0,49,50
 332 643 332 643 301 629 c 0,51,52
 233 601 233 601 226 555 c 1,53,-1
 226 548 l 1,54,55
 225 518 225 518 237 493 c 0,56,57
 244 478 244 478 256 464 c 1,58,59
 272 442 272 442 297 424 c 2,60,-1
 414 342 l 1,61,62
 495 279 495 279 513 195 c 0,0,1
EndSplineSet
EndChar

StartChar: SignAA
Encoding: 2366 2366 61
Width: 277
GlyphClass: 4
Flags: W
LayerCount: 2
Fore
SplineSet
65 578 m 5,0,-1
 65 93 l 6,1,2
 65 2 65 2 139 0 c 5,3,4
 203 2 203 2 221 63 c 4,5,6
 227 86 227 86 227 108 c 5,7,8
 210 76 210 76 198 72 c 5,9,-1
 182 69 l 5,10,11
 147 69 147 69 147 108 c 6,12,-1
 147 578 l 5,13,-1
 151 603 l 5,14,15
 160 629 160 629 181 629 c 6,16,-1
 283 629 l 5,17,18
 302 640 302 640 303 663 c 4,19,20
 305 677 305 677 313 682 c 5,21,-1
 32 682 l 5,22,23
 21 677 21 677 17 656 c 5,24,-1
 11 640 l 5,25,26
 5 632 5 632 0 629 c 5,27,-1
 94 629 l 5,28,29
 68 623 68 623 65 578 c 5,0,-1
EndSplineSet
EndChar

StartChar: SignI
Encoding: 2367 2367 62
Width: 247
GlyphClass: 4
Flags: W
LayerCount: 2
Fore
SplineSet
46 578 m 2,0,1
 46 620 46 620 76 629 c 1,2,-1
 0 629 l 1,3,4
 14 638 14 638 18 662 c 0,5,6
 21 676 21 676 32 682 c 1,7,-1
 290 682 l 1,8,9
 281 678 281 678 276 656 c 1,10,-1
 270 640 l 1,11,-1
 260 630 l 1,12,-1
 259 629 l 1,13,-1
 163 629 l 2,14,15
 130 629 130 629 129 578 c 1,16,-1
 129 108 l 2,17,18
 129 69 129 69 164 69 c 0,19,20
 188 69 188 69 206 100 c 0,21,22
 208 104 208 104 209 108 c 1,23,24
 210 73 210 73 198 49 c 0,25,26
 191 35 191 35 180 24 c 2,27,-1
 165 9 l 1,28,29
 145 -1 145 -1 121 0 c 1,30,31
 80 -1 80 -1 61 27 c 0,32,33
 52 41 52 41 48 63 c 1,34,35
 46 85 46 85 46 93 c 2,36,-1
 46 578 l 2,0,1
70 678 m 1,37,38
 14 707 14 707 2 772 c 0,39,40
 -7 820 -7 820 12 857 c 0,41,42
 22 876 22 876 40 892 c 0,43,44
 84 931 84 931 164 933 c 0,45,46
 245 935 245 935 386 878 c 0,47,48
 457 849 457 849 543 806 c 2,49,-1
 746 702 l 1,50,51
 788 684 788 684 812 678 c 1,52,-1
 715 678 l 1,53,54
 634 698 634 698 457 772 c 0,55,56
 310 835 310 835 237 841 c 0,57,58
 213 843 213 843 202 842 c 0,59,60
 100 838 100 838 91 782 c 0,61,62
 87 754 87 754 105 728 c 0,63,64
 113 715 113 715 128 701 c 128,-1,65
 143 687 143 687 167 678 c 1,66,-1
 70 678 l 1,37,38
EndSplineSet
Substitution2: "Simple Substitutions in Devanagari lookup 0-1" SignWidthOneI
EndChar

StartChar: SignII
Encoding: 2368 2368 63
Width: 372
GlyphClass: 4
Flags: W
LayerCount: 2
Fore
SplineSet
56 682 m 1,0,1
 37 673 37 673 31 657 c 1,2,3
 21.615 641.369 21.615 641.369 11 635 c 0,4,5
 6 632 6 632 0 628 c 1,6,-1
 126 628 l 2,7,8
 156 628 156 628 164 598 c 1,9,-1
 164 67 l 1,10,-1
 173 39 l 1,11,12
 192 -1 192 -1 233 -1 c 0,13,14
 292.556 -0.999971 292.556 -0.999971 313 45 c 0,15,16
 321 63 321 63 333 97 c 1,17,18
 305 63 305 63 281 65 c 1,19,20
 253 71 253 71 247 99 c 1,21,-1
 247 598 l 2,22,23
 247 618.4 247 618.4 254 624 c 0,24,25
 259 628 259 628 275 628 c 2,26,-1
 399 628 l 1,27,28
 405 631 405 631 424 650 c 2,29,-1
 425 651 l 2,30,31
 426.333 652.333 426.333 652.333 429 659 c 0,32,33
 439.415 678.883 439.415 678.883 450 681 c 2,34,-1
 455 682 l 1,35,-1
 272 682 l 1,36,-1
 234 682 l 2,37,38
 211 682 211 682 174 737 c 0,39,40
 118 822 118 822 104 837 c 1,41,42
 26 931 26 931 -77 929 c 0,43,44
 -198 926 -198 926 -236 848 c 1,45,46
 -256 810 -256 810 -247 771 c 0,47,48
 -242 750 -242 750 -230 730 c 1,49,50
 -214 698 -214 698 -182 682 c 1,51,-1
 -85 682 l 1,52,53
 -132.942 700.76 -132.942 700.76 -156 752 c 0,54,55
 -174 792 -174 792 -161 821 c 0,56,57
 -154 836 -154 836 -139 848 c 0,58,59
 -124 861 -124 861 -97 868 c 0,60,61
 -35 885 -35 885 19 847 c 0,62,63
 47 827 47 827 72 793 c 1,64,-1
 132 700 l 1,65,66
 148 681 148 681 164 682 c 1,67,-1
 56 682 l 1,0,1
EndSplineSet
Substitution2: "Single Substitution in Devanagari lookup 1 for SignII-1" SignWidthOneII
Substitution2: "Simple Substitutions in Devanagari lookup 0-1" SignWidthThreeII
EndChar

StartChar: SignU
Encoding: 2369 2369 64
Width: 0
GlyphClass: 4
Flags: W
AnchorPoint: "Anchor-1" -138 0 mark 0
AnchorPoint: "Anchor-0" -138 0 mark 0
LayerCount: 2
Fore
SplineSet
-291 -153 m 16,0,1
 -329 -135 -329 -135 -348 -124 c 0,2,3
 -425 -78 -425 -78 -448 -71 c 1,4,5
 -475 -57 -475 -57 -511 -54 c 0,6,7
 -537 -52 -537 -52 -558 -55 c 0,8,9
 -569 -57 -569 -57 -579 -60 c 1,10,-1
 -606 -74 l 1,11,-1
 -608 -75 l 1,12,-1
 -610 -76 l 2,13,-1
 -612 -77 l 2,14,-1
 -620 -82 l 1,15,16
 -526.426 -83.0752 -526.426 -83.0752 -474 -112 c 0,17,18
 -445 -128 -445 -128 -378 -168 c 0,19,20
 -375.201 -169.912 -375.201 -169.912 -286 -213 c 0,21,22
 -214 -250 -214 -250 -142 -255 c 0,23,24
 -52.6201 -259.28 -52.6201 -259.28 -19 -192 c 0,25,26
 2.11035 -148.668 2.11035 -148.668 -15 -87 c 24,27,28
 -25.8242 -47.9883 -25.8242 -47.9883 -67 -19 c 16,29,30
 -95.4092 1 -95.4092 1 -140 1 c 0,31,32
 -186 1 -186 1 -218 -34 c 1,33,34
 -242 -57 -242 -57 -238 -78 c 1,35,-1
 -236 -84 l 2,36,37
 -233 -93 -233 -93 -222 -104 c 0,38,39
 -210.657 -116.216 -210.657 -116.216 -181 -127 c 0,40,41
 -170 -131 -170 -131 -160 -130 c 0,42,43
 -153 -129 -153 -129 -146 -126 c 0,44,45
 -130 -121 -130 -121 -119 -106 c 1,46,47
 -155.846 -106 -155.846 -106 -158 -78 c 0,48,49
 -159 -65 -159 -65 -156 -58 c 0,50,51
 -154 -54 -154 -54 -151 -51 c 0,52,53
 -140 -43 -140 -43 -139 -42 c 0,54,55
 -132 -38 -132 -38 -122 -39 c 0,56,57
 -72.3525 -46.2256 -72.3525 -46.2256 -76 -121 c 0,58,59
 -78.1113 -160.054 -78.1113 -160.054 -106 -178 c 0,60,61
 -143.523 -202.145 -143.523 -202.145 -181 -193 c 0,62,63
 -233.709 -180.138 -233.709 -180.138 -291 -153 c 16,0,1
EndSplineSet
EndChar

StartChar: SignUU
Encoding: 2370 2370 65
Width: 0
GlyphClass: 4
Flags: W
AnchorPoint: "Anchor-1" -98 -1 mark 0
AnchorPoint: "Anchor-0" -98 -1 mark 0
LayerCount: 2
Fore
SplineSet
-57 -198 m 0,0,1
 -24.7715 -173.718 -24.7715 -173.718 -32 -143 c 0,2,3
 -34.0263 -134.904 -34.0263 -134.904 -41 -127 c 2,4,-1
 -56 -110 l 1,5,-1
 -79 -97 l 2,6,7
 -87.8462 -92 -87.8462 -92 -104 -92 c 0,8,9
 -107 -92 -107 -92 -110 -93 c 0,10,11
 -125 -96 -125 -96 -139 -107 c 1,12,13
 -106 -111 -106 -111 -106 -142 c 0,14,15
 -106 -153 -106 -153 -112 -163 c 0,16,17
 -115 -167 -115 -167 -121 -173 c 1,18,-1
 -134 -177 l 2,19,20
 -139.357 -178.648 -139.357 -178.648 -147 -176 c 0,21,22
 -177 -162.225 -177 -162.225 -177 -132 c 0,23,-1
 -177 -122 l 0,24,25
 -168.86 -77.3271 -168.86 -77.3271 -128 -58 c 0,26,27
 -108 -48 -108 -48 -84 -49 c 1,28,29
 -16.8101 -58 -16.8101 -58 101 -157 c 1,30,31
 100.184 -160.759 100.184 -160.759 183 -219 c 0,32,33
 206.979 -235.864 206.979 -235.864 254 -247 c 0,34,35
 296.945 -257.171 296.945 -257.171 323 -251 c 0,36,37
 346.098 -245.529 346.098 -245.529 352 -242 c 0,38,39
 362.773 -235.558 362.773 -235.558 364 -238 c 1,40,41
 257.341 -232.123 257.341 -232.123 190.5 -177.5 c 0,42,43
 92.3184 -97.2656 92.3184 -97.2656 55.5 -65 c 0,44,45
 -25.4534 5.94297 -25.4534 5.94297 -110 0 c 0,46,47
 -139.121 -2.04696 -139.121 -2.04696 -168 -13 c 0,48,49
 -231.427 -37.9479 -231.427 -37.9479 -241 -101 c 0,50,51
 -248.634 -148.66 -248.634 -148.66 -222 -181 c 0,52,53
 -188.841 -223.52 -188.841 -223.52 -141 -226.5 c 0,54,55
 -97.8673 -229.13 -97.8673 -229.13 -57 -198 c 0,0,1
EndSplineSet
EndChar

StartChar: SignVocalicR
Encoding: 2371 2371 66
Width: 0
GlyphClass: 4
Flags: W
AnchorPoint: "Anchor-1" -169 -1 mark 0
AnchorPoint: "Anchor-0" -169 -1 mark 0
LayerCount: 2
Fore
SplineSet
-169 -226 m 16,0,1
 -266.715 -215.384 -266.715 -215.384 -267 -132 c 0,2,3
 -267.144 -77.7285 -267.144 -77.7285 -219 -48 c 0,4,5
 -197 -34 -197 -34 -173 -29 c 0,6,7
 -127 -19 -127 -19 -74 -42 c 1,8,-1
 -53 -47 l 1,9,10
 -39 -47 -39 -47 -50 -32 c 0,11,12
 -66 -10 -66 -10 -87 -7 c 2,13,-1
 -115 -3 l 1,14,-1
 -139 -1 l 2,15,16
 -184 2.75 -184 2.75 -235 -10 c 0,17,18
 -247 -13 -247 -13 -269 -23 c 1,19,20
 -289 -34 -289 -34 -302 -48 c 0,21,22
 -332.173 -80.4941 -332.173 -80.4941 -324 -137 c 0,23,24
 -315.121 -198.389 -315.121 -198.389 -259 -229 c 0,25,26
 -237 -241 -237 -241 -217 -247 c 0,27,28
 -202 -252 -202 -252 -186 -254 c 0,29,30
 -110.389 -263.451 -110.389 -263.451 -39 -224 c 1,31,32
 0 -197 0 -197 1 -188 c 0,33,34
 1 -186.08 1 -186.08 -1 -187 c 2,35,-1
 -51 -210 l 1,36,37
 -108.146 -232.611 -108.146 -232.611 -169 -226 c 16,0,1
EndSplineSet
EndChar

StartChar: SignVocalicRR
Encoding: 2372 2372 67
Width: 0
GlyphClass: 4
Flags: W
AnchorPoint: "Anchor-1" -159 2 mark 0
AnchorPoint: "Anchor-0" -159 2 mark 0
LayerCount: 2
Fore
SplineSet
-147 -124 m 0,0,1
 -126 -133 -126 -133 -81 -125 c 0,2,3
 -56 -120 -56 -120 -24 -110 c 0,4,5
 -6 -104 -6 -104 -13 -110 c 0,6,7
 -18 -114 -18 -114 -32 -120 c 2,8,-1
 -38 -123 l 2,9,10
 -101 -154 -101 -154 -153 -148 c 0,11,12
 -161 -147 -161 -147 -168 -145 c 0,13,14
 -169 -144 -169 -144 -175 -142 c 1,15,16
 -207 -161 -207 -161 -212 -184 c 128,-1,17
 -217 -207 -217 -207 -198 -224 c 0,18,19
 -189 -232 -189 -232 -174 -240 c 0,20,21
 -151 -251 -151 -251 -106 -241 c 0,22,23
 -84 -235 -84 -235 -56 -225 c 0,24,25
 -54 -224 -54 -224 -52 -224 c 0,26,27
 -40 -220 -40 -220 -42 -223 c 1,28,-1
 -49 -229 l 2,29,30
 -58 -237 -58 -237 -67 -239 c 1,31,32
 -134 -266 -134 -266 -166 -266 c 0,33,34
 -190 -266 -190 -266 -213 -257 c 0,35,36
 -257 -241 -257 -241 -259 -195 c 0,37,38
 -260 -165 -260 -165 -242 -142 c 0,39,40
 -232 -129 -232 -129 -216 -119 c 1,41,42
 -255 -81 -255 -81 -243 -49 c 0,43,44
 -239 -38 -239 -38 -229 -27 c 1,45,46
 -216 -7 -216 -7 -193 -3 c 0,47,48
 -156 6 -156 6 -114 -4 c 0,49,50
 -91 -9 -91 -9 -67 -20 c 0,51,52
 -61 -22 -61 -22 -55 -25 c 0,53,54
 -30 -39 -30 -39 -31 -40 c 1,55,-1
 -42 -39 l 1,56,57
 -114 -15 -114 -15 -138 -14 c 1,58,-1
 -161 -15 l 2,59,60
 -166 -16 -166 -16 -170 -19 c 1,61,62
 -214 -35 -214 -35 -205 -68 c 0,63,64
 -203 -74 -203 -74 -200 -80 c 0,65,66
 -181 -109 -181 -109 -147 -124 c 0,0,1
EndSplineSet
EndChar

StartChar: SignCandraE
Encoding: 2373 2373 68
Width: 0
GlyphClass: 4
Flags: W
AnchorPoint: "Anchor-3" -197 672 mark 0
AnchorPoint: "Anchor-2" -197 672 mark 0
LayerCount: 2
Fore
SplineSet
-380 887 m 1,0,1
 -391 926 -391 926 -389 947 c 0,2,3
 -389 950 -389 950 -388 953 c 0,4,5
 -387 958 -387 958 -384 953 c 0,6,7
 -381 949 -381 949 -378 941 c 0,8,9
 -376 936 -376 936 -369 920 c 0,10,11
 -321 806 -321 806 -217 797 c 0,12,13
 -158 792 -158 792 -103 821 c 0,14,15
 -74 836 -74 836 -47 860 c 0,16,17
 -17 888 -17 888 -1 913 c 1,18,-1
 17 947 l 1,19,-1
 17 945 l 1,20,21
 16 914 16 914 3 887 c 1,22,23
 -44 774 -44 774 -135 740 c 0,24,25
 -193 718 -193 718 -244 734 c 0,26,27
 -272 742 -272 742 -297 761 c 0,28,29
 -352 801 -352 801 -380 887 c 1,0,1
EndSplineSet
EndChar

StartChar: SignShortE
Encoding: 2374 2374 69
Width: 0
GlyphClass: 4
Flags: W
AnchorPoint: "Anchor-3" -69 673 mark 0
AnchorPoint: "Anchor-2" -69 673 mark 0
LayerCount: 2
Fore
SplineSet
-387 848 m 0,0,1
 -349 802 -349 802 -276 802 c 0,2,3
 -243 802 -243 802 -148 818 c 0,4,5
 -76 829 -76 829 -46 777 c 0,6,7
 -31 749 -31 749 -27 702 c 1,8,-1
 -25 673 l 1,9,-1
 -103 673 l 1,10,-1
 -105 718 l 1,11,12
 -115 766 -115 766 -155 762 c 0,13,14
 -255 751 -255 751 -319 765 c 0,15,16
 -352 773 -352 773 -375 787 c 0,17,18
 -403 805 -403 805 -414 823 c 0,19,20
 -433 852 -433 852 -427 891 c 0,21,22
 -425 905 -425 905 -420 921 c 0,23,24
 -420 923 -420 923 -416 930 c 0,25,26
 -402 953 -402 953 -397 956 c 0,27,28
 -395 956 -395 956 -395 945 c 1,29,-1
 -396 934 l 1,30,-1
 -398 886 l 1,31,32
 -396 860 -396 860 -387 848 c 0,0,1
EndSplineSet
EndChar

StartChar: SignE
Encoding: 2375 2375 70
Width: 0
GlyphClass: 4
Flags: W
AnchorPoint: "Anchor-3" -95 678 mark 0
AnchorPoint: "Anchor-2" -95 678 mark 0
LayerCount: 2
Fore
SplineSet
-142 681 m 1,0,1
 -162.455 698.045 -162.455 698.045 -227 811 c 0,2,3
 -235 825 -235 825 -240 838 c 0,4,5
 -283 937 -283 937 -345 926 c 0,6,7
 -351 925 -351 925 -356 923 c 2,8,-1
 -376 915 l 2,9,10
 -383.857 911.857 -383.857 911.857 -387 915 c 0,11,12
 -388 916 -388 916 -383 921 c 0,13,14
 -363.155 940.211 -363.155 940.211 -300 956 c 0,15,16
 -276 962 -276 962 -267 961 c 0,17,18
 -207 955 -207 955 -163 855 c 0,19,20
 -162.437 853.703 -162.437 853.703 -163 853 c 2,21,-1
 -161 849 l 2,22,23
 -86.9588 700.918 -86.9588 700.918 -35 681 c 1,24,-1
 -142 681 l 1,0,1
EndSplineSet
EndChar

StartChar: SignAI
Encoding: 2376 2376 71
Width: 0
GlyphClass: 4
Flags: W
AnchorPoint: "Anchor-3" -115 683 mark 0
AnchorPoint: "Anchor-2" -115 683 mark 0
LayerCount: 2
Fore
SplineSet
-187 680 m 1,0,-1
 -37 680 l 1,1,2
 -47.4361 780.187 -47.4361 780.187 -105 901 c 0,3,4
 -142.453 979.606 -142.453 979.606 -191 985 c 18,5,-1
 -200 986 l 2,6,7
 -225.876 988.875 -225.876 988.875 -263 972 c 0,8,9
 -279 965 -279 965 -297 954 c 0,10,11
 -316.162 943.162 -316.162 943.162 -313 940 c 0,12,13
 -311.66 938.66 -311.66 938.66 -303 941 c 2,14,-1
 -266 951 l 1,15,16
 -221 958 -221 958 -189 917 c 1,17,-1
 -171 888 l 1,18,19
 -165 877 -165 877 -159 863 c 0,20,21
 -156 857 -156 857 -132 780 c 1,22,-1
 -124 757 l 1,23,24
 -162 780 -162 780 -219 819 c 1,25,-1
 -248 836 l 1,26,27
 -334.494 893.585 -334.494 893.585 -397 896 c 0,28,29
 -422 897 -422 897 -452 883 c 0,30,31
 -468 875 -468 875 -485 864 c 0,32,33
 -505 850 -505 850 -499 847 c 1,34,35
 -495 847 -495 847 -491 848 c 0,36,37
 -436.084 866.672 -436.084 866.672 -395 850 c 0,38,39
 -325 823 -325 823 -283 785 c 0,40,41
 -249.387 753.538 -249.387 753.538 -187 680 c 1,0,-1
EndSplineSet
EndChar

StartChar: SignCandraO
Encoding: 2377 2377 72
Width: 277
GlyphClass: 4
Flags: W
LayerCount: 2
Fore
SplineSet
-62 961 m 0,0,1
 -73 1000 -73 1000 -71 1021 c 0,2,3
 -71 1024 -71 1024 -70 1027 c 0,4,5
 -69 1032 -69 1032 -66 1027 c 0,6,7
 -63 1023 -63 1023 -60 1015 c 2,8,-1
 -52 994 l 1,9,10
 -2 879 -2 879 101 872 c 1,11,12
 160 866 160 866 216 896 c 0,13,14
 244 910 244 910 271 934 c 0,15,16
 297 959 297 959 317 987 c 1,17,-1
 334 1021 l 1,18,-1
 335 1019 l 1,19,-1
 333 994 l 1,20,21
 331 986 331 986 328 977 c 1,22,-1
 321 961 l 2,23,24
 274 848 274 848 183 814 c 0,25,26
 124 792 124 792 74 808 c 0,27,28
 46 816 46 816 21 835 c 0,29,30
 -38 877 -38 877 -62 961 c 0,0,1
65 578 m 1,31,-1
 65 93 l 2,32,33
 65 2 65 2 139 0 c 1,34,35
 203 2 203 2 221 63 c 0,36,37
 227 86 227 86 227 108 c 1,38,39
 210 76 210 76 198 72 c 1,40,-1
 182 69 l 1,41,42
 147 69 147 69 147 108 c 2,43,-1
 147 578 l 1,44,-1
 151 603 l 1,45,46
 160 629 160 629 181 629 c 2,47,-1
 283 629 l 1,48,49
 302 640 302 640 303 663 c 0,50,51
 305 677 305 677 313 682 c 1,52,-1
 32 682 l 1,53,54
 21 677 21 677 17 656 c 1,55,-1
 11 640 l 1,56,57
 5 632 5 632 0 629 c 1,58,-1
 94 629 l 1,59,60
 68 623 68 623 65 578 c 1,31,-1
EndSplineSet
EndChar

StartChar: SignShortO
Encoding: 2378 2378 73
Width: 272
GlyphClass: 4
Flags: W
LayerCount: 2
Fore
SplineSet
-198 848 m 0,0,1
 -160 802 -160 802 -87 802 c 0,2,3
 -54 802 -54 802 41 818 c 0,4,5
 115 829 115 829 145 776 c 1,6,-1
 156 748 l 1,7,8
 162 728 162 728 164 702 c 1,9,-1
 166 673 l 1,10,-1
 86 673 l 1,11,-1
 84 718 l 1,12,13
 77 764 77 764 42 763 c 0,14,15
 39 762 39 762 36 762 c 0,16,17
 -67 751 -67 751 -129 765 c 0,18,19
 -161 773 -161 773 -184 787 c 0,20,21
 -212 803 -212 803 -224 823 c 1,22,23
 -244 852 -244 852 -238 890 c 0,24,25
 -235 905 -235 905 -229 921 c 0,26,27
 -228 923 -228 923 -225 930 c 0,28,29
 -212 954 -212 954 -208 956 c 0,30,31
 -206 956 -206 956 -206 945 c 1,32,-1
 -207 934 l 1,33,-1
 -209 886 l 1,34,35
 -207 860 -207 860 -198 848 c 0,0,1
65 578 m 1,36,-1
 65 93 l 2,37,38
 65 2 65 2 139 0 c 1,39,40
 203 2 203 2 221 63 c 0,41,42
 227 86 227 86 227 108 c 1,43,44
 210 76 210 76 198 72 c 1,45,-1
 182 69 l 1,46,47
 147 69 147 69 147 108 c 2,48,-1
 147 578 l 1,49,-1
 151 603 l 1,50,51
 160 629 160 629 181 629 c 2,52,-1
 283 629 l 1,53,54
 302 640 302 640 303 663 c 0,55,56
 305 677 305 677 313 682 c 1,57,-1
 32 682 l 1,58,59
 21 677 21 677 17 656 c 1,60,-1
 11 640 l 1,61,62
 5 632 5 632 0 629 c 1,63,-1
 94 629 l 1,64,65
 68 623 68 623 65 578 c 1,36,-1
EndSplineSet
EndChar

StartChar: SignO
Encoding: 2379 2379 74
Width: 275
GlyphClass: 4
Flags: W
LayerCount: 2
Fore
SplineSet
87 578 m 2,0,1
 87 620 87 620 117 629 c 1,2,-1
 0 629 l 1,3,4
 14 638 14 638 18 662 c 1,5,6
 19 678 19 678 32 682 c 1,7,-1
 313 682 l 1,8,9
 305 677 305 677 302 658 c 1,10,11
 301 639 301 639 283 629 c 1,12,-1
 204 629 l 2,13,14
 172 629 172 629 170 578 c 1,15,-1
 170 108 l 2,16,17
 170 69 170 69 205 69 c 0,18,19
 228 69 228 69 247 100 c 0,20,21
 249 104 249 104 250 108 c 1,22,23
 249 33 249 33 196 7 c 1,24,25
 182 2 182 2 162 0 c 1,26,27
 121 -1 121 -1 102 27 c 0,28,29
 93 41 93 41 89 63 c 1,30,31
 87 85 87 85 87 93 c 2,32,-1
 87 578 l 2,0,1
80 682 m 1,33,34
 50 707 50 707 -5 812 c 0,35,36
 -13 826 -13 826 -18 839 c 0,37,38
 -61 939 -61 939 -123 927 c 0,39,40
 -129 926 -129 926 -134 924 c 2,41,-1
 -155 916 l 1,42,43
 -172 912 -172 912 -161 922 c 0,44,45
 -132 945 -132 945 -88 957 c 0,46,47
 -70 963 -70 963 -55 962 c 0,48,49
 3 956 3 956 49 856 c 0,50,51
 51 851 51 851 51 850 c 0,52,53
 117 704 117 704 177 682 c 1,54,-1
 80 682 l 1,33,34
EndSplineSet
EndChar

StartChar: SignAO
Encoding: 2380 2380 75
Width: 275
GlyphClass: 4
Flags: W
LayerCount: 2
Fore
SplineSet
53 681 m 1,0,-1
 203 680 l 1,1,2
 190.082 792.989 190.082 792.989 141 896 c 0,3,4
 101.366 979.182 101.366 979.182 49 985 c 18,5,-1
 40 986 l 2,6,7
 14.1244 988.875 14.1244 988.875 -23 972 c 0,8,9
 -39 965 -39 965 -57 954 c 0,10,11
 -76.1621 943.162 -76.1621 943.162 -73 940 c 0,12,13
 -71.6597 938.66 -71.6597 938.66 -63 941 c 2,14,-1
 -26 951 l 1,15,16
 19 958 19 958 51 917 c 1,17,-1
 69 888 l 1,18,19
 75 877 75 877 81 863 c 0,20,21
 84 857 84 857 108 780 c 1,22,-1
 116 757 l 1,23,24
 78 780 78 780 21 819 c 1,25,-1
 -8 836 l 1,26,27
 -94.4941 893.585 -94.4941 893.585 -157 896 c 0,28,29
 -182 897 -182 897 -212 883 c 0,30,31
 -228 875 -228 875 -245 864 c 0,32,33
 -265 850 -265 850 -259 847 c 1,34,35
 -255 847 -255 847 -251 848 c 0,36,37
 -196.084 866.672 -196.084 866.672 -155 850 c 0,38,39
 -85 823 -85 823 -43 785 c 0,40,41
 -6.56348 753.538 -6.56348 753.538 53 681 c 1,0,-1
87 578 m 2,42,43
 87 620 87 620 117 629 c 1,44,-1
 0 629 l 1,45,46
 14 638 14 638 18 662 c 1,47,48
 19 678 19 678 32 682 c 1,49,-1
 313 682 l 1,50,51
 305 677 305 677 302 658 c 1,52,53
 301 639 301 639 283 629 c 1,54,-1
 204 629 l 2,55,56
 172 629 172 629 170 578 c 1,57,-1
 170 108 l 2,58,59
 170 69 170 69 205 69 c 0,60,61
 228 69 228 69 247 100 c 0,62,63
 249 104 249 104 250 108 c 1,64,65
 249 33 249 33 196 7 c 1,66,67
 182 2 182 2 162 0 c 1,68,69
 121 -1 121 -1 102 27 c 0,70,71
 93 41 93 41 89 63 c 1,72,73
 87 85 87 85 87 93 c 2,74,-1
 87 578 l 2,42,43
EndSplineSet
EndChar

StartChar: SignHalant
Encoding: 2381 2381 76
Width: 0
GlyphClass: 4
Flags: W
AnchorPoint: "Anchor-1" -243 -2 mark 0
AnchorPoint: "Anchor-0" -243 -2 mark 0
LayerCount: 2
Fore
SplineSet
-250 2 m 0,0,1
 -145 -19 -145 -19 -100 -33 c 1,2,3
 -18 -62 -18 -62 15 -123 c 1,4,5
 28 -144 28 -144 21 -160 c 0,6,7
 17 -170 17 -170 8 -177 c 0,8,9
 -7 -190 -7 -190 -40 -199 c 1,10,11
 -35 -142 -35 -142 -63 -107 c 0,12,13
 -78 -89 -78 -89 -102 -77 c 0,14,15
 -106 -74 -106 -74 -115 -72 c 1,16,17
 -155 -53 -155 -53 -264 -28 c 1,18,-1
 -251 -5 l 1,19,20
 -249 1 -249 1 -250 2 c 0,0,1
EndSplineSet
EndChar

StartChar: LetterOM
Encoding: 2384 2384 77
Width: 1094
GlyphClass: 2
Flags: W
LayerCount: 2
Fore
SplineSet
426 0 m 0,0,1
 192 0 192 0 46 239 c 0,2,3
 47 238 47 238 49 242 c 0,4,5
 49 243 49 243 50 246 c 1,6,7
 53 238 53 238 83 207 c 0,8,9
 200 87 200 87 340 71 c 1,10,11
 409 61 409 61 449 83 c 0,12,13
 468 94 468 94 480 112 c 0,14,15
 498 138 498 138 498 181 c 0,16,17
 498 290 498 290 297 332 c 0,18,19
 253 341 253 341 253 344 c 1,20,-1
 254 352 l 1,21,22
 255 354 255 354 257 355 c 0,23,24
 260 358 260 358 264 359 c 0,25,26
 458 444 458 444 457 518 c 0,27,28
 457 527 457 527 455 535 c 0,29,30
 450 552 450 552 437 566 c 0,31,32
 384 624 384 624 297 612 c 0,33,34
 284 610 284 610 271 607 c 0,35,36
 219 595 219 595 154 558 c 1,37,-1
 93 513 l 1,38,-1
 118 550 l 1,39,40
 200 660 200 660 316 681 c 0,41,42
 401 695 401 695 457 674 c 0,43,44
 487 663 487 663 509 642 c 1,45,46
 547 603 547 603 555 551 c 0,47,48
 563 501 563 501 537 458 c 0,49,50
 523 435 523 435 500 414 c 1,51,-1
 471 390 l 1,52,53
 426 361 426 361 371 349 c 1,54,55
 487 344 487 344 548 274 c 2,56,-1
 556 264 l 1,57,58
 591 263 591 263 620 287 c 0,59,60
 634 299 634 299 647 317 c 2,61,-1
 703 399 l 1,62,63
 719 419 719 419 727 426 c 0,64,65
 807 504 807 504 894 488 c 0,66,67
 907 485 907 485 920 481 c 0,68,69
 988 461 988 461 1025 393 c 0,70,71
 1041 365 1041 365 1043 334 c 0,72,73
 1049 252 1049 252 1013 203 c 0,74,75
 1002 187 1002 187 985 175 c 0,76,77
 977 169 977 169 968 164 c 0,78,79
 923 139 923 139 871 147 c 0,80,81
 845 151 845 151 817 164 c 0,82,83
 802 170 802 170 781 182 c 1,84,85
 757 198 757 198 741 232 c 1,86,87
 739 242 739 242 738 246 c 1,88,-1
 738 257 l 1,89,-1
 744 247 l 2,90,91
 755 227 755 227 770 216 c 0,92,93
 811 188 811 188 858 196 c 0,94,95
 868 198 868 198 878 201 c 0,96,97
 941 221 941 221 952 283 c 1,98,-1
 954 316 l 1,99,-1
 954 318 l 1,100,101
 952 356 952 356 916 385 c 0,102,103
 876 418 876 418 827 401 c 0,104,105
 803 394 803 394 778 375 c 1,106,107
 745 347 745 347 720 316 c 1,108,-1
 658 232 l 1,109,110
 615 183 615 183 580 176 c 1,111,112
 587 163 587 163 581 138 c 0,113,114
 577 122 577 122 568 103 c 0,115,116
 533 25 533 25 467 6 c 0,117,118
 446 0 446 0 426 0 c 0,0,1
535 711 m 0,119,120
 520 753 520 753 523 778 c 0,121,122
 523 782 523 782 524 785 c 0,123,124
 526 791 526 791 533 781 c 2,125,-1
 539 772 l 1,126,-1
 550 749 l 2,127,128
 608 625 608 625 738 610 c 1,129,130
 813 603 813 603 883 633 c 0,131,132
 919 648 919 648 953 673 c 0,133,134
 997 705 997 705 1023 740 c 1,135,-1
 1048 779 l 2,136,137
 1049 780 1049 780 1049 777 c 0,138,139
 1050 766 1050 766 1046 752 c 0,140,141
 1043 740 1043 740 1037 728 c 0,142,143
 1034 720 1034 720 1030 711 c 0,144,145
 971 587 971 587 858 548 c 1,146,147
 785 521 785 521 718 537 c 0,148,149
 684 544 684 544 652 563 c 0,150,151
 569 611 569 611 535 711 c 0,119,120
705 770 m 0,152,153
 703 783 703 783 722 793 c 0,154,155
 732 798 732 798 748 802 c 0,156,157
 788 814 788 814 820 807 c 0,158,159
 835 803 835 803 848 795 c 0,160,161
 859 790 859 790 864 779 c 1,162,163
 869 773 869 773 870 766 c 1,164,165
 876 749 876 749 858 737 c 1,166,-1
 836 727 l 1,167,-1
 831 725 l 2,168,169
 796 715 796 715 766 720 c 0,170,171
 750 723 750 723 735 730 c 0,172,173
 707 743 707 743 705 770 c 0,152,153
EndSplineSet
EndChar

StartChar: StreeSignUdatta
Encoding: 2385 2385 78
Width: 0
GlyphClass: 4
Flags: W
AnchorPoint: "Anchor-3" -119 515 mark 0
AnchorPoint: "Anchor-2" -119 515 mark 0
LayerCount: 2
Fore
SplineSet
-91 946 m 1,0,-1
 -91 650 l 1,1,-1
 -85 630 l 1,2,3
 -78 613 -78 613 -60 613 c 0,4,5
 -48 612 -48 612 -34 618 c 0,6,7
 -27 621 -27 621 -19 626 c 0,8,9
 -10 632 -10 632 -9 633 c 0,10,11
 -25 593 -25 593 -60 581 c 0,12,13
 -93 571 -93 571 -103 571 c 0,14,15
 -156 571 -156 571 -173 624 c 2,16,-1
 -175 630 l 1,17,-1
 -175 905 l 2,18,19
 -175 923 -175 923 -137 930 c 0,20,21
 -97 938 -97 938 -91 946 c 1,0,-1
EndSplineSet
EndChar

StartChar: StressSignAnudatta
Encoding: 2386 2386 79
Width: 0
GlyphClass: 4
Flags: W
LayerCount: 2
Fore
SplineSet
-632 -211 m 5,0,1
 -610 -199 -610 -199 -604 -184 c 6,2,-1
 -602 -179 l 6,3,4
 -598 -168 -598 -168 -575 -158 c 5,5,-1
 -12 -158 l 5,6,7
 -33 -166 -33 -166 -39 -179 c 4,8,9
 -49 -203 -49 -203 -58 -207 c 4,10,11
 -61 -208 -61 -208 -69 -210 c 5,12,13
 -380 -211 -380 -211 -632 -211 c 5,0,1
EndSplineSet
EndChar

StartChar: GraveAccent
Encoding: 2387 2387 80
Width: 0
GlyphClass: 4
Flags: W
LayerCount: 2
Fore
SplineSet
-440 883 m 1,0,1
 -377 893 -377 893 -336 878 c 0,2,3
 -316 870 -316 870 -301 856 c 1,4,-1
 -280 830 l 1,5,-1
 -248 778 l 1,6,7
 -229 752 -229 752 -222 715 c 1,8,-1
 -272 707 l 1,9,10
 -326 828 -326 828 -430 813 c 0,11,12
 -438 812 -438 812 -447 810 c 0,13,14
 -473 804 -473 804 -499 791 c 1,15,-1
 -440 883 l 1,0,1
EndSplineSet
EndChar

StartChar: AcuteAccent
Encoding: 2388 2388 81
Width: 0
GlyphClass: 4
Flags: W
LayerCount: 2
Fore
SplineSet
-163 888 m 0,0,1
 -133 892 -133 892 -109 871 c 0,2,3
 -95 860 -95 860 -83 842 c 2,4,-1
 -72 824 l 1,5,6
 -61 808 -61 808 -65 807 c 1,7,-1
 -77 810 l 2,8,9
 -78 811 -78 811 -80 812 c 0,10,11
 -81 813 -81 813 -84 814 c 0,12,13
 -129 839 -129 839 -179 823 c 0,14,15
 -205 815 -205 815 -232 796 c 0,16,17
 -268 771 -268 771 -300 732 c 1,18,-1
 -352 741 l 1,19,-1
 -295 821 l 1,20,21
 -249 876 -249 876 -163 888 c 0,0,1
EndSplineSet
EndChar

StartChar: LetterQa
Encoding: 2392 2392 82
Width: 932
GlyphClass: 3
Flags: W
AnchorPoint: "Anchor-2" 501 682 basechar 0
LayerCount: 2
Fore
SplineSet
452 578 m 2,0,1
 452 620 452 620 481 629 c 1,2,-1
 0 629 l 1,3,4
 14 638 14 638 18 662 c 0,5,6
 21 676 21 676 32 682 c 1,7,-1
 969 682 l 1,8,9
 959 677 959 677 956 656 c 1,10,-1
 950 640 l 1,11,-1
 940 630 l 1,12,-1
 938 629 l 1,13,-1
 568 629 l 2,14,15
 536 629 536 629 535 578 c 1,16,-1
 535 378 l 1,17,18
 582 453 582 453 650 504 c 1,19,20
 691 532 691 532 750 531 c 1,21,22
 847 526 847 526 877 445 c 0,23,24
 898 390 898 390 881 322 c 0,25,26
 873 290 873 290 856 255 c 0,27,28
 813 170 813 170 759 131 c 0,29,30
 718 100 718 100 719 108 c 0,31,32
 719 109 719 109 722 113 c 0,33,34
 841 264 841 264 827 357 c 0,35,36
 826 364 826 364 824 370 c 0,37,38
 808 431 808 431 748 456 c 0,39,40
 726 466 726 466 709 465 c 0,41,42
 649 457 649 457 582 396 c 0,43,44
 547 364 547 364 535 345 c 1,45,-1
 535 108 l 2,46,47
 535 69 535 69 569 69 c 0,48,49
 595 69 595 69 611 100 c 0,50,51
 614 106 614 106 614 108 c 0,52,53
 616 85 616 85 610 65 c 0,54,55
 607 56 607 56 603 47 c 0,56,57
 597 34 597 34 585 24 c 2,58,-1
 568 10 l 1,59,-1
 545 2 l 1,60,61
 533 0 533 0 526 0 c 0,62,63
 485 -1 485 -1 467 27 c 0,64,65
 458 41 458 41 454 63 c 1,66,67
 452 85 452 85 452 93 c 2,68,-1
 452 230 l 1,69,70
 366 114 366 114 251 117 c 2,71,-1
 244 117 l 2,72,73
 152 125 152 125 94 202 c 0,74,75
 47 264 47 264 47 343 c 0,76,77
 47 425 47 425 112 484 c 1,78,79
 180 548 180 548 271 536 c 0,80,81
 282 535 282 535 294 532 c 0,82,83
 375 515 375 515 452 444 c 1,84,-1
 452 578 l 2,0,1
312 173 m 0,85,86
 370 174 370 174 421 232 c 1,87,-1
 452 269 l 1,88,-1
 452 408 l 1,89,90
 374 489 374 489 278 488 c 0,91,92
 218 486 218 486 176 442 c 0,93,94
 136 402 136 402 137 335 c 1,95,-1
 137 330 l 1,96,97
 140 274 140 274 187 222 c 1,98,99
 235 172 235 172 312 173 c 0,85,86
369 116 m 1,100,101
 373 92 373 92 369 70 c 0,102,103
 368 62 368 62 366 53 c 1,104,105
 359 35 359 35 351 25 c 0,106,107
 326 -9 326 -9 296 -1 c 0,108,109
 290 1 290 1 283 5 c 0,110,111
 258 21 258 21 259 53 c 1,112,113
 261 67 261 67 268 76 c 1,114,115
 283 90 283 90 307 89 c 0,116,117
 330 88 330 88 348 99 c 0,118,119
 359 105 359 105 369 116 c 1,100,101
EndSplineSet
LCarets2: 1 0 
Ligature2: "'nukt' Nukta Forms in Devanagari lookup 1 subtable" LetterKA SignNukta
EndChar

StartChar: LetterKHHA
Encoding: 2393 2393 83
Width: 974
GlyphClass: 3
Flags: W
AnchorPoint: "Anchor-2" 812 684 basechar 0
LayerCount: 2
Fore
SplineSet
843 578 m 1,0,-1
 843 108 l 2,1,2
 843 69 843 69 878 69 c 0,3,4
 908 69 908 69 920 100 c 0,5,6
 922 104 922 104 923 108 c 1,7,8
 924 73 924 73 911 48 c 0,9,10
 904 34 904 34 893 24 c 2,11,-1
 877 10 l 1,12,-1
 854 2 l 1,13,14
 844 0 844 0 835 0 c 0,15,16
 794 -1 794 -1 775 27 c 0,17,18
 766 41 766 41 762 63 c 1,19,20
 760 85 760 85 760 93 c 2,21,-1
 760 95 l 1,22,-1
 760 130 l 1,23,-1
 759 154 l 1,24,25
 757 159 757 159 749 158 c 0,26,27
 745 157 745 157 739 155 c 2,28,-1
 717 144 l 1,29,-1
 669 100 l 1,30,31
 528 -1 528 -1 413 0 c 0,32,33
 252 3 252 3 176 174 c 0,34,35
 157 219 157 219 130 237 c 1,36,37
 84 264 84 264 84 267 c 1,38,39
 41 300 41 300 46 338 c 0,40,41
 46 341 46 341 47 344 c 2,42,-1
 51 356 l 2,43,44
 65 394 65 394 102 400 c 0,45,46
 107 401 107 401 128 399 c 0,47,48
 154 396 154 396 178 367 c 0,49,50
 197 344 197 344 216 344 c 1,51,52
 231 346 231 346 255 362 c 1,53,54
 324 415 324 415 322 479 c 1,55,56
 316 570 316 570 203 615 c 1,57,-1
 159 629 l 1,58,-1
 0 629 l 1,59,60
 14 638 14 638 18 662 c 0,61,62
 21 676 21 676 32 682 c 1,63,-1
 1008 682 l 1,64,65
 998 678 998 678 995 656 c 1,66,-1
 989 640 l 1,67,-1
 978 630 l 1,68,-1
 977 629 l 1,69,-1
 877 629 l 2,70,71
 844 629 844 629 843 578 c 1,0,-1
608 493 m 2,72,73
 549 492 549 492 513 439 c 1,74,75
 489 409 489 409 489 369 c 0,76,77
 489 294 489 294 552 251 c 1,78,79
 586 225 586 225 631 223 c 0,80,81
 654 222 654 222 674 230 c 0,82,83
 687 235 687 235 699 244 c 1,84,85
 718 255 718 255 734 271 c 1,86,87
 754 296 754 296 760 309 c 1,88,-1
 760 410 l 1,89,90
 707 493 707 493 613 493 c 2,91,-1
 608 493 l 2,72,73
760 464 m 1,92,-1
 760 578 l 2,93,94
 760 620 760 620 790 629 c 1,95,-1
 257 628 l 1,96,97
 325 613 325 613 373 565 c 0,98,99
 418 520 418 520 414 474 c 0,100,101
 404 364 404 364 293 314 c 1,102,103
 242 294 242 294 218 296 c 1,104,105
 241 264 241 264 258 208 c 1,106,107
 302 84 302 84 396 70 c 0,108,109
 454 60 454 60 516 79 c 0,110,111
 543 87 543 87 570 100 c 0,112,113
 648 141 648 141 706 182 c 1,114,115
 757 222 757 222 760 228 c 1,116,-1
 760 255 l 1,117,118
 749 229 749 229 696 204 c 1,119,120
 650 179 650 179 599 180 c 1,121,122
 488 187 488 187 435 270 c 1,123,124
 406 320 406 320 408 378 c 1,125,-1
 408 382 l 1,126,127
 411 466 411 466 481 518 c 0,128,129
 529 552 529 552 594 552 c 2,130,-1
 601 552 l 2,131,132
 671 548 671 548 736 486 c 2,133,-1
 760 464 l 1,92,-1
689 46 m 1,134,135
 692 24 692 24 690 5 c 0,136,137
 688 -7 688 -7 685 -17 c 0,138,139
 682 -30 682 -30 671 -45 c 0,140,141
 645 -78 645 -78 617 -70 c 0,142,143
 610 -68 610 -68 603 -63 c 0,144,145
 578 -48 578 -48 579 -15 c 0,146,147
 580 -3 580 -3 588 6 c 1,148,149
 604 20 604 20 627 19 c 0,150,151
 649 18 649 18 670 31 c 0,152,153
 680 37 680 37 689 46 c 1,134,135
EndSplineSet
LCarets2: 1 0 
Ligature2: "'nukt' Nukta Forms in Devanagari lookup 1 subtable" LetterKHA SignNukta
EndChar

StartChar: LetterGHHA
Encoding: 2394 2394 84
Width: 716
GlyphClass: 3
Flags: W
AnchorPoint: "Anchor-2" 554 682 basechar 0
LayerCount: 2
Fore
SplineSet
140 147 m 1,0,1
 172 113 172 113 216 124 c 0,2,3
 235 129 235 129 256 142 c 0,4,5
 322 184 322 184 311 303 c 0,6,7
 310 316 310 316 308 330 c 1,8,9
 227 360 227 360 178 335 c 0,10,11
 153 322 153 322 135 295 c 0,12,13
 100 242 100 242 114 194 c 0,14,15
 121 169 121 169 140 147 c 1,0,1
220 75 m 0,16,17
 172 72 172 72 135 89 c 0,18,19
 116 98 116 98 98 113 c 0,20,21
 42 159 42 159 46 233 c 1,22,-1
 46 239 l 1,23,24
 50 298 50 298 97 348 c 0,25,26
 142 394 142 394 230 394 c 0,27,28
 266 394 266 394 305 373 c 1,29,30
 283 460 283 460 258 516 c 1,31,32
 230 574 230 574 186 629 c 1,33,-1
 0 629 l 1,34,35
 14 638 14 638 18 662 c 0,36,37
 21 676 21 676 32 682 c 1,38,-1
 749 682 l 1,39,40
 739 678 739 678 736 656 c 1,41,-1
 730 640 l 1,42,-1
 719 630 l 1,43,-1
 718 629 l 1,44,-1
 617 629 l 2,45,46
 586 629 586 629 584 578 c 1,47,-1
 584 108 l 2,48,49
 584 69 584 69 618 69 c 0,50,51
 650 69 650 69 660 100 c 1,52,53
 663 103 663 103 664 108 c 1,54,55
 665 73 665 73 652 48 c 0,56,57
 645 34 645 34 635 24 c 1,58,-1
 617 10 l 1,59,-1
 595 2 l 2,60,61
 587 0 587 0 575 0 c 0,62,63
 534 -1 534 -1 516 27 c 0,64,65
 507 41 507 41 504 63 c 0,66,67
 501 80 501 80 501 93 c 2,68,-1
 501 578 l 2,69,70
 501 620 501 620 530 629 c 1,71,-1
 244 629 l 1,72,73
 291 572 291 572 338 486 c 0,74,75
 384 401 384 401 388 321 c 0,76,77
 392 251 392 251 371 196 c 0,78,79
 360 166 360 166 342 142 c 0,80,81
 294 81 294 81 220 75 c 0,16,17
419 48 m 1,82,83
 424 23 424 23 421 3 c 0,84,85
 418 -10 418 -10 413 -20 c 1,86,87
 409 -34 409 -34 400 -43 c 1,88,89
 375 -77 375 -77 347 -68 c 0,90,91
 340 -66 340 -66 333 -61 c 0,92,93
 307 -46 307 -46 308 -13 c 1,94,95
 310 -1 310 -1 317 8 c 1,96,97
 335 24 335 24 357 23 c 0,98,99
 380 20 380 20 402 34 c 0,100,101
 410 40 410 40 419 48 c 1,82,83
EndSplineSet
LCarets2: 1 0 
Ligature2: "'nukt' Nukta Forms in Devanagari lookup 1 subtable" LetterGA SignNukta
EndChar

StartChar: LetterZA
Encoding: 2395 2395 85
Width: 893
GlyphClass: 3
Flags: W
AnchorPoint: "Anchor-2" 729 681 basechar 0
LayerCount: 2
Fore
SplineSet
424 424 m 0,0,1
 479 398 479 398 548 398 c 0,2,3
 588 398 588 398 621 411 c 0,4,5
 676 431 676 431 676 466 c 2,6,-1
 676 578 l 2,7,8
 676 620 676 620 706 629 c 1,9,-1
 0 629 l 1,10,11
 14 638 14 638 18 662 c 0,12,13
 21 676 21 676 32 682 c 1,14,-1
 924 682 l 1,15,16
 914 677 914 677 911 656 c 1,17,-1
 905 640 l 1,18,-1
 894 630 l 1,19,-1
 893 629 l 1,20,-1
 793 629 l 2,21,22
 760 629 760 629 759 578 c 1,23,-1
 759 108 l 2,24,25
 759 69 759 69 794 69 c 0,26,27
 824 69 824 69 836 100 c 0,28,29
 838 104 838 104 839 108 c 1,30,31
 840 73 840 73 827 48 c 0,32,33
 820 34 820 34 810 24 c 1,34,-1
 793 10 l 1,35,-1
 770 2 l 2,36,37
 762 0 762 0 751 0 c 0,38,39
 712 -1 712 -1 694 22 c 0,40,41
 685 34 685 34 682 53 c 0,42,43
 680 67 680 67 680 81 c 2,44,-1
 680 388 l 1,45,46
 630 342 630 342 535 344 c 0,47,48
 533 344 533 344 530 344 c 0,49,50
 466 346 466 346 407 384 c 1,51,52
 543 308 543 308 554 191 c 0,53,54
 559 140 559 140 535 98 c 0,55,56
 523 78 523 78 504 60 c 0,57,58
 440 0 440 0 348 0 c 0,59,60
 197 0 197 0 130 162 c 1,61,62
 92 248 92 248 92 374 c 1,63,64
 94 409 94 409 106 411 c 1,65,-1
 120 390 l 1,66,67
 142 227 142 227 193 144 c 0,68,69
 239 68 239 68 321 60 c 0,70,71
 390 55 390 55 430 91 c 0,72,73
 451 109 451 109 464 138 c 0,74,75
 483 184 483 184 468 228 c 0,76,77
 460 252 460 252 442 276 c 0,78,79
 415 315 415 315 338 360 c 1,80,81
 286 393 286 393 314 432 c 1,82,83
 331 453 331 453 372 443 c 0,84,85
 395 438 395 438 424 424 c 0,0,1
529 -48 m 1,86,87
 532 -71 532 -71 530 -91 c 0,88,89
 528 -102 528 -102 525 -113 c 0,90,91
 521 -126 521 -126 512 -139 c 1,92,93
 485 -172 485 -172 456 -165 c 1,94,-1
 443 -159 l 1,95,96
 419 -141 419 -141 420 -111 c 0,97,98
 421 -97 421 -97 429 -88 c 0,99,100
 443 -74 443 -74 468 -75 c 0,101,102
 489 -76 489 -76 507 -66 c 0,103,104
 519 -59 519 -59 529 -48 c 1,86,87
EndSplineSet
LCarets2: 1 0 
Ligature2: "'nukt' Nukta Forms in Devanagari lookup 1 subtable" LetterJA SignNukta
EndChar

StartChar: LetterDDDHA
Encoding: 2396 2396 86
Width: 670
GlyphClass: 3
Flags: W
AnchorPoint: "Anchor-2" 458 682 basechar 0
LayerCount: 2
Fore
SplineSet
424 629 m 1,0,-1
 0 629 l 1,1,2
 14 638 14 638 18 662 c 0,3,4
 21 676 21 676 32 682 c 1,5,-1
 710 682 l 1,6,7
 700 678 700 678 697 656 c 1,8,-1
 691 640 l 1,9,-1
 681 630 l 1,10,-1
 680 629 l 1,11,-1
 506 629 l 1,12,13
 551 609 551 609 564 564 c 0,14,15
 571 542 571 542 566 525 c 0,16,17
 564 516 564 516 558 508 c 1,18,19
 545 479 545 479 501 471 c 1,20,-1
 472 470 l 2,21,22
 465 470 465 470 381 486 c 0,23,24
 341 494 341 494 312 493 c 2,25,-1
 304 492 l 2,26,27
 295 490 295 490 281 488 c 0,28,29
 213 478 213 478 195 426 c 0,30,31
 188 406 188 406 192 390 c 0,32,33
 194 382 194 382 199 374 c 2,34,-1
 210 356 l 2,35,36
 212 353 212 353 215 351 c 0,37,38
 236 332 236 332 272 330 c 0,39,40
 359 323 359 323 493 301 c 0,41,42
 573 288 573 288 596 218 c 0,43,44
 610 172 610 172 592 126 c 0,45,46
 583 101 583 101 564 76 c 0,47,48
 509 4 509 4 398 -2 c 0,49,50
 299 -8 299 -8 203 58 c 0,51,52
 154 91 154 91 106 142 c 1,53,-1
 55 202 l 1,54,55
 48 216 48 216 49 220 c 0,56,57
 50 222 50 222 52 221 c 0,58,59
 53 221 53 221 56 219 c 2,60,-1
 63 212 l 1,61,-1
 69 208 l 1,62,63
 172 102 172 102 263 72 c 2,64,-1
 268 70 l 2,65,66
 316 50 316 50 373 57 c 0,67,68
 394 59 394 59 416 65 c 0,69,70
 495 87 495 87 514 140 c 0,71,72
 519 156 519 156 517 171 c 0,73,74
 517 179 517 179 514 187 c 0,75,76
 496 252 496 252 375 267 c 1,77,-1
 252 279 l 1,78,79
 131 298 131 298 106 380 c 0,80,81
 102 394 102 394 103 413 c 0,82,83
 103 417 103 417 104 421 c 0,84,85
 122 549 122 549 289 549 c 2,86,-1
 294 549 l 2,87,88
 338 548 338 548 407 531 c 0,89,90
 453 520 453 520 473 532 c 0,91,92
 484 538 484 538 489 550 c 0,93,94
 498 568 498 568 486 586 c 1,95,96
 481 596 481 596 469 606 c 0,97,98
 451 623 451 623 424 629 c 1,0,-1
356 -45 m 1,99,100
 359 -69 359 -69 357 -87 c 0,101,102
 356 -97 356 -97 353 -106 c 0,103,104
 349 -125 349 -125 339 -136 c 0,105,106
 312 -169 312 -169 283 -162 c 1,107,-1
 270 -156 l 1,108,109
 245 -137 245 -137 247 -106 c 0,110,111
 248 -94 248 -94 256 -85 c 0,112,113
 270 -71 270 -71 295 -72 c 0,114,115
 316 -73 316 -73 336 -61 c 0,116,117
 347 -54 347 -54 356 -45 c 1,99,100
EndSplineSet
LCarets2: 1 0 
Ligature2: "'nukt' Nukta Forms in Devanagari lookup 1 subtable" LetterDDA SignNukta
EndChar

StartChar: LetterRHA
Encoding: 2397 2397 87
Width: 620
GlyphClass: 3
Flags: W
AnchorPoint: "Anchor-2" 428 682 basechar 0
LayerCount: 2
Fore
SplineSet
164 311 m 0,0,1
 157 260 157 260 175 211 c 0,2,3
 185 184 185 184 202 159 c 1,4,5
 221 127 221 127 257 98 c 1,6,7
 316.091 58 316.091 58 374 58 c 0,8,9
 377 58 377 58 379 58 c 0,10,11
 384 58 384 58 387 59 c 0,12,13
 456 73 456 73 484 117 c 1,14,15
 501 138 501 138 496 163 c 0,16,17
 495.429 165.572 495.429 165.572 489 181 c 0,18,19
 479 205 479 205 454 210 c 0,20,21
 428 215 428 215 408 208 c 0,22,23
 398 205 398 205 390 198 c 1,24,25
 377 184 377 184 371 164 c 0,26,27
 363.417 134.75 363.417 134.75 371 112 c 0,28,29
 376.358 100.695 376.358 100.695 382 88 c 0,30,31
 389.014 80.9714 389.014 80.9714 396 67 c 0,32,33
 397 65 397 65 396 65 c 2,34,-1
 389 70 l 2,35,36
 351 97.1429 351 97.1429 338 138 c 0,37,38
 325.705 178.669 325.705 178.669 341 218 c 0,39,40
 348 236 348 236 361 252 c 1,41,42
 396 289 396 289 447 293 c 0,43,44
 507 298 507 298 539 267 c 0,45,46
 554 252 554 252 564 227 c 0,47,48
 579 187 579 187 571 146 c 0,49,50
 566.385 121.769 566.385 121.769 557 103 c 2,51,-1
 551 91 l 1,52,53
 503 14 503 14 393 1 c 0,54,55
 278 -13 278 -13 195 41 c 0,56,57
 153 68 153 68 119 112 c 0,58,59
 54 194 54 194 47 283 c 1,60,-1
 47 314 l 1,61,62
 54 398 54 398 127 458 c 1,63,64
 206.678 526.607 206.678 526.607 353 518 c 0,65,66
 370 517 370 517 388 514 c 0,67,68
 419 509 419 509 434 524 c 0,69,70
 439.571 529.571 439.571 529.571 446 546 c 0,71,72
 455 569 455 569 447 589 c 0,73,74
 443 600 443 600 434 609 c 1,75,76
 418 629 418 629 389 629 c 2,77,-1
 0 629 l 1,78,79
 12.6746 637.148 12.6746 637.148 18 662 c 0,80,81
 21 676 21 676 32 682 c 1,82,-1
 657 682 l 1,83,84
 648 678 648 678 645 656 c 1,85,-1
 639 640 l 1,86,-1
 628 630 l 1,87,-1
 627 629 l 1,88,-1
 470 629 l 1,89,90
 529 591 529 591 531 538 c 0,91,92
 532 506 532 506 510 488 c 1,93,-1
 491 476 l 1,94,-1
 478 471 l 2,95,96
 449.086 459.879 449.086 459.879 412 464 c 0,97,98
 403 465 403 465 393 466 c 0,99,100
 300.748 478 300.748 478 242 439 c 0,101,102
 212 419 212 419 190 385 c 1,103,104
 168 346 168 346 164 311 c 0,0,1
409 -45 m 1,105,106
 412 -69 412 -69 410 -87 c 0,107,108
 409 -97 409 -97 406 -106 c 0,109,110
 400 -126 400 -126 391 -136 c 1,111,112
 365 -170 365 -170 336 -162 c 0,113,114
 330 -160 330 -160 323 -156 c 0,115,116
 297 -137 297 -137 299 -106 c 0,117,118
 300 -94 300 -94 308 -85 c 0,119,120
 322 -71 322 -71 347 -72 c 0,121,122
 369 -73 369 -73 390 -60 c 0,123,124
 400 -54 400 -54 409 -45 c 1,105,106
EndSplineSet
LCarets2: 1 0 
Ligature2: "'nukt' Nukta Forms in Devanagari lookup 1 subtable" LetterDDHA SignNukta
EndChar

StartChar: LetterFA
Encoding: 2398 2398 88
Width: 877
GlyphClass: 3
Flags: W
AnchorPoint: "Anchor-2" 447 682 basechar 0
LayerCount: 2
Fore
SplineSet
223 629 m 1,0,1
 101 480 101 480 122 362 c 0,2,3
 124 349 124 349 128 336 c 0,4,5
 147 266 147 266 211 233 c 1,6,7
 232 224 232 224 248 223 c 2,8,-1
 288 222 l 1,9,10
 294 223 294 223 299 224 c 0,11,12
 309 225 309 225 318 230 c 1,13,14
 355 245 355 245 400 287 c 1,15,-1
 400 578 l 2,16,17
 400 620 400 620 430 629 c 1,18,-1
 223 629 l 1,0,1
0 629 m 1,19,20
 14 638 14 638 18 662 c 0,21,22
 21 676 21 676 32 682 c 1,23,-1
 918 682 l 1,24,25
 908 678 908 678 905 656 c 1,26,-1
 899 640 l 1,27,-1
 888 630 l 1,28,-1
 887 629 l 1,29,-1
 517 629 l 2,30,31
 484 629 484 629 483 578 c 1,32,-1
 483 371 l 1,33,-1
 524 419 l 1,34,35
 613 512 613 512 679 514 c 0,36,37
 753 516 753 516 792 476 c 1,38,39
 812 457 812 457 822 427 c 0,40,41
 834 391 834 391 831 358 c 0,42,43
 831 353 831 353 830 349 c 0,44,45
 829 336 829 336 823 308 c 0,46,47
 810 252 810 252 715 142 c 1,48,49
 674 97 674 97 670 98 c 1,50,-1
 696 145 l 1,51,52
 763 257 763 257 758 339 c 0,53,54
 757 343 757 343 757 347 c 0,55,56
 747 444 747 444 659 452 c 1,57,-1
 646 452 l 2,58,59
 594 452 594 452 489 348 c 2,60,-1
 483 342 l 1,61,-1
 483 108 l 2,62,63
 483 69 483 69 518 69 c 0,64,65
 544 69 544 69 560 100 c 0,66,67
 563 106 563 106 563 108 c 0,68,69
 565 85 565 85 559 65 c 0,70,71
 556 56 556 56 552 47 c 0,72,73
 547 37 547 37 534 24 c 1,74,-1
 517 10 l 1,75,76
 500 0 500 0 475 0 c 0,77,78
 435 -1 435 -1 416 27 c 0,79,80
 406 41 406 41 402 63 c 1,81,82
 400 85 400 85 400 93 c 2,83,-1
 400 255 l 1,84,85
 302 146 302 146 209 151 c 0,86,87
 205 152 205 152 202 152 c 0,88,89
 195 152 195 152 191 154 c 1,90,91
 130 163 130 163 89 217 c 1,92,93
 36 290 36 290 52 378 c 0,94,95
 57 404 57 404 67 430 c 0,96,97
 115 558 115 558 184 629 c 1,98,-1
 0 629 l 1,19,20
483 342 m 0,99,-1
274 116 m 1,100,101
 278 92 278 92 274 70 c 0,102,103
 273 62 273 62 271 53 c 0,104,105
 266 36 266 36 257 25 c 0,106,107
 230 -8 230 -8 201 -1 c 0,108,109
 195 1 195 1 188 5 c 0,110,111
 164 21 164 21 165 53 c 1,112,113
 167 67 167 67 174 76 c 1,114,115
 188 90 188 90 213 89 c 0,116,117
 234 88 234 88 252 98 c 0,118,119
 264 105 264 105 274 116 c 1,100,101
EndSplineSet
LCarets2: 1 0 
Ligature2: "'nukt' Nukta Forms in Devanagari lookup 1 subtable" LetterPHA SignNukta
EndChar

StartChar: LetterYYA
Encoding: 2399 2399 89
Width: 858
GlyphClass: 3
Flags: W
AnchorPoint: "Anchor-2" 700 682 basechar 0
LayerCount: 2
Fore
SplineSet
641 93 m 2,0,-1
 641 243 l 1,1,-1
 607 199 l 1,2,3
 540 108 540 108 457 82 c 0,4,5
 387 59 387 59 321 67 c 0,6,7
 291 70 291 70 262 80 c 0,8,9
 102 132 102 132 65 306 c 1,10,11
 62 312 62 312 62 319 c 0,12,13
 58 373 58 373 68 396 c 0,14,15
 73 407 73 407 80 411 c 0,16,17
 99 422 99 422 121 414 c 0,18,19
 132 410 132 410 144 401 c 1,20,21
 199 366 199 366 252 376 c 0,22,23
 264 378 264 378 276 383 c 0,24,25
 303 392 303 392 319 420 c 1,26,27
 360 480 360 480 327 539 c 0,28,29
 310 569 310 569 274 599 c 0,30,31
 244 623 244 623 231 629 c 1,32,-1
 0 629 l 1,33,34
 14 638 14 638 18 662 c 0,35,36
 21 676 21 676 32 682 c 1,37,-1
 888 682 l 1,38,39
 880 678 880 678 874 656 c 1,40,41
 871 635 871 635 858 629 c 1,42,-1
 757 629 l 2,43,44
 726 629 726 629 724 578 c 1,45,-1
 724 108 l 2,46,47
 724 69 724 69 758 69 c 0,48,49
 790 69 790 69 800 100 c 0,50,51
 802 104 802 104 803 108 c 0,52,53
 800 34 800 34 753 8 c 1,54,55
 734 0 734 0 715 0 c 0,56,57
 659 0 659 0 644 65 c 0,58,59
 641 80 641 80 641 93 c 2,0,-1
641 578 m 2,60,61
 641 620 641 620 670 629 c 1,62,-1
 323 629 l 1,63,64
 407 578 407 578 428 496 c 0,65,66
 435 469 435 469 431 443 c 0,67,68
 430 430 430 430 425 417 c 0,69,70
 419 400 419 400 417 398 c 0,71,72
 383 346 383 346 323 327 c 1,73,74
 287 314 287 314 251 316 c 0,75,76
 248 316 248 316 244 316 c 0,77,78
 221 317 221 317 166 336 c 0,79,80
 161 337 161 337 160 333 c 1,81,-1
 159 324 l 1,82,-1
 161 305 l 1,83,84
 174 221 174 221 236 170 c 1,85,86
 268 142 268 142 302 132 c 1,87,88
 375 105 375 105 449 132 c 0,89,90
 483 144 483 144 519 168 c 0,91,92
 583 211 583 211 617 267 c 0,93,94
 638 303 638 303 641 316 c 1,95,-1
 641 331 l 1,96,-1
 641 578 l 2,60,61
507 31 m 1,97,98
 510 7 510 7 508 -13 c 0,99,100
 507 -22 507 -22 504 -32 c 0,101,102
 497 -51 497 -51 488 -60 c 1,103,104
 463 -94 463 -94 434 -86 c 0,105,106
 427 -84 427 -84 421 -80 c 0,107,108
 395 -65 395 -65 396 -32 c 1,109,110
 398 -17 398 -17 406 -9 c 0,111,112
 422 5 422 5 444 4 c 0,113,114
 467 3 467 3 486 14 c 0,115,116
 497 21 497 21 507 31 c 1,97,98
EndSplineSet
LCarets2: 1 0 
Ligature2: "'nukt' Nukta Forms in Devanagari lookup 1 subtable" LetterYA SignNukta
EndChar

StartChar: LetterVocalicRR
Encoding: 2400 2400 90
Width: 1090
GlyphClass: 3
Flags: W
AnchorPoint: "Anchor-2" 535 682 basechar 0
LayerCount: 2
Fore
SplineSet
490 227 m 1,0,1
 471 232 471 232 418 195 c 0,2,3
 387 174 387 174 347 140 c 2,4,-1
 287 90 l 1,5,6
 240 54 240 54 168 50 c 1,7,-1
 128 51 l 1,8,9
 120 53 120 53 113 55 c 0,10,11
 84 63 84 63 92 68 c 0,12,13
 95 71 95 71 104 72 c 0,14,15
 111 73 111 73 120 73 c 0,16,17
 190 72 190 72 234 109 c 0,18,19
 262 132 262 132 315 198 c 1,20,21
 351 239 351 239 416 271 c 1,22,-1
 475 305 l 2,23,24
 493 316 493 316 487 329 c 0,25,26
 485 334 485 334 481 338 c 0,27,28
 476 343 476 343 470 346 c 0,29,30
 435 361 435 361 364 431 c 0,31,32
 294 500 294 500 258 514 c 0,33,34
 235 523 235 523 213 522 c 0,35,36
 211 521 211 521 208 521 c 0,37,38
 124 512 124 512 141 438 c 1,39,-1
 148 414 l 1,40,41
 166 377 166 377 183 353 c 1,42,43
 199 336 199 336 195 331 c 1,44,-1
 186 329 l 1,45,-1
 185 329 l 1,46,-1
 159 336 l 1,47,48
 102 356 102 356 69 418 c 1,49,50
 39 470 39 470 49 512 c 0,51,52
 52 528 52 528 62 542 c 0,53,54
 99 593 99 593 200 597 c 0,55,56
 247 599 247 599 300 564 c 0,57,58
 327 547 327 547 354 522 c 2,59,-1
 438 444 l 1,60,61
 467 421 467 421 490 410 c 1,62,-1
 490 578 l 2,63,64
 490 620 490 620 520 629 c 1,65,-1
 0 629 l 1,66,67
 14 638 14 638 18 662 c 0,68,69
 21 676 21 676 32 682 c 1,70,-1
 1130 682 l 1,71,72
 1121 678 1121 678 1118 656 c 1,73,-1
 1111 640 l 1,74,75
 1105 632 1105 632 1100 629 c 1,76,-1
 607 629 l 2,77,78
 574 629 574 629 573 578 c 1,79,-1
 573 376 l 1,80,-1
 644 377 l 1,81,82
 687 385 687 385 687 397 c 0,83,84
 687 399 687 399 685 401 c 0,85,86
 653 433 653 433 658 473 c 0,87,88
 659 477 659 477 660 482 c 0,89,90
 672 529 672 529 716 539 c 1,91,-1
 747 540 l 2,92,93
 748 540 748 540 750 540 c 0,94,95
 813 532 813 532 825 481 c 1,96,-1
 828 453 l 1,97,98
 827 435 827 435 809 403 c 1,99,100
 797 386 797 386 801 370 c 0,101,102
 803 361 803 361 809 352 c 0,103,104
 830 323 830 323 877 295 c 1,105,106
 897 280 897 280 893 257 c 1,107,-1
 890 248 l 2,108,109
 883 227 883 227 858 215 c 0,110,111
 850 212 850 212 849 212 c 0,112,113
 815 202 815 202 791 159 c 0,114,115
 771 123 771 123 781 99 c 0,116,117
 786 86 786 86 799 77 c 0,118,119
 825 60 825 60 858 59 c 0,120,121
 895 56 895 56 958 93 c 0,122,123
 989 112 989 112 1026 140 c 0,124,125
 1046 155 1046 155 1042 146 c 0,126,127
 1039 140 1039 140 1025 125 c 0,128,129
 1022 121 1022 121 1014 113 c 0,130,131
 939 32 939 32 843 16 c 0,132,133
 838 15 838 15 829 15 c 1,134,135
 797 -18 797 -18 799 -62 c 0,136,137
 802 -119 802 -119 881 -129 c 0,138,139
 919 -134 919 -134 975 -99 c 0,140,141
 1003 -81 1003 -81 1037 -53 c 0,142,143
 1043 -48 1043 -48 1046 -47 c 0,144,145
 1059 -39 1059 -39 1060 -40 c 0,146,147
 1062 -41 1062 -41 1054 -52 c 0,148,149
 1045 -64 1045 -64 1033 -76 c 0,150,151
 982 -124 982 -124 940 -150 c 0,152,153
 893 -177 893 -177 842 -174 c 2,154,-1
 836 -174 l 2,155,156
 769 -169 769 -169 741 -113 c 0,157,158
 719 -68 719 -68 733 -21 c 0,159,160
 739 1 739 1 754 25 c 2,161,-1
 759 32 l 1,162,163
 679 71 679 71 686 138 c 0,164,165
 686 141 686 141 687 145 c 0,166,167
 696 201 696 201 754 232 c 1,168,169
 793 257 793 257 786 279 c 1,170,171
 781 290 781 290 772 296 c 1,172,-1
 725 346 l 1,173,174
 691 324 691 324 632 325 c 1,175,-1
 584 330 l 1,176,-1
 574 335 l 1,177,-1
 574 108 l 2,178,179
 574 71 574 71 608 69 c 0,180,181
 640 69 640 69 650 100 c 0,182,183
 652 104 652 104 653 108 c 1,184,185
 654 73 654 73 642 49 c 0,186,187
 635 35 635 35 624 24 c 1,188,-1
 607 10 l 1,189,-1
 584 2 l 2,190,191
 578 0 578 0 565 0 c 0,192,193
 504 -2 504 -2 493 63 c 1,194,-1
 490 93 l 1,195,-1
 490 227 l 1,0,1
EndSplineSet
LCarets2: 1 0 
Ligature2: "'blws' Below Base Substitutions in Devanagari lookup 9 subtable" LetterVocalicR SignVocalicR
EndChar

StartChar: LetterVocalicLL
Encoding: 2401 2401 91
Width: 875
GlyphClass: 3
Flags: W
AnchorPoint: "Anchor-2" 562 683 basechar 0
LayerCount: 2
Fore
SplineSet
683 474 m 4,0,1
 729 465 729 465 770 416 c 5,2,3
 814 360 814 360 806 283 c 4,4,5
 805 275 805 275 804 266 c 4,6,7
 795 202 795 202 760 202 c 5,8,-1
 739 206 l 5,9,10
 702 220 702 220 663 215 c 4,11,12
 644 213 644 213 623 206 c 5,13,14
 566 183 566 183 558 141 c 4,15,16
 555 128 555 128 558 111 c 5,17,18
 574 60 574 60 647 72 c 4,19,20
 659 73 659 73 672 77 c 4,21,22
 688 80 688 80 716 91 c 4,23,24
 748 104 748 104 761 101 c 4,25,26
 764 100 764 100 766 98 c 4,27,28
 769 93 769 93 756 85 c 6,29,-1
 744 78 l 6,30,31
 737 74 737 74 724 69 c 6,32,-1
 642 41 l 5,33,34
 590 18 590 18 586 -46 c 5,35,36
 587 -91 587 -91 630 -114 c 5,37,38
 667 -130 667 -130 708 -114 c 4,39,40
 729 -105 729 -105 752 -87 c 4,41,42
 768 -74 768 -74 780 -60 c 6,43,-1
 819 -18 l 5,44,45
 830 -8 830 -8 827 -19 c 4,46,47
 826 -26 826 -26 820 -38 c 6,48,-1
 816 -45 l 6,49,50
 745 -180 745 -180 649 -176 c 4,51,52
 646 -176 646 -176 644 -176 c 4,53,54
 533 -164 533 -164 528 -80 c 4,55,56
 526 -43 526 -43 541 -11 c 4,57,58
 548 5 548 5 560 20 c 5,59,60
 562 25 562 25 570 33 c 5,61,62
 507 58 507 58 488 85 c 4,63,64
 477 102 477 102 477 126 c 4,65,66
 479 182 479 182 551 223 c 4,67,68
 613 260 613 260 674 255 c 6,69,-1
 686 253 l 5,70,-1
 697 251 l 6,71,72
 721 244 721 244 729 260 c 4,73,74
 734 269 734 269 733 286 c 4,75,76
 733 301 733 301 729 314 c 4,77,78
 705 406 705 406 609 413 c 5,79,80
 592 416 592 416 569 413 c 6,81,-1
 557 411 l 6,82,83
 480 396 480 396 443 303 c 4,84,85
 443 302 443 302 427 255 c 5,86,-1
 398 332 l 5,87,88
 371 392 371 392 323 408 c 5,89,90
 308 411 308 411 293 411 c 4,91,92
 213 410 213 410 168 339 c 4,93,94
 135 289 135 289 142 231 c 4,95,96
 143 220 143 220 146 208 c 4,97,98
 170 122 170 122 231 67 c 5,99,100
 266 32 266 32 311 12 c 5,101,-1
 341 2 l 5,102,103
 348 -2 348 -2 308 2 c 4,104,105
 307 3 307 3 303 3 c 4,106,107
 183 16 183 16 109 111 c 5,108,109
 67 162 67 162 54 227 c 5,110,111
 33 319 33 319 68 382 c 4,112,113
 87 415 87 415 122 440 c 4,114,115
 183 486 183 486 256 484 c 6,116,-1
 260 484 l 5,117,-1
 265 484 l 6,118,119
 331 485 331 485 369 460 c 4,120,121
 390 447 390 447 404 426 c 4,122,123
 413 413 413 413 429 382 c 5,124,125
 441 445 441 445 515 478 c 5,126,127
 520 482 520 482 526 483 c 5,128,129
 574 501 574 501 584 543 c 4,130,131
 586 555 586 555 586 557 c 4,132,133
 585 592 585 592 552 617 c 4,134,135
 539 627 539 627 523 629 c 5,136,-1
 0 629 l 5,137,138
 14 638 14 638 18 662 c 4,139,140
 21 676 21 676 32 682 c 5,141,-1
 921 682 l 5,142,143
 911 678 911 678 908 656 c 5,144,-1
 902 640 l 5,145,-1
 891 630 l 5,146,-1
 890 629 l 5,147,-1
 602 629 l 5,148,149
 654 601 654 601 659 552 c 4,150,151
 660 536 660 536 656 523 c 5,152,-1
 649 507 l 6,153,154
 641 487 641 487 642 486 c 4,155,156
 644 481 644 481 683 474 c 4,0,1
EndSplineSet
LCarets2: 1 0 
Ligature2: "'blws' Below Base Substitutions in Devanagari lookup 9 subtable" LetterVocalicL SignVocalicR
EndChar

StartChar: LuMatra
Encoding: 2402 2402 92
Width: 702
GlyphClass: 4
Flags: W
LayerCount: 2
Fore
SplineSet
439 -95 m 4,0,1
 400 -95 400 -95 374 -68 c 4,2,3
 347 -40 347 -40 347 5 c 4,4,5
 347 61 347 61 397 129 c 5,6,7
 419 157 419 157 447 213 c 5,8,9
 451 233 451 233 432 242 c 5,10,-1
 409 247 l 5,11,-1
 401 247 l 6,12,13
 351 247 351 247 336 166 c 5,14,-1
 307 166 l 5,15,16
 293 258 293 258 240 260 c 4,17,18
 208 261 208 261 196 246 c 4,19,20
 190 238 190 238 189 224 c 4,21,22
 187 194 187 194 203 172 c 4,23,24
 210 162 210 162 221 154 c 4,25,26
 234 143 234 143 231 135 c 4,27,28
 230 133 230 133 228 131 c 4,29,30
 218 121 218 121 204 121 c 4,31,32
 182 121 182 121 160 145 c 4,33,34
 126 183 126 183 131 225 c 4,35,36
 132 229 132 229 133 234 c 4,37,38
 136 275 136 275 157 299 c 4,39,40
 177 324 177 324 218 331 c 5,41,-1
 234 331 l 5,42,43
 299 324 299 324 318 266 c 5,44,45
 347 315 347 315 385 324 c 4,46,47
 407 330 407 330 419 330 c 4,48,49
 454 330 454 330 478 303 c 5,50,51
 505 276 505 276 506 238 c 4,52,53
 507 205 507 205 481 158 c 4,54,55
 470 138 470 138 455 116 c 4,56,57
 403 44 403 44 406 13 c 5,58,59
 407 -23 407 -23 470 -17 c 4,60,61
 476 -17 476 -17 483 -16 c 4,62,63
 560 0 560 0 556 122 c 4,64,65
 556 125 556 125 556 129 c 4,66,67
 556 176 556 176 535 239 c 5,68,69
 517 303 517 303 515 299 c 5,70,71
 531 309 531 309 562 321 c 5,72,73
 576 297 576 297 589 252 c 4,74,75
 604 200 604 200 607 140 c 5,76,77
 609 130 609 130 609 98 c 5,78,79
 599 -29 599 -29 541 -65 c 5,80,81
 491 -100 491 -100 446 -96 c 4,82,83
 443 -96 443 -96 439 -95 c 4,0,1
EndSplineSet
EndChar

StartChar: DANDA
Encoding: 2404 2404 93
Width: 628
GlyphClass: 4
Flags: W
LayerCount: 2
Fore
SplineSet
319 129 m 2,0,1
 319 89 319 89 354 89 c 0,2,3
 386 89 386 89 396 122 c 0,4,5
 398 126 398 126 399 129 c 1,6,7
 400 93 400 93 387 68 c 0,8,9
 381 55 381 55 370 44 c 0,10,11
 348 24 348 24 311 20 c 1,12,13
 271 19 271 19 252 49 c 0,14,15
 243 63 243 63 239 85 c 0,16,17
 237 103 237 103 237 115 c 2,18,-1
 237 783 l 2,19,20
 237 813 237 813 270 824 c 0,21,22
 300 833 300 833 311 841 c 0,23,24
 316 846 316 846 319 853 c 1,25,-1
 319 129 l 2,0,1
EndSplineSet
EndChar

StartChar: DoubleDANDA
Encoding: 2405 2405 94
Width: 851
GlyphClass: 4
Flags: W
LayerCount: 2
Fore
SplineSet
650 129 m 2,0,1
 650 89 650 89 685 89 c 0,2,3
 716 89 716 89 727 122 c 0,4,5
 729 126 729 126 730 129 c 1,6,7
 731 93 731 93 719 69 c 0,8,9
 712 55 712 55 700 44 c 0,10,11
 679 25 679 25 642 20 c 1,12,13
 601 19 601 19 582 49 c 0,14,15
 573 64 573 64 569 85 c 0,16,17
 567 103 567 103 567 115 c 2,18,-1
 567 783 l 2,19,20
 567 813 567 813 601 824 c 0,21,22
 632 833 632 833 642 841 c 0,23,24
 647 846 647 846 650 853 c 1,25,-1
 650 129 l 2,0,1
319 129 m 2,26,27
 319 89 319 89 354 89 c 0,28,29
 386 89 386 89 396 122 c 0,30,31
 398 126 398 126 399 129 c 1,32,33
 400 93 400 93 387 68 c 0,34,35
 381 55 381 55 370 44 c 0,36,37
 348 24 348 24 311 20 c 1,38,39
 271 19 271 19 252 49 c 0,40,41
 243 63 243 63 239 85 c 0,42,43
 237 103 237 103 237 115 c 2,44,-1
 237 783 l 2,45,46
 237 813 237 813 270 824 c 0,47,48
 300 833 300 833 311 841 c 0,49,50
 316 846 316 846 319 853 c 1,51,-1
 319 129 l 2,26,27
EndSplineSet
EndChar

StartChar: DigitZero
Encoding: 2406 2406 95
Width: 584
GlyphClass: 2
Flags: W
LayerCount: 2
Fore
SplineSet
298 472 m 0,0,1
 249 473 249 473 210 449 c 0,2,3
 189 437 189 437 171 417 c 1,4,5
 132 377 132 377 132 327 c 0,6,7
 132 229 132 229 215 187 c 1,8,9
 259 167 259 167 311 169 c 0,10,11
 313 169 313 169 316 169 c 0,12,13
 387 173 387 173 430 237 c 1,14,15
 454 276 454 276 455 318 c 0,16,17
 456 370 456 370 427 407 c 0,18,19
 413 426 413 426 391 441 c 0,20,21
 350 471 350 471 298 472 c 0,0,1
301 521 m 0,22,23
 372 522 372 522 427 494 c 0,24,25
 455 480 455 480 479 458 c 0,26,27
 538 406 538 406 540 332 c 0,28,29
 542 263 542 263 504 212 c 0,30,31
 484 187 484 187 454 165 c 0,32,33
 403 127 403 127 336 117 c 1,34,35
 266 104 266 104 202 129 c 0,36,37
 171 142 171 142 141 163 c 0,38,39
 55 223 55 223 46 313 c 0,40,41
 44 333 44 333 45 342 c 0,42,43
 49 424 49 424 142 479 c 0,44,45
 211 519 211 519 301 521 c 0,22,23
EndSplineSet
EndChar

StartChar: DigitOne
Encoding: 2407 2407 96
Width: 538
GlyphClass: 2
Flags: W
LayerCount: 2
Fore
SplineSet
309 419 m 0,0,1
 242 377 242 377 196 389 c 0,2,3
 182 392 182 392 170 401 c 0,4,5
 138 426 138 426 143 466 c 1,6,-1
 145 476 l 1,7,8
 162 532 162 532 218 552 c 0,9,10
 238 558 238 558 260 560 c 0,11,12
 332 564 332 564 371 506 c 0,13,14
 409 449 409 449 399 349 c 0,15,16
 398 329 398 329 394 308 c 0,17,18
 372 180 372 180 300 98 c 0,19,20
 246 37 246 37 146 0 c 1,21,22
 309 0 309 0 418 158 c 1,23,24
 472 239 472 239 487 373 c 0,25,26
 498 464 498 464 473 523 c 0,27,28
 461 552 461 552 440 574 c 0,29,30
 370 647 370 647 249 629 c 0,31,32
 225 625 225 625 199 618 c 0,33,34
 133 600 133 600 94 563 c 1,35,36
 48 514 48 514 51 439 c 1,37,-1
 51 433 l 1,38,39
 56 362 56 362 124 327 c 0,40,41
 169 304 169 304 216 311 c 0,42,43
 237 314 237 314 258 323 c 0,44,45
 306 343 306 343 332 391 c 0,46,47
 354 434 354 434 345 441 c 1,48,49
 339 439 339 439 309 419 c 0,0,1
EndSplineSet
EndChar

StartChar: DigitTwo
Encoding: 2408 2408 97
Width: 641
GlyphClass: 2
Flags: W
LayerCount: 2
Fore
SplineSet
282 212 m 0,0,1
 287 213 287 213 283 223 c 0,2,3
 280 228 280 228 275 237 c 0,4,5
 248 285 248 285 194 281 c 0,6,7
 192 280 192 280 189 280 c 0,8,9
 184 280 184 280 181 279 c 0,10,11
 155 273 155 273 151 248 c 0,12,13
 148 227 148 227 162 214 c 0,14,15
 169 208 169 208 180 203 c 0,16,17
 206 190 206 190 244 199 c 0,18,19
 261 203 261 203 282 212 c 0,0,1
516 510 m 0,20,21
 564 433 564 433 536 358 c 0,22,23
 521 319 521 319 487 281 c 1,24,25
 451 238 451 238 399 205 c 1,26,27
 375 187 375 187 360 180 c 0,28,29
 352 175 352 175 360 156 c 1,30,-1
 373 133 l 2,31,32
 405 77 405 77 466 56 c 1,33,34
 511 43 511 43 552 67 c 0,35,36
 574 80 574 80 595 102 c 1,37,-1
 595 101 l 1,38,39
 591 96 591 96 586 90 c 0,40,41
 528 17 528 17 462 3 c 0,42,43
 431 -4 431 -4 405 6 c 0,44,45
 390 12 390 12 377 23 c 1,46,47
 348 44 348 44 312 126 c 0,48,49
 298 160 298 160 292 160 c 1,50,51
 221 128 221 128 159 139 c 0,52,53
 135 143 135 143 111 154 c 0,54,55
 52 180 52 180 46 226 c 1,56,-1
 46 244 l 1,57,58
 54 302 54 302 114 326 c 0,59,60
 160 344 160 344 205 332 c 0,61,62
 229 326 229 326 253 311 c 1,63,64
 290 291 290 291 323 244 c 0,65,66
 331 232 331 232 350 244 c 0,67,68
 358 250 358 250 369 260 c 0,69,70
 423 312 423 312 433 378 c 0,71,72
 440 417 440 417 428 450 c 0,73,74
 422 467 422 467 411 483 c 0,75,76
 354 568 354 568 267 563 c 2,77,-1
 261 563 l 2,78,79
 200 559 200 559 170 518 c 0,80,81
 150 490 150 490 160 468 c 0,82,83
 164 457 164 457 177 446 c 0,84,85
 187 438 187 438 209 429 c 0,86,87
 211 428 211 428 205 426 c 2,88,-1
 189 421 l 2,89,90
 141 406 141 406 110 420 c 0,91,92
 94 427 94 427 83 442 c 0,93,94
 78 448 78 448 73 462 c 1,95,96
 55 500 55 500 80 536 c 0,97,98
 92 555 92 555 115 572 c 0,99,100
 185 626 185 626 290 627 c 0,101,102
 381 628 381 628 444 585 c 0,103,104
 476 563 476 563 501 529 c 1,105,106
 511 519 511 519 516 510 c 0,20,21
EndSplineSet
EndChar

StartChar: DigitThree
Encoding: 2409 2409 98
Width: 660
GlyphClass: 2
Flags: W
LayerCount: 2
Fore
SplineSet
303 49 m 1,0,1
 253 144 253 144 199 137 c 0,2,3
 196 137 196 137 193 136 c 2,4,-1
 186 134 l 2,5,6
 153 121 153 121 159 95 c 0,7,8
 161 91 161 91 163 86 c 0,9,10
 169 73 169 73 188 58 c 1,11,12
 224 37 224 37 273 41 c 0,13,14
 279 41 279 41 286 42 c 0,15,16
 303 45 303 45 303 49 c 1,0,1
198 531 m 0,17,18
 175 494 175 494 201 469 c 0,19,20
 215 455 215 455 242 444 c 0,21,22
 246 443 246 443 246 442 c 1,23,24
 187 418 187 418 151 427 c 0,25,26
 132 432 132 432 119 446 c 0,27,28
 92 473 92 473 99 510 c 0,29,30
 101 520 101 520 105 531 c 0,31,32
 132 595 132 595 208 617 c 0,33,34
 245 629 245 629 296 628 c 2,35,-1
 302 628 l 2,36,37
 456 622 456 622 514 536 c 0,38,39
 545 489 545 489 535 437 c 0,40,41
 532 418 532 418 523 399 c 0,42,43
 501 352 501 352 447 324 c 1,44,45
 424 310 424 310 390 304 c 1,46,47
 466 304 466 304 520 269 c 1,48,49
 547 253 547 253 557 232 c 0,50,51
 596 141 596 141 517 73 c 0,52,53
 478 40 478 40 408 11 c 2,54,-1
 402 9 l 1,55,56
 432 -44 432 -44 489 -48 c 0,57,58
 525 -51 525 -51 567 -29 c 0,59,60
 589 -18 589 -18 613 0 c 0,61,62
 616 2 616 2 612 -3 c 0,63,64
 610 -7 610 -7 605 -14 c 0,65,66
 587 -41 587 -41 551 -70 c 1,67,68
 507 -99 507 -99 460 -106 c 1,69,70
 414 -115 414 -115 372 -75 c 0,71,72
 353 -56 353 -56 335 -27 c 1,73,74
 328 -12 328 -12 325 -12 c 0,75,76
 229 -23 229 -23 158 2 c 0,77,78
 124 14 124 14 96 34 c 0,79,80
 39 73 39 73 46 123 c 0,81,82
 47 127 47 127 48 132 c 0,83,84
 53 150 53 150 62 162 c 0,85,86
 108 221 108 221 183 205 c 0,87,88
 202 201 202 201 222 193 c 0,89,90
 299 160 299 160 349 91 c 0,91,92
 358 77 358 77 366 63 c 0,93,94
 369 57 369 57 383 66 c 0,95,96
 391 71 391 71 403 82 c 0,97,98
 461 131 461 131 461 180 c 0,99,100
 461 214 461 214 424 245 c 1,101,102
 379 275 379 275 336 286 c 1,103,-1
 282 293 l 1,104,-1
 270 295 l 1,105,106
 253 303 253 303 257 313 c 0,107,108
 259 317 259 317 264 321 c 0,109,110
 268 325 268 325 272 325 c 1,111,112
 429 367 429 367 429 444 c 0,113,114
 429 474 429 474 411 512 c 0,115,116
 386 561 386 561 315 572 c 0,117,118
 269 580 269 580 237 566 c 1,119,-1
 215 553 l 2,120,121
 212 551 212 551 209 548 c 0,122,123
 199 533 199 533 198 531 c 0,17,18
EndSplineSet
EndChar

StartChar: DigitFour
Encoding: 2410 2410 99
Width: 647
GlyphClass: 2
Flags: W
LayerCount: 2
Fore
SplineSet
272 285 m 1,0,1
 193 245 193 245 172 195 c 0,2,3
 156 155 156 155 186 118 c 0,4,5
 202 98 202 98 230 80 c 0,6,7
 263 58 263 58 314 64 c 0,8,9
 328 65 328 65 344 69 c 0,10,11
 420 83 420 83 433 127 c 0,12,13
 440 148 440 148 429 173 c 0,14,15
 423 186 423 186 413 200 c 0,16,17
 371 254 371 254 295 278 c 2,18,-1
 272 285 l 1,0,1
333 579 m 1,19,20
 301 606 301 606 259 598 c 0,21,22
 245 595 245 595 230 588 c 0,23,24
 184 566 184 566 167 525 c 0,25,26
 146 478 146 478 174 431 c 0,27,28
 187 409 187 409 211 387 c 0,29,30
 243 357 243 357 296 334 c 0,31,32
 307 329 307 329 337 340 c 0,33,34
 355 347 355 347 379 360 c 0,35,36
 476 416 476 416 514 489 c 1,37,38
 547 558 547 558 504 621 c 0,39,40
 483 652 483 652 444 682 c 1,41,42
 537 670 537 670 579 596 c 0,43,44
 607 546 607 546 598 500 c 0,45,46
 595 486 595 486 589 472 c 0,47,48
 537 363 537 363 361 313 c 2,49,-1
 356 311 l 1,50,51
 495 282 495 282 527 209 c 0,52,53
 544 172 544 172 529 128 c 0,54,55
 522 106 522 106 507 82 c 0,56,57
 457 6 457 6 331 0 c 0,58,59
 255 -3 255 -3 191 18 c 0,60,61
 157 29 157 29 127 47 c 0,62,63
 42 99 42 99 50 170 c 0,64,65
 50 174 50 174 51 178 c 0,66,67
 65 249 65 249 155 286 c 0,68,69
 182 297 182 297 214 304 c 1,70,71
 23 395 23 395 51 504 c 0,72,73
 53 515 53 515 58 525 c 0,74,75
 80 569 80 569 123 602 c 0,76,77
 148 621 148 621 205 630 c 0,78,79
 269 640 269 640 304 614 c 0,80,81
 322 601 322 601 333 579 c 1,19,20
EndSplineSet
EndChar

StartChar: DigitFive
Encoding: 2411 2411 100
Width: 592
GlyphClass: 2
Flags: W
LayerCount: 2
Fore
SplineSet
407 268 m 1,0,1
 457 314 457 314 460 380 c 0,2,3
 460 394 460 394 455 412 c 0,4,5
 443 451 443 451 423 441 c 0,6,7
 418 438 418 438 413 433 c 2,8,-1
 399 416 l 1,9,10
 383 386 383 386 384 359 c 0,11,12
 385 312 385 312 403 274 c 1,13,-1
 407 268 l 1,0,1
285 605 m 2,14,15
 197 576 197 576 157 499 c 1,16,17
 133 460 133 460 131 411 c 0,18,19
 127 342 127 342 159 299 c 0,20,21
 175 276 175 276 201 260 c 0,22,23
 252 226 252 226 333 232 c 2,24,-1
 355 234 l 1,25,26
 296 312 296 312 310 391 c 0,27,28
 312 406 312 406 317 421 c 0,29,30
 343 488 343 488 395 510 c 0,31,32
 421 520 421 520 446 518 c 0,33,34
 450 518 450 518 454 517 c 0,35,36
 551 500 551 500 546 403 c 0,37,38
 545 399 545 399 545 395 c 0,39,40
 539 321 539 321 487 254 c 1,41,42
 465 222 465 222 444 217 c 1,43,44
 458 194 458 194 497 136 c 0,45,46
 534 83 534 83 530 43 c 0,47,48
 522 -30 522 -30 427 -45 c 0,49,50
 408 -49 408 -49 384 -50 c 0,51,52
 338 -54 338 -54 287 -29 c 0,53,54
 259 -16 259 -16 230 6 c 0,55,56
 217 15 217 15 207 28 c 0,57,58
 206 29 206 29 209 28 c 0,59,60
 259 7 259 7 283 2 c 0,61,62
 314 -4 314 -4 344 -2 c 0,63,64
 352 -2 352 -2 359 -1 c 2,65,-1
 391 6 l 1,66,67
 456 32 456 32 439 95 c 0,68,69
 436 110 436 110 428 126 c 0,70,71
 416 151 416 151 385 191 c 1,72,-1
 330 182 l 1,73,74
 219 173 219 173 150 214 c 0,75,76
 115 235 115 235 91 268 c 1,77,78
 53 324 53 324 46 397 c 0,79,80
 40 457 40 457 79 511 c 0,81,82
 98 537 98 537 127 561 c 0,83,84
 201 623 201 623 285 629 c 1,85,86
 326 629 326 629 319 621 c 0,87,88
 315 616 315 616 293 608 c 2,89,-1
 285 605 l 2,14,15
EndSplineSet
EndChar

StartChar: DigitSix
Encoding: 2412 2412 101
Width: 616
GlyphClass: 2
Flags: W
LayerCount: 2
Fore
SplineSet
355 49 m 0,0,1
 405 144 405 144 460 137 c 0,2,3
 463 137 463 137 466 136 c 2,4,-1
 472 134 l 2,5,6
 506 121 506 121 500 95 c 0,7,8
 498 91 498 91 496 86 c 0,9,10
 488 73 488 73 470 58 c 1,11,12
 433 37 433 37 386 41 c 0,13,14
 380 41 380 41 374 42 c 2,15,-1
 356 47 l 2,16,17
 354 48 354 48 355 49 c 0,0,1
462 531 m 2,18,19
 481 498 481 498 456 471 c 0,20,21
 443 457 443 457 418 444 c 2,22,-1
 413 442 l 1,23,24
 471 418 471 418 507 427 c 0,25,26
 526 432 526 432 540 446 c 0,27,28
 566 473 566 473 559 510 c 0,29,30
 557 520 557 520 553 531 c 0,31,32
 535 578 535 578 476 607 c 0,33,34
 425 631 425 631 356 628 c 0,35,36
 203 622 203 622 145 536 c 0,37,38
 114 489 114 489 123 436 c 0,39,40
 127 418 127 418 135 399 c 0,41,42
 172 322 172 322 259 306 c 2,43,-1
 267 304 l 1,44,-1
 268 304 l 2,45,46
 192 304 192 304 138 269 c 1,47,-1
 117 253 l 1,48,49
 103 236 103 236 101 232 c 0,50,51
 62 142 62 142 142 74 c 0,52,53
 181 41 181 41 250 12 c 0,54,55
 254 10 254 10 256 9 c 1,56,57
 228 -44 228 -44 169 -48 c 0,58,59
 128 -51 128 -51 89 -31 c 0,60,61
 67 -19 67 -19 45 0 c 1,62,-1
 68 -31 l 1,63,64
 120 -96 120 -96 200 -106 c 1,65,66
 245 -115 245 -115 286 -76 c 0,67,68
 306 -57 306 -57 324 -27 c 0,69,70
 332 -12 332 -12 334 -12 c 0,71,72
 411 -24 411 -24 473 3 c 0,73,74
 503 16 503 16 528 38 c 1,75,76
 572 73 572 73 572 126 c 0,77,78
 572 138 572 138 566 148 c 0,79,80
 524 209 524 209 455 197 c 0,81,82
 446 196 446 196 436 193 c 0,83,84
 366 172 366 172 309 91 c 0,85,86
 299 76 299 76 293 63 c 0,87,88
 293 64 293 64 257 81 c 0,89,90
 198 108 198 108 199 179 c 0,91,92
 200 225 200 225 222 244 c 1,93,94
 294 300 294 300 348 297 c 2,95,-1
 402 295 l 1,96,97
 408 296 408 296 411 297 c 0,98,99
 429 305 429 305 425 315 c 0,100,101
 423 319 423 319 418 323 c 128,-1,102
 413 327 413 327 409 327 c 0,103,104
 230 369 230 369 230 445 c 0,105,106
 230 476 230 476 248 512 c 0,107,108
 271 561 271 561 343 572 c 0,109,110
 389 580 389 580 422 566 c 0,111,112
 438 559 438 559 450 548 c 1,113,-1
 461 532 l 1,114,-1
 462 531 l 2,18,19
EndSplineSet
EndChar

StartChar: DigitSeven
Encoding: 2413 2413 102
Width: 723
GlyphClass: 2
Flags: W
LayerCount: 2
Fore
SplineSet
527 177 m 2,0,1
 482 167 482 167 449 185 c 0,2,3
 431 195 431 195 416 213 c 1,4,5
 387 244 387 244 385 289 c 128,-1,6
 383 334 383 334 407 367 c 0,7,8
 419 384 419 384 438 399 c 0,9,10
 478 431 478 431 530 430 c 0,11,12
 608 427 608 427 649 362 c 1,13,14
 678 320 678 320 675 269 c 0,15,16
 675 267 675 267 675 264 c 0,17,18
 668 141 668 141 570 63 c 1,19,20
 488 1 488 1 388 0 c 0,21,22
 293 -2 293 -2 215 36 c 0,23,24
 177 54 177 54 144 82 c 0,25,26
 51 164 51 164 45 290 c 0,27,28
 41 381 41 381 95 459 c 0,29,30
 123 499 123 499 165 535 c 0,31,32
 238 597 238 597 331 625 c 0,33,34
 344 630 344 630 352 628 c 0,35,36
 356 628 356 628 359 625 c 1,37,-1
 360 621 l 1,38,39
 359 616 359 616 347 606 c 1,40,41
 241 528 241 528 191 458 c 1,42,43
 133 372 133 372 135 283 c 0,44,45
 139 185 139 185 223 117 c 0,46,47
 297 58 297 58 386 61 c 2,48,-1
 390 61 l 2,49,50
 488 67 488 67 542 140 c 0,51,52
 582 192 582 192 583 256 c 0,53,54
 584 283 584 283 568 308 c 0,55,56
 560 319 560 319 550 330 c 1,57,58
 529 349 529 349 509 346 c 0,59,60
 507 346 507 346 505 345 c 0,61,62
 450 329 450 329 450 280 c 0,63,64
 450 237 450 237 487 214 c 0,65,66
 509 201 509 201 537 202 c 0,67,68
 548 203 548 203 556 200 c 2,69,-1
 562 198 l 1,70,71
 569 191 569 191 556 186 c 0,72,73
 551 183 551 183 540 180 c 2,74,-1
 527 177 l 2,0,1
EndSplineSet
EndChar

StartChar: DigitEight
Encoding: 2414 2414 103
Width: 576
GlyphClass: 2
Flags: W
LayerCount: 2
Fore
SplineSet
480 157 m 1,0,1
 523 209 523 209 527 196 c 0,2,3
 528 192 528 192 527 185 c 1,4,-1
 516 146 l 1,5,6
 474 60 474 60 381 19 c 1,7,8
 331 0 331 0 272 0 c 0,9,10
 168 0 168 0 99 78 c 0,11,12
 42 143 42 143 46 238 c 0,13,14
 46 241 46 241 46 245 c 0,15,16
 58 461 58 461 302 578 c 1,17,18
 355 602 355 602 385 612 c 0,19,20
 433 630 433 630 450 625 c 1,21,22
 454 622 454 622 435 609 c 2,23,-1
 401 588 l 1,24,25
 186 469 186 469 158 289 c 0,26,27
 154 266 154 266 154 240 c 1,28,29
 147 201 147 201 167 163 c 0,30,31
 176 145 176 145 190 128 c 0,32,33
 250 58 250 58 346 80 c 0,34,35
 408 95 408 95 480 157 c 1,0,1
EndSplineSet
EndChar

StartChar: DigitNine
Encoding: 2415 2415 104
Width: 636
GlyphClass: 2
Flags: W
LayerCount: 2
Fore
SplineSet
589 -31 m 0,0,1
 589 29 589 29 510 63 c 1,2,-1
 437 92 l 1,3,4
 309 136 309 136 269 162 c 1,5,6
 153 232 153 232 146 365 c 0,7,8
 143 423 143 423 166 470 c 0,9,10
 177 491 177 491 193 511 c 0,11,12
 244 574 244 574 324 559 c 0,13,14
 340 556 340 556 357 550 c 0,15,16
 400 534 400 534 412 484 c 0,17,18
 420 450 420 450 406 425 c 0,19,20
 400 414 400 414 387 403 c 1,21,22
 357 381 357 381 309 389 c 0,23,24
 287 392 287 392 261 402 c 1,25,-1
 220 422 l 1,26,27
 207 425 207 425 223 407 c 0,28,29
 233 397 233 397 253 379 c 0,30,31
 255 378 255 378 259 374 c 0,32,33
 304 334 304 334 371 340 c 0,34,35
 377 340 377 340 384 341 c 0,36,37
 460 352 460 352 488 409 c 0,38,39
 500 433 500 433 500 462 c 0,40,41
 500 530 500 530 433 582 c 0,42,43
 374 629 374 629 303 629 c 0,44,45
 187 629 187 629 111 543 c 0,46,47
 49 474 49 474 45 384 c 1,48,-1
 47 335 l 1,49,-1
 50 315 l 1,50,51
 78 183 78 183 239 104 c 0,52,53
 265 92 265 92 396 43 c 0,54,55
 485 9 485 9 500 -18 c 0,56,57
 507 -33 507 -33 502 -48 c 0,58,59
 500 -56 500 -56 494 -65 c 0,60,61
 481 -84 481 -84 461 -91 c 1,62,63
 508 -103 508 -103 541 -89 c 0,64,65
 557 -83 557 -83 571 -69 c 1,66,67
 589 -48 589 -48 589 -31 c 0,0,1
EndSplineSet
EndChar

StartChar: DevAbbreviationSign
Encoding: 2416 2416 105
Width: 542
GlyphClass: 2
Flags: W
LayerCount: 2
Fore
SplineSet
274 655 m 0,0,1
 205 655 205 655 159 602 c 1,2,-1
 139 577 l 1,3,4
 124 550 124 550 124 520 c 0,5,6
 124 423 124 423 213 388 c 0,7,8
 250 374 250 374 293 374 c 0,9,10
 356 374 356 374 394 433 c 0,11,12
 419 472 419 472 419 513 c 0,13,14
 419 585 419 585 359 628 c 0,15,16
 323 655 323 655 274 655 c 0,0,1
278 700 m 0,17,18
 377 700 377 700 442 641 c 1,19,-1
 465 616 l 1,20,21
 495 573 495 573 495 524 c 0,22,23
 495 423 495 423 410 365 c 0,24,25
 368 336 368 336 309 325 c 0,26,27
 244 313 244 313 186 339 c 0,28,29
 157 351 157 351 130 373 c 1,30,31
 51 444 51 444 47 535 c 1,32,33
 47 611 47 611 133 662 c 0,34,35
 197 700 197 700 278 700 c 0,17,18
EndSplineSet
EndChar

StartChar: SignWidthThreeIISignRephBindu
Encoding: 59752 59752 106
Width: 313
GlyphClass: 4
Flags: W
LayerCount: 2
Fore
SplineSet
250 812 m 1,0,1
 254 782 254 782 247 758 c 0,2,3
 242 744 242 744 233 735 c 1,4,5
 210 708 210 708 185 714 c 0,6,7
 178 716 178 716 171 720 c 1,8,9
 146 739 146 739 150 762 c 0,10,11
 151 770 151 770 159 778 c 0,12,13
 172 791 172 791 195 790 c 0,14,15
 215 788 215 788 233 800 c 0,16,17
 241 804 241 804 250 812 c 1,0,1
46 579 m 2,18,19
 46 621 46 621 76 630 c 1,20,-1
 0 630 l 1,21,22
 14 639 14 639 18 663 c 0,23,24
 21 676 21 676 32 682 c 1,25,-1
 352 682 l 1,26,27
 344 678 344 678 339 656 c 0,28,29
 336 638 336 638 322 630 c 1,30,-1
 163 630 l 2,31,32
 130 630 130 630 129 579 c 1,33,-1
 129 109 l 2,34,35
 129 70 129 70 164 70 c 0,36,37
 196 70 196 70 206 101 c 0,38,39
 208 105 208 105 209 109 c 1,40,41
 210 74 210 74 198 50 c 0,42,43
 191 36 191 36 180 25 c 2,44,-1
 165 10 l 1,45,46
 145 0 145 0 121 1 c 1,47,48
 81 0 81 0 61 29 c 0,49,50
 52 43 52 43 48 65 c 0,51,52
 46 85 46 85 46 94 c 2,53,-1
 46 579 l 2,18,19
108 682 m 1,54,55
 86 679 86 679 65 700 c 0,56,57
 53 712 53 712 41 731 c 1,58,-1
 -26 812 l 1,59,60
 -76 878 -76 878 -270 878 c 0,61,62
 -274 878 -274 878 -276 877 c 0,63,64
 -443 858 -443 858 -442 786 c 1,65,66
 -437 725 -437 725 -361 696 c 1,67,68
 -334 684 -334 684 -334 680 c 1,69,-1
 -461 681 l 1,70,71
 -533 708 -533 708 -544 774 c 0,72,73
 -553 825 -553 825 -530 859 c 0,74,75
 -519 876 -519 876 -499 889 c 0,76,77
 -409 949 -409 949 -270 947 c 2,78,-1
 -264 947 l 2,79,80
 -113 944 -113 944 -9 888 c 0,81,82
 9 878 9 878 23 868 c 1,83,84
 71 915 71 915 141 906 c 0,85,86
 152 905 152 905 163 902 c 0,87,88
 175 899 175 899 213 884 c 1,89,90
 301 840 301 840 332 840 c 0,91,92
 349 840 349 840 370 848 c 0,93,94
 376 851 376 851 377 848 c 1,95,-1
 377 843 l 1,96,97
 372 832 372 832 356 823 c 1,98,99
 331 806 331 806 299 811 c 0,100,101
 286 814 286 814 272 820 c 0,102,103
 173 864 173 864 121 855 c 0,104,105
 112 853 112 853 104 850 c 1,106,-1
 84 816 l 1,107,108
 80 748 80 748 138 708 c 0,109,110
 176 682 176 682 179 682 c 2,111,-1
 108 682 l 1,54,55
EndSplineSet
LCarets2: 1 0 
Ligature2: "'psts' Post Base Substitutions in Devanagari lookup 0-1" SignWidthThreeII SignRephBindu
EndChar

